%TF.GenerationSoftware,KiCad,Pcbnew,7.0.10*%
%TF.CreationDate,2024-01-17T11:14:49+01:00*%
%TF.ProjectId,Edurob,45647572-6f62-42e6-9b69-6361645f7063,rev?*%
%TF.SameCoordinates,Original*%
%TF.FileFunction,Soldermask,Bot*%
%TF.FilePolarity,Negative*%
%FSLAX46Y46*%
G04 Gerber Fmt 4.6, Leading zero omitted, Abs format (unit mm)*
G04 Created by KiCad (PCBNEW 7.0.10) date 2024-01-17 11:14:49*
%MOMM*%
%LPD*%
G01*
G04 APERTURE LIST*
G04 Aperture macros list*
%AMRoundRect*
0 Rectangle with rounded corners*
0 $1 Rounding radius*
0 $2 $3 $4 $5 $6 $7 $8 $9 X,Y pos of 4 corners*
0 Add a 4 corners polygon primitive as box body*
4,1,4,$2,$3,$4,$5,$6,$7,$8,$9,$2,$3,0*
0 Add four circle primitives for the rounded corners*
1,1,$1+$1,$2,$3*
1,1,$1+$1,$4,$5*
1,1,$1+$1,$6,$7*
1,1,$1+$1,$8,$9*
0 Add four rect primitives between the rounded corners*
20,1,$1+$1,$2,$3,$4,$5,0*
20,1,$1+$1,$4,$5,$6,$7,0*
20,1,$1+$1,$6,$7,$8,$9,0*
20,1,$1+$1,$8,$9,$2,$3,0*%
G04 Aperture macros list end*
%ADD10R,1.700000X1.700000*%
%ADD11O,1.700000X1.700000*%
%ADD12RoundRect,0.200000X0.200000X0.275000X-0.200000X0.275000X-0.200000X-0.275000X0.200000X-0.275000X0*%
%ADD13RoundRect,0.200000X-0.200000X-0.275000X0.200000X-0.275000X0.200000X0.275000X-0.200000X0.275000X0*%
%ADD14RoundRect,0.200000X0.275000X-0.200000X0.275000X0.200000X-0.275000X0.200000X-0.275000X-0.200000X0*%
%ADD15RoundRect,0.200000X-0.275000X0.200000X-0.275000X-0.200000X0.275000X-0.200000X0.275000X0.200000X0*%
%ADD16RoundRect,0.225000X-0.250000X0.225000X-0.250000X-0.225000X0.250000X-0.225000X0.250000X0.225000X0*%
%ADD17C,7.400000*%
%ADD18R,2.000000X1.500000*%
%ADD19R,2.000000X3.800000*%
%ADD20RoundRect,0.250000X-0.725000X0.600000X-0.725000X-0.600000X0.725000X-0.600000X0.725000X0.600000X0*%
%ADD21O,1.950000X1.700000*%
%ADD22RoundRect,0.218750X-0.256250X0.218750X-0.256250X-0.218750X0.256250X-0.218750X0.256250X0.218750X0*%
%ADD23RoundRect,0.225000X-0.225000X-0.250000X0.225000X-0.250000X0.225000X0.250000X-0.225000X0.250000X0*%
%ADD24R,1.500000X1.000000*%
%ADD25C,2.100000*%
%ADD26C,1.750000*%
%ADD27RoundRect,0.225000X0.250000X-0.225000X0.250000X0.225000X-0.250000X0.225000X-0.250000X-0.225000X0*%
%ADD28RoundRect,0.250000X-1.025000X0.787500X-1.025000X-0.787500X1.025000X-0.787500X1.025000X0.787500X0*%
%ADD29C,2.250000*%
%ADD30R,0.800000X0.300000*%
%ADD31R,0.300000X0.800000*%
%ADD32R,2.750000X2.750000*%
%ADD33R,1.500000X2.000000*%
%ADD34R,3.800000X2.000000*%
%ADD35R,1.500000X0.900000*%
%ADD36R,0.900000X1.500000*%
%ADD37R,0.900000X0.900000*%
%ADD38R,1.168400X0.254000*%
%ADD39C,0.650000*%
%ADD40R,0.600000X1.140000*%
%ADD41R,0.300000X1.140000*%
%ADD42O,1.050000X2.100000*%
%ADD43O,0.900000X1.800000*%
%ADD44RoundRect,0.250000X-1.000000X1.400000X-1.000000X-1.400000X1.000000X-1.400000X1.000000X1.400000X0*%
%ADD45RoundRect,0.250000X0.725000X-0.600000X0.725000X0.600000X-0.725000X0.600000X-0.725000X-0.600000X0*%
%ADD46RoundRect,0.225000X0.225000X0.250000X-0.225000X0.250000X-0.225000X-0.250000X0.225000X-0.250000X0*%
%ADD47R,0.600000X0.300000*%
%ADD48R,0.300000X0.600000*%
G04 APERTURE END LIST*
D10*
%TO.C,J6*%
X125000000Y-173300000D03*
D11*
X125000000Y-170760000D03*
X125000000Y-168220000D03*
X125000000Y-165680000D03*
%TD*%
D10*
%TO.C,J11*%
X125000000Y-134300000D03*
D11*
X125000000Y-131760000D03*
X125000000Y-129220000D03*
X125000000Y-126680000D03*
%TD*%
D10*
%TO.C,J16*%
X160540000Y-59140000D03*
D11*
X158000000Y-59140000D03*
X160540000Y-61680000D03*
X158000000Y-61680000D03*
X160540000Y-64220000D03*
X158000000Y-64220000D03*
X160540000Y-66760000D03*
X158000000Y-66760000D03*
X160540000Y-69300000D03*
X158000000Y-69300000D03*
X160540000Y-71840000D03*
X158000000Y-71840000D03*
X160540000Y-74380000D03*
X158000000Y-74380000D03*
X160540000Y-76920000D03*
X158000000Y-76920000D03*
X160540000Y-79460000D03*
X158000000Y-79460000D03*
X160540000Y-82000000D03*
X158000000Y-82000000D03*
%TD*%
D10*
%TO.C,J15*%
X242000000Y-59140000D03*
D11*
X239460000Y-59140000D03*
X242000000Y-61680000D03*
X239460000Y-61680000D03*
X242000000Y-64220000D03*
X239460000Y-64220000D03*
X242000000Y-66760000D03*
X239460000Y-66760000D03*
X242000000Y-69300000D03*
X239460000Y-69300000D03*
X242000000Y-71840000D03*
X239460000Y-71840000D03*
X242000000Y-74380000D03*
X239460000Y-74380000D03*
X242000000Y-76920000D03*
X239460000Y-76920000D03*
X242000000Y-79460000D03*
X239460000Y-79460000D03*
X242000000Y-82000000D03*
X239460000Y-82000000D03*
%TD*%
D10*
%TO.C,J17*%
X158000000Y-240860000D03*
D11*
X160540000Y-240860000D03*
X158000000Y-238320000D03*
X160540000Y-238320000D03*
X158000000Y-235780000D03*
X160540000Y-235780000D03*
X158000000Y-233240000D03*
X160540000Y-233240000D03*
X158000000Y-230700000D03*
X160540000Y-230700000D03*
X158000000Y-228160000D03*
X160540000Y-228160000D03*
X158000000Y-225620000D03*
X160540000Y-225620000D03*
X158000000Y-223080000D03*
X160540000Y-223080000D03*
X158000000Y-220540000D03*
X160540000Y-220540000D03*
X158000000Y-218000000D03*
X160540000Y-218000000D03*
%TD*%
D10*
%TO.C,J18*%
X239460000Y-240860000D03*
D11*
X242000000Y-240860000D03*
X239460000Y-238320000D03*
X242000000Y-238320000D03*
X239460000Y-235780000D03*
X242000000Y-235780000D03*
X239460000Y-233240000D03*
X242000000Y-233240000D03*
X239460000Y-230700000D03*
X242000000Y-230700000D03*
X239460000Y-228160000D03*
X242000000Y-228160000D03*
X239460000Y-225620000D03*
X242000000Y-225620000D03*
X239460000Y-223080000D03*
X242000000Y-223080000D03*
X239460000Y-220540000D03*
X242000000Y-220540000D03*
X239460000Y-218000000D03*
X242000000Y-218000000D03*
%TD*%
D12*
%TO.C,R3*%
X214350063Y-39222779D03*
X212700063Y-39222779D03*
%TD*%
D13*
%TO.C,R9*%
X199490920Y-86731788D03*
X201140920Y-86731788D03*
%TD*%
D14*
%TO.C,R33*%
X197258956Y-150863633D03*
X197258956Y-149213633D03*
%TD*%
D15*
%TO.C,R5*%
X211500000Y-146250000D03*
X211500000Y-147900000D03*
%TD*%
D12*
%TO.C,R1*%
X206249873Y-39222779D03*
X204599873Y-39222779D03*
%TD*%
D14*
%TO.C,R35*%
X223702687Y-57010286D03*
X223702687Y-55360286D03*
%TD*%
D16*
%TO.C,C15*%
X199030730Y-72429686D03*
X199030730Y-73979686D03*
%TD*%
D17*
%TO.C,H22*%
X147250000Y-247000000D03*
%TD*%
D18*
%TO.C,U3*%
X172250000Y-236150000D03*
X172250000Y-238450000D03*
D19*
X165950000Y-238450000D03*
D18*
X172250000Y-240750000D03*
%TD*%
D20*
%TO.C,J8*%
X170250000Y-66040000D03*
D21*
X170250000Y-68540000D03*
X170250000Y-71040000D03*
X170250000Y-73540000D03*
X170250000Y-76040000D03*
X170250000Y-78540000D03*
%TD*%
D17*
%TO.C,H10*%
X275297577Y-98919229D03*
%TD*%
D22*
%TO.C,D3*%
X245861312Y-31744343D03*
X245861312Y-33319343D03*
%TD*%
D23*
%TO.C,C8*%
X172236370Y-36381827D03*
X173786370Y-36381827D03*
%TD*%
D22*
%TO.C,D8*%
X231567356Y-31758954D03*
X231567356Y-33333954D03*
%TD*%
D24*
%TO.C,JP1*%
X209464099Y-146794605D03*
X209464099Y-145494605D03*
X209464099Y-144194605D03*
%TD*%
D25*
%TO.C,SW1*%
X170025000Y-35206240D03*
X163015000Y-35206240D03*
D26*
X168775000Y-32716240D03*
X164275000Y-32716240D03*
%TD*%
D27*
%TO.C,C7*%
X163893827Y-237111710D03*
X163893827Y-235561710D03*
%TD*%
D14*
%TO.C,R34*%
X222176728Y-57004367D03*
X222176728Y-55354367D03*
%TD*%
D17*
%TO.C,H21*%
X140869165Y-221858757D03*
%TD*%
D14*
%TO.C,R28*%
X237309020Y-36409220D03*
X237309020Y-34759220D03*
%TD*%
D17*
%TO.C,H40*%
X147250000Y-53000000D03*
%TD*%
D14*
%TO.C,R36*%
X214000000Y-66825000D03*
X214000000Y-65175000D03*
%TD*%
D28*
%TO.C,C17*%
X208000000Y-71887500D03*
X208000000Y-78112500D03*
%TD*%
D22*
%TO.C,D9*%
X228725212Y-31779823D03*
X228725212Y-33354823D03*
%TD*%
%TO.C,D7*%
X234490093Y-31746424D03*
X234490093Y-33321424D03*
%TD*%
D29*
%TO.C,F1*%
X204600000Y-103000000D03*
X227200000Y-103000000D03*
%TD*%
D17*
%TO.C,H38*%
X180000000Y-35750000D03*
%TD*%
%TO.C,H5*%
X252750000Y-35000000D03*
%TD*%
D14*
%TO.C,R20*%
X165802449Y-228581786D03*
X165802449Y-226931786D03*
%TD*%
D17*
%TO.C,H4*%
X252750000Y-53000000D03*
%TD*%
D15*
%TO.C,R23*%
X226236979Y-68551379D03*
X226236979Y-70201379D03*
%TD*%
D12*
%TO.C,R8*%
X204165972Y-86731788D03*
X202515972Y-86731788D03*
%TD*%
D20*
%TO.C,J10*%
X196000000Y-89000000D03*
D21*
X196000000Y-91500000D03*
X196000000Y-94000000D03*
%TD*%
D10*
%TO.C,J2*%
X274975000Y-165700000D03*
D11*
X274975000Y-168240000D03*
X274975000Y-170780000D03*
X274975000Y-173320000D03*
%TD*%
D23*
%TO.C,C10*%
X201048381Y-152299222D03*
X202598381Y-152299222D03*
%TD*%
D17*
%TO.C,H39*%
X147250000Y-35000000D03*
%TD*%
D10*
%TO.C,J3*%
X274975000Y-126700000D03*
D11*
X274975000Y-129240000D03*
X274975000Y-131780000D03*
X274975000Y-134320000D03*
%TD*%
D17*
%TO.C,H19*%
X160000000Y-110000000D03*
%TD*%
D30*
%TO.C,IC2*%
X203369384Y-70870959D03*
X203369384Y-71370959D03*
X203369384Y-71870959D03*
X203369384Y-72370959D03*
D31*
X202669384Y-73070959D03*
X202169384Y-73070959D03*
X201669384Y-73070959D03*
X201169384Y-73070959D03*
D30*
X200469384Y-72370959D03*
X200469384Y-71870959D03*
X200469384Y-71370959D03*
X200469384Y-70870959D03*
D31*
X201169384Y-70170959D03*
X201669384Y-70170959D03*
X202169384Y-70170959D03*
X202669384Y-70170959D03*
D10*
X201919384Y-71620959D03*
%TD*%
D23*
%TO.C,C5*%
X168090979Y-52252046D03*
X169640979Y-52252046D03*
%TD*%
D14*
%TO.C,R26*%
X245861312Y-36394343D03*
X245861312Y-34744343D03*
%TD*%
D16*
%TO.C,C6*%
X163893827Y-241425000D03*
X163893827Y-242975000D03*
%TD*%
D14*
%TO.C,R31*%
X231564654Y-36394343D03*
X231564654Y-34744343D03*
%TD*%
D18*
%TO.C,U1*%
X218031651Y-91158047D03*
X218031651Y-93458047D03*
D19*
X211731651Y-93458047D03*
D18*
X218031651Y-95758047D03*
%TD*%
D14*
%TO.C,R13*%
X183021877Y-70999704D03*
X183021877Y-69349704D03*
%TD*%
D20*
%TO.C,J12*%
X170250000Y-218576349D03*
D21*
X170250000Y-221076349D03*
X170250000Y-223576349D03*
X170250000Y-226076349D03*
X170250000Y-228576349D03*
X170250000Y-231076349D03*
%TD*%
D31*
%TO.C,IC3*%
X228750000Y-55250000D03*
X229250000Y-55250000D03*
X229750000Y-55250000D03*
X230250000Y-55250000D03*
X230750000Y-55250000D03*
X231250000Y-55250000D03*
D30*
X232000000Y-56000000D03*
X232000000Y-56500000D03*
X232000000Y-57000000D03*
X232000000Y-57500000D03*
X232000000Y-58000000D03*
X232000000Y-58500000D03*
D31*
X231250000Y-59250000D03*
X230750000Y-59250000D03*
X230250000Y-59250000D03*
X229750000Y-59250000D03*
X229250000Y-59250000D03*
X228750000Y-59250000D03*
D30*
X228000000Y-58500000D03*
X228000000Y-58000000D03*
X228000000Y-57500000D03*
X228000000Y-57000000D03*
X228000000Y-56500000D03*
X228000000Y-56000000D03*
D32*
X230000000Y-57250000D03*
%TD*%
D13*
%TO.C,R10*%
X197173321Y-147775014D03*
X198823321Y-147775014D03*
%TD*%
D17*
%TO.C,H15*%
X275000000Y-190000000D03*
%TD*%
D16*
%TO.C,C16*%
X204809382Y-71867113D03*
X204809382Y-73417113D03*
%TD*%
D14*
%TO.C,R37*%
X212650533Y-58562271D03*
X212650533Y-56912271D03*
%TD*%
%TO.C,R18*%
X167344579Y-228581786D03*
X167344579Y-226931786D03*
%TD*%
D33*
%TO.C,U2*%
X169045400Y-60596469D03*
X166745400Y-60596469D03*
D34*
X166745400Y-54296469D03*
D33*
X164445400Y-60596469D03*
%TD*%
D17*
%TO.C,H24*%
X180000000Y-264250000D03*
%TD*%
%TO.C,H3*%
X259130835Y-78141243D03*
%TD*%
D30*
%TO.C,IC1*%
X187369796Y-70877174D03*
X187369796Y-71377174D03*
X187369796Y-71877174D03*
X187369796Y-72377174D03*
D31*
X186669796Y-73077174D03*
X186169796Y-73077174D03*
X185669796Y-73077174D03*
X185169796Y-73077174D03*
D30*
X184469796Y-72377174D03*
X184469796Y-71877174D03*
X184469796Y-71377174D03*
X184469796Y-70877174D03*
D31*
X185169796Y-70177174D03*
X185669796Y-70177174D03*
X186169796Y-70177174D03*
X186669796Y-70177174D03*
D10*
X185919796Y-71627174D03*
%TD*%
D15*
%TO.C,R6*%
X211501195Y-143229378D03*
X211501195Y-144879378D03*
%TD*%
D17*
%TO.C,H18*%
X209000000Y-213750000D03*
%TD*%
%TO.C,H34*%
X124702423Y-98919229D03*
%TD*%
D14*
%TO.C,R19*%
X199027356Y-71008986D03*
X199027356Y-69358986D03*
%TD*%
%TO.C,R16*%
X167353628Y-76059801D03*
X167353628Y-74409801D03*
%TD*%
D13*
%TO.C,R7*%
X199493951Y-90928833D03*
X201143951Y-90928833D03*
%TD*%
D35*
%TO.C,U4*%
X208750000Y-41740000D03*
X208750000Y-43010000D03*
X208750000Y-44280000D03*
X208750000Y-45550000D03*
X208750000Y-46820000D03*
X208750000Y-48090000D03*
X208750000Y-49360000D03*
X208750000Y-50630000D03*
X208750000Y-51900000D03*
X208750000Y-53170000D03*
X208750000Y-54440000D03*
X208750000Y-55710000D03*
X208750000Y-56980000D03*
X208750000Y-58250000D03*
D36*
X206985000Y-59500000D03*
X205715000Y-59500000D03*
X204445000Y-59500000D03*
X203175000Y-59500000D03*
X201905000Y-59500000D03*
X200635000Y-59500000D03*
X199365000Y-59500000D03*
X198095000Y-59500000D03*
X196825000Y-59500000D03*
X195555000Y-59500000D03*
X194285000Y-59500000D03*
X193015000Y-59500000D03*
D35*
X191250000Y-58250000D03*
X191250000Y-56980000D03*
X191250000Y-55710000D03*
X191250000Y-54440000D03*
X191250000Y-53170000D03*
X191250000Y-51900000D03*
X191250000Y-50630000D03*
X191250000Y-49360000D03*
X191250000Y-48090000D03*
X191250000Y-46820000D03*
X191250000Y-45550000D03*
X191250000Y-44280000D03*
X191250000Y-43010000D03*
X191250000Y-41740000D03*
D37*
X202900000Y-50860000D03*
X202900000Y-49460000D03*
X202900000Y-48060000D03*
X201500000Y-50860000D03*
X201500000Y-49460000D03*
X201500000Y-48060000D03*
X200100000Y-50860000D03*
X200100000Y-49460000D03*
X200100000Y-48060000D03*
%TD*%
D15*
%TO.C,R24*%
X224723493Y-68553107D03*
X224723493Y-70203107D03*
%TD*%
D22*
%TO.C,D6*%
X240149535Y-31725444D03*
X240149535Y-33300444D03*
%TD*%
D17*
%TO.C,H33*%
X128141243Y-90869165D03*
%TD*%
%TO.C,H20*%
X160000000Y-190000000D03*
%TD*%
%TO.C,H30*%
X128141243Y-209130835D03*
%TD*%
%TO.C,H8*%
X252750000Y-247000000D03*
%TD*%
D22*
%TO.C,D5*%
X237312045Y-31762294D03*
X237312045Y-33337294D03*
%TD*%
D24*
%TO.C,JP3*%
X225618973Y-62600000D03*
X225618973Y-61300000D03*
X225618973Y-60000000D03*
%TD*%
%TO.C,JP2*%
X194000000Y-65700000D03*
X194000000Y-67000000D03*
X194000000Y-68300000D03*
%TD*%
D15*
%TO.C,R14*%
X196048377Y-64618029D03*
X196048377Y-66268029D03*
%TD*%
D17*
%TO.C,H32*%
X133702423Y-83330771D03*
%TD*%
D28*
%TO.C,C12*%
X192000000Y-71887500D03*
X192000000Y-78112500D03*
%TD*%
D17*
%TO.C,H16*%
X220000000Y-264250000D03*
%TD*%
D38*
%TO.C,U5*%
X200469336Y-89581838D03*
X200469336Y-89081837D03*
X200469336Y-88581837D03*
X200469336Y-88081836D03*
X203212536Y-88081836D03*
X203212536Y-88581837D03*
X203212536Y-89081837D03*
X203212536Y-89581838D03*
%TD*%
D12*
%TO.C,R2*%
X173833760Y-33343693D03*
X172183760Y-33343693D03*
%TD*%
D10*
%TO.C,J5*%
X185000000Y-42500000D03*
D11*
X182460000Y-42500000D03*
X179920000Y-42500000D03*
X177380000Y-42500000D03*
%TD*%
D15*
%TO.C,R15*%
X196048377Y-67660168D03*
X196048377Y-69310168D03*
%TD*%
D17*
%TO.C,H9*%
X252750000Y-265000000D03*
%TD*%
D14*
%TO.C,R32*%
X228722625Y-36415211D03*
X228722625Y-34765211D03*
%TD*%
D39*
%TO.C,J4*%
X206607987Y-36094388D03*
X212387987Y-36094388D03*
D40*
X206297987Y-37164388D03*
X207097987Y-37164388D03*
D41*
X208247987Y-37164388D03*
X209247987Y-37164388D03*
X209747987Y-37164388D03*
X210747987Y-37164388D03*
D40*
X212697987Y-37164388D03*
X211897987Y-37164388D03*
D41*
X211247987Y-37164388D03*
X210247987Y-37164388D03*
X208747987Y-37164388D03*
X207747987Y-37164388D03*
D42*
X205177987Y-36594388D03*
X213817987Y-36594388D03*
D43*
X205177987Y-32414388D03*
X213817987Y-32414388D03*
%TD*%
D25*
%TO.C,SW2*%
X160150000Y-35206240D03*
X153140000Y-35206240D03*
D26*
X158900000Y-32716240D03*
X154400000Y-32716240D03*
%TD*%
D27*
%TO.C,C3*%
X209661795Y-96349017D03*
X209661795Y-94799017D03*
%TD*%
D14*
%TO.C,R30*%
X234487977Y-36384437D03*
X234487977Y-34734437D03*
%TD*%
%TO.C,R17*%
X165830065Y-76063454D03*
X165830065Y-74413454D03*
%TD*%
D17*
%TO.C,H7*%
X259130835Y-221858757D03*
%TD*%
D23*
%TO.C,C1*%
X163845707Y-52248873D03*
X165395707Y-52248873D03*
%TD*%
D17*
%TO.C,H36*%
X220000000Y-35750000D03*
%TD*%
%TO.C,H2*%
X266297577Y-83330771D03*
%TD*%
D16*
%TO.C,C13*%
X188813959Y-71886235D03*
X188813959Y-73436235D03*
%TD*%
D44*
%TO.C,D1*%
X220962555Y-93703507D03*
X227762555Y-93703507D03*
%TD*%
D17*
%TO.C,H11*%
X240000000Y-110000000D03*
%TD*%
D45*
%TO.C,J14*%
X229750000Y-78540000D03*
D21*
X229750000Y-76040000D03*
X229750000Y-73540000D03*
X229750000Y-71040000D03*
X229750000Y-68540000D03*
X229750000Y-66040000D03*
%TD*%
D22*
%TO.C,D4*%
X243009906Y-31752465D03*
X243009906Y-33327465D03*
%TD*%
D27*
%TO.C,C4*%
X209661795Y-92112920D03*
X209661795Y-90562920D03*
%TD*%
D23*
%TO.C,C11*%
X198030222Y-152299268D03*
X199580222Y-152299268D03*
%TD*%
D17*
%TO.C,H6*%
X271858757Y-209130835D03*
%TD*%
%TO.C,H17*%
X191000000Y-213750000D03*
%TD*%
D29*
%TO.C,F2*%
X196720000Y-103000000D03*
X174120000Y-103000000D03*
%TD*%
D10*
%TO.C,J7*%
X174371219Y-95365539D03*
D11*
X176911219Y-95365539D03*
X179451219Y-95365539D03*
X181991219Y-95365539D03*
X184531219Y-95365539D03*
X187071219Y-95365539D03*
%TD*%
D17*
%TO.C,H35*%
X125000000Y-110000000D03*
%TD*%
D14*
%TO.C,R25*%
X225801875Y-36409466D03*
X225801875Y-34759466D03*
%TD*%
D17*
%TO.C,H29*%
X125000000Y-190000000D03*
%TD*%
D12*
%TO.C,R4*%
X173836511Y-34863447D03*
X172186511Y-34863447D03*
%TD*%
D10*
%TO.C,J1*%
X222620000Y-42380000D03*
D11*
X220080000Y-42380000D03*
X217540000Y-42380000D03*
X215000000Y-42380000D03*
%TD*%
D22*
%TO.C,D2*%
X225801876Y-31765616D03*
X225801876Y-33340616D03*
%TD*%
D45*
%TO.C,J13*%
X229750000Y-231076349D03*
D21*
X229750000Y-228576349D03*
X229750000Y-226076349D03*
X229750000Y-223576349D03*
X229750000Y-221076349D03*
X229750000Y-218576349D03*
%TD*%
D17*
%TO.C,H41*%
X275000000Y-110000000D03*
%TD*%
D46*
%TO.C,C9*%
X204118226Y-90928833D03*
X202568226Y-90928833D03*
%TD*%
D16*
%TO.C,C14*%
X183024408Y-72422092D03*
X183024408Y-73972092D03*
%TD*%
D17*
%TO.C,H12*%
X240000000Y-190000000D03*
%TD*%
D14*
%TO.C,R27*%
X243009906Y-36404777D03*
X243009906Y-34754777D03*
%TD*%
%TO.C,R11*%
X202580176Y-150864395D03*
X202580176Y-149214395D03*
%TD*%
D20*
%TO.C,J9*%
X191000000Y-89000000D03*
D21*
X191000000Y-91500000D03*
X191000000Y-94000000D03*
%TD*%
D17*
%TO.C,H23*%
X147250000Y-265000000D03*
%TD*%
%TO.C,H1*%
X271858757Y-90869165D03*
%TD*%
D15*
%TO.C,R22*%
X234165001Y-221081922D03*
X234165001Y-222731922D03*
%TD*%
D17*
%TO.C,H31*%
X140869165Y-78141243D03*
%TD*%
D15*
%TO.C,R21*%
X232642554Y-221080112D03*
X232642554Y-222730112D03*
%TD*%
D23*
%TO.C,C2*%
X172229742Y-31818392D03*
X173779742Y-31818392D03*
%TD*%
D12*
%TO.C,R12*%
X200463873Y-67914918D03*
X198813873Y-67914918D03*
%TD*%
D47*
%TO.C,AC1*%
X201111980Y-149206811D03*
X201111980Y-149706811D03*
X201111980Y-150206811D03*
X201111980Y-150706811D03*
D48*
X200461980Y-150856811D03*
X199961980Y-150856811D03*
X199461980Y-150856811D03*
D47*
X198811980Y-150706811D03*
X198811980Y-150206811D03*
X198811980Y-149706811D03*
X198811980Y-149206811D03*
D48*
X199461980Y-149056811D03*
X199961980Y-149056811D03*
X200461980Y-149056811D03*
%TD*%
D14*
%TO.C,R29*%
X240148593Y-36369577D03*
X240148593Y-34719577D03*
%TD*%
M02*
