M48
; DRILL file {KiCad 7.0.10} date Mon May 27 11:18:24 2024
; FORMAT={-:-/ absolute / metric / decimal}
; #@! TF.CreationDate,2024-05-27T11:18:24+02:00
; #@! TF.GenerationSoftware,Kicad,Pcbnew,7.0.10
; #@! TF.FileFunction,MixedPlating,1,2
FMAT,2
METRIC
; #@! TA.AperFunction,Plated,PTH,ViaDrill
T1C0.350
; #@! TA.AperFunction,Plated,PTH,ViaDrill
T2C0.400
; #@! TA.AperFunction,Plated,PTH,ComponentDrill
T3C0.600
; #@! TA.AperFunction,Plated,PTH,ComponentDrill
T4C0.950
; #@! TA.AperFunction,Plated,PTH,ComponentDrill
T5C0.990
; #@! TA.AperFunction,Plated,PTH,ComponentDrill
T6C1.000
; #@! TA.AperFunction,Plated,PTH,ComponentDrill
T7C1.300
; #@! TA.AperFunction,Plated,PTH,ComponentDrill
T8C1.500
; #@! TA.AperFunction,Plated,PTH,ComponentDrill
T9C4.500
; #@! TA.AperFunction,NonPlated,NPTH,ComponentDrill
T10C0.650
%
G90
G05
T1
X169.05Y-58.421
X175.288Y-33.342
X188.5Y-35.5
X188.5Y-42.5
X189.566Y-35.5
X189.569Y-42.5
X191.0Y-35.5
X193.0Y-43.0
X207.29Y-39.79
X207.5Y-38.5
X208.21Y-40.71
X211.5Y-38.5
X214.127Y-93.459
X215.627Y-93.459
X216.0Y-59.556
X233.0Y-34.0
T2
X156.5Y-60.0
X162.05Y-73.112
X162.074Y-70.567
X162.103Y-68.017
X165.518Y-85.776
X166.0Y-70.0
X166.279Y-86.524
X166.5Y-91.5
X167.0Y-70.0
X167.194Y-87.358
X168.0Y-92.5
X168.013Y-81.987
X168.833Y-82.719
X169.268Y-89.792
X169.5Y-216.0
X169.676Y-83.544
X170.498Y-84.338
X171.312Y-85.165
X172.128Y-85.974
X173.024Y-86.804
X174.0Y-60.0
X175.0Y-59.0
X176.5Y-56.0
X178.195Y-65.195
X179.0Y-64.129
X179.5Y-59.4
X179.906Y-63.404
X181.0Y-59.4
X181.663Y-72.421
X183.0Y-52.0
X183.0Y-53.0
X183.0Y-64.0
X183.0Y-65.0
X184.5Y-81.5
X184.5Y-83.0
X185.0Y-99.0
X186.013Y-64.013
X186.5Y-65.0
X186.5Y-100.5
X186.895Y-66.0
X187.0Y-75.5
X187.0Y-77.0
X188.289Y-65.009
X189.5Y-51.9
X189.53Y-53.172
X191.0Y-74.0
X191.0Y-75.0
X192.0Y-74.0
X192.0Y-75.0
X193.0Y-74.0
X193.0Y-75.0
X194.286Y-58.044
X194.5Y-109.919
X194.516Y-113.005
X195.555Y-58.0
X195.856Y-109.917
X196.824Y-58.07
X197.495Y-64.619
X197.678Y-72.43
X198.028Y-115.85
X198.094Y-58.031
X199.0Y-108.643
X199.411Y-63.895
X200.5Y-76.5
X201.048Y-115.853
X201.225Y-75.0
X201.5Y-63.895
X201.812Y-85.492
X202.926Y-63.832
X203.0Y-80.5
X203.0Y-82.0
X204.0Y-113.008
X204.03Y-63.797
X204.118Y-92.094
X204.444Y-61.21
X205.153Y-63.812
X205.45Y-87.468
X205.452Y-90.161
X206.346Y-63.797
X206.439Y-88.23
X206.44Y-90.802
X207.0Y-74.0
X207.0Y-75.0
X208.0Y-64.175
X208.0Y-74.0
X208.0Y-75.0
X209.0Y-60.0
X209.0Y-74.0
X209.0Y-75.0
X210.466Y-44.281
X210.467Y-43.008
X210.487Y-54.439
X210.488Y-53.17
X210.502Y-55.709
X212.509Y-60.0
X212.644Y-55.707
X213.818Y-58.562
X214.0Y-62.0
X214.0Y-68.112
X217.0Y-57.075
X217.0Y-59.475
X218.0Y-57.058
X218.0Y-59.45
X218.169Y-108.934
X219.0Y-57.025
X219.0Y-59.406
X220.0Y-57.056
X220.021Y-59.402
X224.5Y-82.0
X225.0Y-57.0
X225.0Y-80.5
X226.465Y-56.15
X227.5Y-62.599
X227.537Y-60.0
X233.0Y-35.5
X233.5Y-219.0
X234.028Y-57.47
X236.0Y-36.5
X238.5Y-36.5
X241.5Y-36.5
X244.5Y-36.5
T4
X170.25Y-66.04
X170.25Y-68.54
X170.25Y-71.04
X170.25Y-73.54
X170.25Y-76.04
X170.25Y-78.54
X170.25Y-218.576
X170.25Y-221.076
X170.25Y-223.576
X170.25Y-226.076
X170.25Y-228.576
X170.25Y-231.076
X191.0Y-89.0
X191.0Y-91.5
X191.0Y-94.0
X196.0Y-89.0
X196.0Y-91.5
X196.0Y-94.0
X229.75Y-66.04
X229.75Y-68.54
X229.75Y-71.04
X229.75Y-73.54
X229.75Y-76.04
X229.75Y-78.54
X229.75Y-218.576
X229.75Y-221.076
X229.75Y-223.576
X229.75Y-226.076
X229.75Y-228.576
X229.75Y-231.076
T5
X154.4Y-32.716
X158.9Y-32.716
X164.275Y-32.716
X168.775Y-32.716
T6
X125.0Y-126.68
X125.0Y-129.22
X125.0Y-131.76
X125.0Y-134.3
X125.0Y-165.68
X125.0Y-168.22
X125.0Y-170.76
X125.0Y-173.3
X158.0Y-59.14
X158.0Y-61.68
X158.0Y-64.22
X158.0Y-66.76
X158.0Y-69.3
X158.0Y-71.84
X158.0Y-74.38
X158.0Y-76.92
X158.0Y-79.46
X158.0Y-82.0
X158.0Y-218.0
X158.0Y-220.54
X158.0Y-223.08
X158.0Y-225.62
X158.0Y-228.16
X158.0Y-230.7
X158.0Y-233.24
X158.0Y-235.78
X158.0Y-238.32
X158.0Y-240.86
X160.54Y-59.14
X160.54Y-61.68
X160.54Y-64.22
X160.54Y-66.76
X160.54Y-69.3
X160.54Y-71.84
X160.54Y-74.38
X160.54Y-76.92
X160.54Y-79.46
X160.54Y-82.0
X160.54Y-218.0
X160.54Y-220.54
X160.54Y-223.08
X160.54Y-225.62
X160.54Y-228.16
X160.54Y-230.7
X160.54Y-233.24
X160.54Y-235.78
X160.54Y-238.32
X160.54Y-240.86
X174.371Y-95.366
X176.911Y-95.366
X177.38Y-42.5
X179.451Y-95.366
X179.92Y-42.5
X181.991Y-95.366
X182.46Y-42.5
X184.531Y-95.366
X185.0Y-42.5
X187.071Y-95.366
X215.0Y-42.38
X217.54Y-42.38
X220.08Y-42.38
X222.62Y-42.38
X239.46Y-59.14
X239.46Y-61.68
X239.46Y-64.22
X239.46Y-66.76
X239.46Y-69.3
X239.46Y-71.84
X239.46Y-74.38
X239.46Y-76.92
X239.46Y-79.46
X239.46Y-82.0
X239.46Y-218.0
X239.46Y-220.54
X239.46Y-223.08
X239.46Y-225.62
X239.46Y-228.16
X239.46Y-230.7
X239.46Y-233.24
X239.46Y-235.78
X239.46Y-238.32
X239.46Y-240.86
X242.0Y-59.14
X242.0Y-61.68
X242.0Y-64.22
X242.0Y-66.76
X242.0Y-69.3
X242.0Y-71.84
X242.0Y-74.38
X242.0Y-76.92
X242.0Y-79.46
X242.0Y-82.0
X242.0Y-218.0
X242.0Y-220.54
X242.0Y-223.08
X242.0Y-225.62
X242.0Y-228.16
X242.0Y-230.7
X242.0Y-233.24
X242.0Y-235.78
X242.0Y-238.32
X242.0Y-240.86
X274.975Y-126.7
X274.975Y-129.24
X274.975Y-131.78
X274.975Y-134.32
X274.975Y-165.7
X274.975Y-168.24
X274.975Y-170.78
X274.975Y-173.32
T7
X153.14Y-35.206
X160.15Y-35.206
X163.015Y-35.206
X170.025Y-35.206
T8
X174.12Y-103.0
X196.72Y-103.0
X204.6Y-103.0
X227.2Y-103.0
T9
X124.702Y-98.919
X125.0Y-110.0
X125.0Y-190.0
X128.141Y-90.869
X128.141Y-209.131
X133.702Y-83.331
X140.869Y-78.141
X140.869Y-221.859
X147.25Y-35.0
X147.25Y-53.0
X147.25Y-247.0
X147.25Y-265.0
X160.0Y-110.0
X160.0Y-190.0
X180.0Y-35.75
X180.0Y-264.25
X191.0Y-213.75
X209.0Y-213.75
X220.0Y-35.75
X220.0Y-264.25
X240.0Y-110.0
X240.0Y-190.0
X252.75Y-35.0
X252.75Y-53.0
X252.75Y-247.0
X252.75Y-265.0
X259.131Y-78.141
X259.131Y-221.859
X266.298Y-83.331
X271.859Y-90.869
X271.859Y-209.131
X275.0Y-110.0
X275.0Y-190.0
X275.298Y-98.919
T10
X206.608Y-36.094
X212.388Y-36.094
T3
G00X205.178Y-32.014
M15
G01X205.178Y-32.814
M16
G05
G00X205.178Y-36.044
M15
G01X205.178Y-37.144
M16
G05
G00X213.818Y-32.014
M15
G01X213.818Y-32.814
M16
G05
G00X213.818Y-36.044
M15
G01X213.818Y-37.144
M16
G05
M30
