<?xml version="1.0" encoding="UTF-8" standalone="no"?>
<!-- Created with Inkscape (http://www.inkscape.org/) -->

<svg
   width="28.884155mm"
   height="22.449459mm"
   viewBox="0 0 28.884155 22.449459"
   version="1.1"
   id="svg5"
   sodipodi:docname="BaseLinkEdurob.svg"
   inkscape:version="1.3.2 (091e20e, 2023-11-25, custom)"
   xmlns:inkscape="http://www.inkscape.org/namespaces/inkscape"
   xmlns:sodipodi="http://sodipodi.sourceforge.net/DTD/sodipodi-0.dtd"
   xmlns="http://www.w3.org/2000/svg"
   xmlns:svg="http://www.w3.org/2000/svg">
  <sodipodi:namedview
     id="namedview7"
     pagecolor="#ffffff"
     bordercolor="#000000"
     borderopacity="0.25"
     inkscape:showpageshadow="2"
     inkscape:pageopacity="0.0"
     inkscape:pagecheckerboard="0"
     inkscape:deskcolor="#d1d1d1"
     inkscape:document-units="mm"
     showgrid="false"
     inkscape:zoom="5.9081369"
     inkscape:cx="64.402705"
     inkscape:cy="42.060636"
     inkscape:window-width="1920"
     inkscape:window-height="1129"
     inkscape:window-x="1912"
     inkscape:window-y="-8"
     inkscape:window-maximized="1"
     inkscape:current-layer="text2636" />
  <defs
     id="defs2" />
  <g
     inkscape:label="Layer 1"
     inkscape:groupmode="layer"
     id="layer1"
     transform="translate(-89.036354,-126.24309)">
    <g
       id="path307">
      <path
         style="color:#000000;fill:#b58f4b;stroke-linecap:round;-inkscape-stroke:none"
         d="m 101.5997,131.54121 v 7.8055"
         id="path3" />
      <path
         style="color:#000000;fill:#000000;stroke-linecap:round;-inkscape-stroke:none"
         d="m 101.59961,131.33203 a 0.2097775,0.2097775 0 0 0 -0.20898,0.20899 v 7.80664 a 0.2097775,0.2097775 0 0 0 0.20898,0.20898 0.2097775,0.2097775 0 0 0 0.20898,-0.20898 v -7.80664 a 0.2097775,0.2097775 0 0 0 -0.20898,-0.20899 z"
         id="path4" />
      <g
         id="g2">
        <path
           d="m 100.39394,131.60322 0.94308,-1.88615 a 0.29368851,0.29368851 0 0 1 0.52536,0 l 0.94308,1.88615 a 0.36301896,0.36301896 0 0 1 -0.32469,0.52537 h -1.76214 a 0.36301896,0.36301896 0 0 1 -0.32469,-0.52537 z"
           style="color:#000000;fill:#000000;fill-rule:evenodd;-inkscape-stroke:none"
           id="path2" />
      </g>
    </g>
    <g
       id="path307-9">
      <path
         style="color:#000000;fill:#b58f4b;stroke-linecap:round;-inkscape-stroke:none"
         d="m 93.792319,139.34723 h 7.805501"
         id="path6" />
      <path
         style="color:#000000;fill:#000000;stroke-linecap:round;-inkscape-stroke:none"
         d="m 93.792969,139.13672 a 0.2097775,0.2097775 0 0 0 -0.210938,0.21094 0.2097775,0.2097775 0 0 0 0.210938,0.20898 h 7.804691 a 0.2097775,0.2097775 0 0 0 0.20898,-0.20898 0.2097775,0.2097775 0 0 0 -0.20898,-0.21094 z"
         id="path7" />
      <g
         id="g5">
        <path
           d="m 93.85433,140.55299 -1.886153,-0.94308 a 0.29368851,0.29368851 0 0 1 0,-0.52536 l 1.886153,-0.94308 a 0.36301896,0.36301896 0 0 1 0.525366,0.32469 v 1.76214 a 0.36301896,0.36301896 0 0 1 -0.525366,0.32469 z"
           style="color:#000000;fill:#000000;fill-rule:evenodd;-inkscape-stroke:none"
           id="path5" />
      </g>
    </g>
    <g
       aria-label="X"
       id="text2216"
       style="font-size:4px;font-family:'Meta Offc Pro';-inkscape-font-specification:'Meta Offc Pro';stroke:#000000;stroke-width:0.423;stroke-linecap:round">
      <path
         d="m 102.19598,129.19859 -0.68,-1.26 -0.644,1.26 h -0.384 l 0.812,-1.472 -0.728,-1.272 h 0.388 l 0.548,1.016 0.524,-1.016 h 0.384 l -0.688,1.248 0.864,1.496 z"
         id="path2693" />
    </g>
    <g
       aria-label="Y"
       id="text2270"
       style="font-size:4px;font-family:'Meta Offc Pro';-inkscape-font-specification:'Meta Offc Pro';stroke:#000000;stroke-width:0.423;stroke-linecap:round">
      <path
         d="m 90.613004,139.57261 v 1.068 h -0.34 v -1.088 l -0.884,-1.656 h 0.404 l 0.52,1.048 0.14,0.308 q 0.008,-0.024 0.048,-0.112 0.044,-0.092 0.1,-0.196 l 0.528,-1.048 h 0.376 z"
         id="path2696" />
    </g>
    <g
       aria-label="Z (up)"
       id="text2636"
       style="font-size:4px;font-family:'Meta Offc Pro';-inkscape-font-specification:'Meta Offc Pro';stroke:#000000;stroke-width:0.423;stroke-linecap:round">
      <path
         d="m 103.95005,142.96773 h -1.628 v -0.252 l 1.172,-1.956 q 0.068,-0.116 0.116,-0.18 0.048,-0.068 0.06,-0.084 -0.02,0 -0.096,0.004 -0.076,0 -0.188,0 h -1.024 l 0.092,-0.276 h 1.564 v 0.28 l -1.14,1.924 q -0.06,0.104 -0.108,0.176 -0.048,0.072 -0.06,0.088 0.02,0 0.084,0 0.068,-0.004 0.152,-0.004 h 1.088 z"
         id="path2699" />
      <path
         d="m 106.40605,143.58773 q -0.252,-0.096 -0.456,-0.312 -0.2,-0.216 -0.316,-0.512 -0.044,-0.116 -0.076,-0.256 -0.032,-0.14 -0.052,-0.284 -0.016,-0.144 -0.024,-0.28 -0.008,-0.14 -0.008,-0.26 0,-0.26 0.024,-0.464 0.028,-0.208 0.076,-0.372 0.052,-0.168 0.12,-0.3 0.072,-0.132 0.16,-0.24 0.112,-0.14 0.256,-0.252 0.148,-0.112 0.296,-0.168 l 0.076,0.152 q -0.204,0.12 -0.356,0.284 -0.152,0.164 -0.228,0.432 -0.052,0.184 -0.08,0.42 -0.024,0.236 -0.024,0.5 0,0.388 0.048,0.724 0.052,0.332 0.192,0.58 0.084,0.148 0.192,0.252 0.108,0.108 0.268,0.196 z"
         id="path2701" />
      <path
         d="m 108.17805,143.05173 q -0.1,-0.08 -0.148,-0.148 -0.048,-0.072 -0.068,-0.172 -0.228,0.304 -0.632,0.304 -0.192,0 -0.328,-0.076 -0.132,-0.076 -0.196,-0.208 -0.028,-0.056 -0.04,-0.132 -0.012,-0.076 -0.012,-0.164 v -1.464 l 0.308,-0.06 v 1.432 q 0,0.14 0.024,0.216 0.028,0.072 0.096,0.12 0.048,0.032 0.112,0.052 0.064,0.016 0.132,0.016 0.148,0 0.288,-0.096 0.14,-0.1 0.22,-0.264 v -1.412 l 0.308,-0.052 v 1.452 q 0,0.188 0.028,0.284 0.032,0.092 0.108,0.16 z"
         id="path2703" />
      <path
         d="m 110.59805,141.96773 q 0,0.24 -0.04,0.396 -0.036,0.156 -0.12,0.292 -0.108,0.176 -0.264,0.272 -0.156,0.092 -0.352,0.092 -0.152,0 -0.3,-0.06 -0.144,-0.064 -0.248,-0.172 v 0.952 l -0.312,0.06 v -2.392 q 0,-0.204 -0.02,-0.304 -0.016,-0.104 -0.024,-0.124 l 0.32,-0.056 q 0.004,0.012 0.012,0.084 0.008,0.072 0.008,0.22 0.248,-0.292 0.588,-0.292 0.152,0 0.292,0.064 0.144,0.064 0.24,0.184 0.112,0.14 0.164,0.328 0.056,0.188 0.056,0.456 z m -0.332,0.04 q 0,-0.18 -0.024,-0.328 -0.024,-0.152 -0.068,-0.244 -0.048,-0.104 -0.148,-0.16 -0.1,-0.06 -0.22,-0.06 -0.3,0 -0.532,0.28 v 1.004 q 0.228,0.26 0.488,0.26 0.14,0 0.252,-0.068 0.116,-0.068 0.168,-0.18 0.044,-0.096 0.064,-0.216 0.02,-0.12 0.02,-0.288 z"
         id="path2705" />
      <path
         d="m 111.77805,141.78373 q 0,0.26 -0.028,0.468 -0.024,0.204 -0.076,0.372 -0.048,0.164 -0.12,0.296 -0.068,0.132 -0.156,0.24 -0.112,0.14 -0.26,0.252 -0.144,0.112 -0.292,0.168 l -0.076,-0.152 q 0.204,-0.12 0.356,-0.284 0.152,-0.164 0.228,-0.432 0.052,-0.184 0.076,-0.42 0.028,-0.236 0.028,-0.5 0,-0.388 -0.052,-0.72 -0.048,-0.336 -0.188,-0.584 -0.084,-0.148 -0.192,-0.252 -0.108,-0.108 -0.268,-0.196 l 0.088,-0.16 q 0.252,0.096 0.452,0.312 0.204,0.216 0.32,0.512 0.044,0.116 0.076,0.256 0.032,0.14 0.048,0.284 0.02,0.144 0.028,0.284 0.008,0.136 0.008,0.256 z"
         id="path2707" />
      <path
         style="font-weight:bold;font-size:17.6389px;-inkscape-font-specification:'Meta Offc Pro Bold';stroke-width:0.121418"
         d="m 103.92599,147.89329 h -1.85898 v -0.41977 l 1.09654,-1.81187 q 0.0557,-0.0899 0.11137,-0.16705 0.0557,-0.0814 0.0728,-0.1028 -0.0214,0.005 -0.10279,0.0129 -0.0814,0.009 -0.20133,0.009 h -0.91663 l 0.13278,-0.49687 h 1.78188 v 0.43262 l -1.10511,1.86326 q -0.0429,0.0729 -0.0942,0.13279 -0.0471,0.0599 -0.0599,0.0771 0.0257,-0.005 0.11994,-0.009 0.0942,-0.009 0.17561,-0.009 h 1.00231 z m 2.56147,0.72389 q -0.31269,-0.10708 -0.54828,-0.33838 -0.23558,-0.22703 -0.36837,-0.54828 -0.0728,-0.17562 -0.11136,-0.38122 -0.0386,-0.20988 -0.0599,-0.50116 -0.0128,-0.18418 -0.0128,-0.3341 0,-0.21845 0.0214,-0.43262 0.0257,-0.21845 0.0643,-0.38121 0.0472,-0.19276 0.14563,-0.37694 0.10281,-0.18847 0.23988,-0.33839 0.26556,-0.2827 0.62108,-0.4369 l 0.14992,0.33838 q -0.09,0.0642 -0.13278,0.0985 -0.0429,0.0342 -0.0985,0.0899 -0.11136,0.11137 -0.19274,0.23987 -0.0814,0.1285 -0.1285,0.27842 -0.0429,0.11994 -0.0686,0.24843 -0.0214,0.12422 -0.03,0.31269 -0.009,0.0942 -0.009,0.18419 v 0.16705 q 0,0.14563 0.009,0.32125 0.009,0.17134 0.0257,0.33839 0.0257,0.2313 0.0686,0.39407 0.0471,0.15848 0.13278,0.3084 0.0386,0.0728 0.0814,0.1285 0.0429,0.06 0.0942,0.10709 0.0514,0.0471 0.11137,0.09 0.0642,0.0471 0.14563,0.0899 z m 1.72619,-0.72389 q -0.0214,-0.0429 -0.0342,-0.1285 -0.20988,0.18418 -0.50543,0.18418 -0.20988,0 -0.37694,-0.0771 -0.16705,-0.0814 -0.28698,-0.22274 -0.11565,-0.14563 -0.17991,-0.35124 -0.0642,-0.2056 -0.0642,-0.4626 0,-0.25701 0.0685,-0.46689 0.0686,-0.21417 0.19276,-0.36837 0.12421,-0.1542 0.29554,-0.23558 0.17134,-0.0857 0.38123,-0.0857 0.23558,0 0.38978,0.12422 -0.009,-0.0342 -0.0129,-0.12851 -0.005,-0.0985 -0.005,-0.19703 v -0.75387 l 0.5697,0.0899 v 2.27875 q 0,0.20132 0.005,0.34266 0.009,0.13708 0.0214,0.23131 0.0129,0.0899 0.0257,0.14563 0.0172,0.0514 0.03,0.0814 z m -0.1285,-1.61483 q -0.16277,-0.14135 -0.31269,-0.14135 -0.19275,0 -0.2827,0.16705 -0.0857,0.16705 -0.0857,0.53542 0,0.17562 0.0172,0.29555 0.0214,0.11994 0.0686,0.19276 0.0471,0.0728 0.12421,0.10707 0.0771,0.03 0.18847,0.03 0.0814,0 0.15849,-0.0428 0.0814,-0.0471 0.12421,-0.0985 z m 3.03691,0.50972 q 0,0.2827 -0.0686,0.48402 -0.0642,0.20132 -0.2056,0.36409 -0.12422,0.14135 -0.29556,0.22273 -0.17133,0.0814 -0.42833,0.0814 -0.22274,0 -0.40692,-0.0814 -0.1799,-0.0814 -0.3084,-0.22702 -0.1285,-0.14991 -0.20132,-0.3598 -0.0686,-0.20988 -0.0686,-0.46689 0,-0.257 0.0686,-0.46688 0.0729,-0.21417 0.20132,-0.36409 0.1285,-0.1542 0.3084,-0.23559 0.18418,-0.0814 0.40692,-0.0814 0.46689,0 0.74531,0.32982 0.13278,0.15421 0.19275,0.34267 0.0599,0.18847 0.0599,0.45832 z m -0.62538,-0.005 q 0,-0.43691 -0.11565,-0.58682 -0.0899,-0.11565 -0.24843,-0.11565 -0.1028,0 -0.18418,0.06 -0.0771,0.0599 -0.11137,0.16276 -0.03,0.0857 -0.0472,0.2056 -0.0129,0.11994 -0.0129,0.28271 0,0.38121 0.0728,0.55255 0.0386,0.0899 0.11994,0.13707 0.0857,0.0429 0.17133,0.0429 0.18847,0 0.26986,-0.17562 0.0857,-0.17562 0.0857,-0.5654 z m 3.16541,1.1094 h -0.52684 l -0.19704,-0.75388 q -0.0342,-0.13279 -0.0686,-0.27413 -0.0342,-0.14564 -0.0557,-0.25701 l -0.0342,-0.21845 q -0.005,0.0342 -0.009,0.0642 l -0.009,0.0557 q -0.005,0.0257 -0.0128,0.0643 -0.009,0.0385 -0.0214,0.0985 -0.0171,0.0729 -0.0429,0.17134 -0.0214,0.0985 -0.0471,0.20988 -0.0257,0.10709 -0.0557,0.20989 -0.0257,0.1028 -0.0428,0.1799 l -0.11137,0.44976 h -0.53542 l -0.59968,-2.15454 0.5697,-0.0642 0.1799,0.84382 q 0.0172,0.0857 0.0385,0.19275 0.0214,0.1028 0.0386,0.20132 0.0171,0.0985 0.03,0.1799 0.0128,0.0771 0.0172,0.10709 0.009,-0.0643 0.0257,-0.15421 0.0171,-0.0942 0.0385,-0.19703 0.0214,-0.10709 0.0428,-0.21417 0.0257,-0.10708 0.0514,-0.19704 l 0.2056,-0.73673 h 0.53971 l 0.17562,0.72389 q 0.03,0.13706 0.0557,0.26556 0.03,0.1285 0.0514,0.23131 0.0214,0.10279 0.0342,0.1799 0.0172,0.0728 0.0214,0.0985 0.005,-0.0342 0.0128,-0.11138 0.0128,-0.0771 0.03,-0.17561 0.0172,-0.1028 0.0342,-0.21417 0.0214,-0.11137 0.0428,-0.21417 l 0.16705,-0.78385 h 0.59111 z m 2.13313,0 v -1.42637 q 0,-0.18846 -0.0429,-0.25271 -0.0385,-0.0685 -0.14991,-0.0685 -0.0857,0 -0.19276,0.0557 -0.10708,0.0514 -0.20559,0.14135 v 1.55058 h -0.57398 v -1.58913 q 0,-0.14135 -0.0214,-0.26985 -0.0172,-0.13279 -0.0557,-0.24415 l 0.50972,-0.14564 q 0.0814,0.14135 0.0814,0.27414 0.0642,-0.0471 0.11994,-0.0857 0.0599,-0.0386 0.13278,-0.0771 0.0857,-0.0471 0.18847,-0.0686 0.10708,-0.0257 0.2056,-0.0257 0.18418,0 0.32982,0.09 0.14563,0.0857 0.19703,0.22702 0.0429,0.11565 0.0429,0.31268 v 1.60199 z m 2.06458,-1.25504 q 0,0.22274 -0.0214,0.44548 -0.0172,0.21845 -0.0599,0.38122 -0.0471,0.19275 -0.14992,0.37694 -0.1028,0.18418 -0.23987,0.3341 -0.26129,0.28698 -0.62537,0.4369 l -0.14563,-0.33839 q 0.0429,-0.03 0.0728,-0.0557 0.0342,-0.0214 0.06,-0.0429 0.0257,-0.0214 0.0471,-0.0428 0.0214,-0.0214 0.0514,-0.0471 0.22702,-0.22701 0.32554,-0.51829 0.0385,-0.11565 0.0599,-0.24415 0.0214,-0.1285 0.0342,-0.31697 0.0129,-0.19275 0.0129,-0.3598 0,-0.14135 -0.009,-0.31269 -0.005,-0.17561 -0.0257,-0.33839 -0.0257,-0.2313 -0.0685,-0.38978 -0.0429,-0.16277 -0.1285,-0.31269 -0.0429,-0.0728 -0.0857,-0.12849 -0.0385,-0.0599 -0.0899,-0.10709 -0.0514,-0.0471 -0.11565,-0.0899 -0.0599,-0.0428 -0.14136,-0.0899 l 0.14992,-0.3341 q 0.31268,0.11136 0.54827,0.33838 0.23987,0.22273 0.36836,0.55256 0.0685,0.17561 0.10709,0.3855 0.0385,0.2056 0.0599,0.49687 0.009,0.09 0.009,0.17133 z"
         id="text1"
         aria-label="Z (down)" />
    </g>
    <path
       d="m 90.709007,132.00635 v -0.252 h 0.456 v -1.984 q -0.012,0.008 -0.044,0.032 -0.032,0.02 -0.076,0.048 -0.04,0.028 -0.088,0.056 -0.044,0.028 -0.088,0.048 -0.04,0.02 -0.092,0.044 -0.052,0.024 -0.1,0.044 -0.048,0.02 -0.088,0.04 -0.04,0.016 -0.056,0.024 l -0.068,-0.172 0.768,-0.54 h 0.248 v 2.36 h 0.404 v 0.252 z"
       id="text7"
       style="font-size:4px;font-family:'Meta Offc Pro';-inkscape-font-specification:'Meta Offc Pro';stroke:#000000;stroke-width:0.423;stroke-linecap:round"
       aria-label="1" />
    <path
       d="m 96.924948,134.15965 h -1.528 v -0.18 q 0.116,-0.08 0.26,-0.216 0.148,-0.14 0.34,-0.356 0.164,-0.184 0.28,-0.34 0.12,-0.156 0.192,-0.288 0.076,-0.136 0.112,-0.256 0.036,-0.12 0.036,-0.232 0,-0.224 -0.136,-0.368 -0.136,-0.148 -0.348,-0.148 -0.088,0 -0.168,0.024 -0.076,0.02 -0.148,0.056 -0.072,0.032 -0.144,0.08 -0.072,0.044 -0.152,0.092 l -0.136,-0.152 q 0.224,-0.192 0.432,-0.284 0.208,-0.092 0.424,-0.092 0.156,0 0.292,0.06 0.136,0.056 0.236,0.156 0.1,0.096 0.156,0.232 0.06,0.136 0.06,0.292 0,0.172 -0.068,0.356 -0.068,0.184 -0.188,0.352 -0.14,0.188 -0.352,0.416 -0.1,0.104 -0.192,0.2 -0.092,0.096 -0.172,0.172 -0.076,0.076 -0.132,0.124 -0.056,0.048 -0.08,0.06 0.032,-0.004 0.136,-0.008 0.104,-0.008 0.204,-0.008 h 0.848 z"
       id="text8"
       style="font-size:4px;font-family:'Meta Offc Pro';-inkscape-font-specification:'Meta Offc Pro';stroke:#000000;stroke-width:0.423;stroke-linecap:round"
       aria-label="2" />
  </g>
</svg>
