<?xml version="1.0" encoding="UTF-8" standalone="no"?>
<!-- Created with Inkscape (http://www.inkscape.org/) -->

<svg
   width="22.953196mm"
   height="17.812689mm"
   viewBox="0 0 22.953195 17.812689"
   version="1.1"
   id="svg5"
   sodipodi:docname="BaseLinkEdurob.svg"
   inkscape:version="1.3.2 (091e20e, 2023-11-25, custom)"
   xmlns:inkscape="http://www.inkscape.org/namespaces/inkscape"
   xmlns:sodipodi="http://sodipodi.sourceforge.net/DTD/sodipodi-0.dtd"
   xmlns="http://www.w3.org/2000/svg"
   xmlns:svg="http://www.w3.org/2000/svg">
  <sodipodi:namedview
     id="namedview7"
     pagecolor="#ffffff"
     bordercolor="#000000"
     borderopacity="0.25"
     inkscape:showpageshadow="2"
     inkscape:pageopacity="0.0"
     inkscape:pagecheckerboard="0"
     inkscape:deskcolor="#d1d1d1"
     inkscape:document-units="mm"
     showgrid="false"
     inkscape:zoom="4.1776837"
     inkscape:cx="41.17114"
     inkscape:cy="18.55095"
     inkscape:window-width="1920"
     inkscape:window-height="1009"
     inkscape:window-x="1912"
     inkscape:window-y="-8"
     inkscape:window-maximized="1"
     inkscape:current-layer="layer1" />
  <defs
     id="defs2" />
  <g
     inkscape:label="Layer 1"
     inkscape:groupmode="layer"
     id="layer1"
     transform="translate(-89.036354,-126.24309)">
    <g
       id="path307">
      <path
         style="color:#000000;fill:#b58f4b;stroke-linecap:round;-inkscape-stroke:none"
         d="m 101.5997,131.54121 v 7.8055"
         id="path3" />
      <path
         style="color:#000000;fill:#000000;stroke-linecap:round;-inkscape-stroke:none"
         d="m 101.59961,131.33203 a 0.2097775,0.2097775 0 0 0 -0.20898,0.20899 v 7.80664 a 0.2097775,0.2097775 0 0 0 0.20898,0.20898 0.2097775,0.2097775 0 0 0 0.20898,-0.20898 v -7.80664 a 0.2097775,0.2097775 0 0 0 -0.20898,-0.20899 z"
         id="path4" />
      <g
         id="g2">
        <path
           d="m 100.39394,131.60322 0.94308,-1.88615 a 0.29368851,0.29368851 0 0 1 0.52536,0 l 0.94308,1.88615 a 0.36301896,0.36301896 0 0 1 -0.32469,0.52537 h -1.76214 a 0.36301896,0.36301896 0 0 1 -0.32469,-0.52537 z"
           style="color:#000000;fill:#000000;fill-rule:evenodd;-inkscape-stroke:none"
           id="path2" />
      </g>
    </g>
    <g
       id="path307-9">
      <path
         style="color:#000000;fill:#b58f4b;stroke-linecap:round;-inkscape-stroke:none"
         d="m 93.792319,139.34723 h 7.805501"
         id="path6" />
      <path
         style="color:#000000;fill:#000000;stroke-linecap:round;-inkscape-stroke:none"
         d="m 93.792969,139.13672 a 0.2097775,0.2097775 0 0 0 -0.210938,0.21094 0.2097775,0.2097775 0 0 0 0.210938,0.20898 h 7.804691 a 0.2097775,0.2097775 0 0 0 0.20898,-0.20898 0.2097775,0.2097775 0 0 0 -0.20898,-0.21094 z"
         id="path7" />
      <g
         id="g5">
        <path
           d="m 93.85433,140.55299 -1.886153,-0.94308 a 0.29368851,0.29368851 0 0 1 0,-0.52536 l 1.886153,-0.94308 a 0.36301896,0.36301896 0 0 1 0.525366,0.32469 v 1.76214 a 0.36301896,0.36301896 0 0 1 -0.525366,0.32469 z"
           style="color:#000000;fill:#000000;fill-rule:evenodd;-inkscape-stroke:none"
           id="path5" />
      </g>
    </g>
    <g
       aria-label="X"
       id="text2216"
       style="font-size:4px;font-family:'Meta Offc Pro';-inkscape-font-specification:'Meta Offc Pro';stroke:#000000;stroke-width:0.423;stroke-linecap:round">
      <path
         d="m 102.19598,129.19859 -0.68,-1.26 -0.644,1.26 h -0.384 l 0.812,-1.472 -0.728,-1.272 h 0.388 l 0.548,1.016 0.524,-1.016 h 0.384 l -0.688,1.248 0.864,1.496 z"
         id="path2693" />
    </g>
    <g
       aria-label="Y"
       id="text2270"
       style="font-size:4px;font-family:'Meta Offc Pro';-inkscape-font-specification:'Meta Offc Pro';stroke:#000000;stroke-width:0.423;stroke-linecap:round">
      <path
         d="m 90.613004,139.57261 v 1.068 h -0.34 v -1.088 l -0.884,-1.656 h 0.404 l 0.52,1.048 0.14,0.308 q 0.008,-0.024 0.048,-0.112 0.044,-0.092 0.1,-0.196 l 0.528,-1.048 h 0.376 z"
         id="path2696" />
    </g>
    <g
       aria-label="Z (up)"
       id="text2636"
       style="font-size:4px;font-family:'Meta Offc Pro';-inkscape-font-specification:'Meta Offc Pro';stroke:#000000;stroke-width:0.423;stroke-linecap:round">
      <path
         d="m 103.95005,142.96773 h -1.628 v -0.252 l 1.172,-1.956 q 0.068,-0.116 0.116,-0.18 0.048,-0.068 0.06,-0.084 -0.02,0 -0.096,0.004 -0.076,0 -0.188,0 h -1.024 l 0.092,-0.276 h 1.564 v 0.28 l -1.14,1.924 q -0.06,0.104 -0.108,0.176 -0.048,0.072 -0.06,0.088 0.02,0 0.084,0 0.068,-0.004 0.152,-0.004 h 1.088 z"
         id="path2699" />
      <path
         d="m 106.40605,143.58773 q -0.252,-0.096 -0.456,-0.312 -0.2,-0.216 -0.316,-0.512 -0.044,-0.116 -0.076,-0.256 -0.032,-0.14 -0.052,-0.284 -0.016,-0.144 -0.024,-0.28 -0.008,-0.14 -0.008,-0.26 0,-0.26 0.024,-0.464 0.028,-0.208 0.076,-0.372 0.052,-0.168 0.12,-0.3 0.072,-0.132 0.16,-0.24 0.112,-0.14 0.256,-0.252 0.148,-0.112 0.296,-0.168 l 0.076,0.152 q -0.204,0.12 -0.356,0.284 -0.152,0.164 -0.228,0.432 -0.052,0.184 -0.08,0.42 -0.024,0.236 -0.024,0.5 0,0.388 0.048,0.724 0.052,0.332 0.192,0.58 0.084,0.148 0.192,0.252 0.108,0.108 0.268,0.196 z"
         id="path2701" />
      <path
         d="m 108.17805,143.05173 q -0.1,-0.08 -0.148,-0.148 -0.048,-0.072 -0.068,-0.172 -0.228,0.304 -0.632,0.304 -0.192,0 -0.328,-0.076 -0.132,-0.076 -0.196,-0.208 -0.028,-0.056 -0.04,-0.132 -0.012,-0.076 -0.012,-0.164 v -1.464 l 0.308,-0.06 v 1.432 q 0,0.14 0.024,0.216 0.028,0.072 0.096,0.12 0.048,0.032 0.112,0.052 0.064,0.016 0.132,0.016 0.148,0 0.288,-0.096 0.14,-0.1 0.22,-0.264 v -1.412 l 0.308,-0.052 v 1.452 q 0,0.188 0.028,0.284 0.032,0.092 0.108,0.16 z"
         id="path2703" />
      <path
         d="m 110.59805,141.96773 q 0,0.24 -0.04,0.396 -0.036,0.156 -0.12,0.292 -0.108,0.176 -0.264,0.272 -0.156,0.092 -0.352,0.092 -0.152,0 -0.3,-0.06 -0.144,-0.064 -0.248,-0.172 v 0.952 l -0.312,0.06 v -2.392 q 0,-0.204 -0.02,-0.304 -0.016,-0.104 -0.024,-0.124 l 0.32,-0.056 q 0.004,0.012 0.012,0.084 0.008,0.072 0.008,0.22 0.248,-0.292 0.588,-0.292 0.152,0 0.292,0.064 0.144,0.064 0.24,0.184 0.112,0.14 0.164,0.328 0.056,0.188 0.056,0.456 z m -0.332,0.04 q 0,-0.18 -0.024,-0.328 -0.024,-0.152 -0.068,-0.244 -0.048,-0.104 -0.148,-0.16 -0.1,-0.06 -0.22,-0.06 -0.3,0 -0.532,0.28 v 1.004 q 0.228,0.26 0.488,0.26 0.14,0 0.252,-0.068 0.116,-0.068 0.168,-0.18 0.044,-0.096 0.064,-0.216 0.02,-0.12 0.02,-0.288 z"
         id="path2705" />
      <path
         d="m 111.77805,141.78373 q 0,0.26 -0.028,0.468 -0.024,0.204 -0.076,0.372 -0.048,0.164 -0.12,0.296 -0.068,0.132 -0.156,0.24 -0.112,0.14 -0.26,0.252 -0.144,0.112 -0.292,0.168 l -0.076,-0.152 q 0.204,-0.12 0.356,-0.284 0.152,-0.164 0.228,-0.432 0.052,-0.184 0.076,-0.42 0.028,-0.236 0.028,-0.5 0,-0.388 -0.052,-0.72 -0.048,-0.336 -0.188,-0.584 -0.084,-0.148 -0.192,-0.252 -0.108,-0.108 -0.268,-0.196 l 0.088,-0.16 q 0.252,0.096 0.452,0.312 0.204,0.216 0.32,0.512 0.044,0.116 0.076,0.256 0.032,0.14 0.048,0.284 0.02,0.144 0.028,0.284 0.008,0.136 0.008,0.256 z"
         id="path2707" />
    </g>
    <path
       d="m 90.709007,132.00635 v -0.252 h 0.456 v -1.984 q -0.012,0.008 -0.044,0.032 -0.032,0.02 -0.076,0.048 -0.04,0.028 -0.088,0.056 -0.044,0.028 -0.088,0.048 -0.04,0.02 -0.092,0.044 -0.052,0.024 -0.1,0.044 -0.048,0.02 -0.088,0.04 -0.04,0.016 -0.056,0.024 l -0.068,-0.172 0.768,-0.54 h 0.248 v 2.36 h 0.404 v 0.252 z"
       id="text7"
       style="font-size:4px;font-family:'Meta Offc Pro';-inkscape-font-specification:'Meta Offc Pro';stroke:#000000;stroke-width:0.423;stroke-linecap:round"
       aria-label="1" />
    <path
       d="m 96.924948,134.15965 h -1.528 v -0.18 q 0.116,-0.08 0.26,-0.216 0.148,-0.14 0.34,-0.356 0.164,-0.184 0.28,-0.34 0.12,-0.156 0.192,-0.288 0.076,-0.136 0.112,-0.256 0.036,-0.12 0.036,-0.232 0,-0.224 -0.136,-0.368 -0.136,-0.148 -0.348,-0.148 -0.088,0 -0.168,0.024 -0.076,0.02 -0.148,0.056 -0.072,0.032 -0.144,0.08 -0.072,0.044 -0.152,0.092 l -0.136,-0.152 q 0.224,-0.192 0.432,-0.284 0.208,-0.092 0.424,-0.092 0.156,0 0.292,0.06 0.136,0.056 0.236,0.156 0.1,0.096 0.156,0.232 0.06,0.136 0.06,0.292 0,0.172 -0.068,0.356 -0.068,0.184 -0.188,0.352 -0.14,0.188 -0.352,0.416 -0.1,0.104 -0.192,0.2 -0.092,0.096 -0.172,0.172 -0.076,0.076 -0.132,0.124 -0.056,0.048 -0.08,0.06 0.032,-0.004 0.136,-0.008 0.104,-0.008 0.204,-0.008 h 0.848 z"
       id="text8"
       style="font-size:4px;font-family:'Meta Offc Pro';-inkscape-font-specification:'Meta Offc Pro';stroke:#000000;stroke-width:0.423;stroke-linecap:round"
       aria-label="2" />
  </g>
</svg>
