<?xml version="1.0" encoding="UTF-8" standalone="no"?>
<!-- Created with Inkscape (http://www.inkscape.org/) -->

<svg
   width="86.289734mm"
   height="61.372684mm"
   viewBox="0 0 86.289732 61.372684"
   version="1.1"
   id="svg1"
   inkscape:version="1.3.2 (091e20e, 2023-11-25, custom)"
   sodipodi:docname="EdurobConfig.svg"
   xmlns:inkscape="http://www.inkscape.org/namespaces/inkscape"
   xmlns:sodipodi="http://sodipodi.sourceforge.net/DTD/sodipodi-0.dtd"
   xmlns="http://www.w3.org/2000/svg"
   xmlns:svg="http://www.w3.org/2000/svg">
  <sodipodi:namedview
     id="namedview1"
     pagecolor="#ffffff"
     bordercolor="#000000"
     borderopacity="0.25"
     inkscape:showpageshadow="2"
     inkscape:pageopacity="0.0"
     inkscape:pagecheckerboard="0"
     inkscape:deskcolor="#d1d1d1"
     inkscape:document-units="mm"
     inkscape:zoom="2.0485264"
     inkscape:cx="199.65571"
     inkscape:cy="130.09351"
     inkscape:window-width="1920"
     inkscape:window-height="1009"
     inkscape:window-x="1912"
     inkscape:window-y="-8"
     inkscape:window-maximized="1"
     inkscape:current-layer="layer1" />
  <defs
     id="defs1">
    <rect
       x="-30.265658"
       y="-16.10914"
       width="405.65744"
       height="313.396"
       id="rect46" />
    <rect
       x="368.55761"
       y="303.63289"
       width="426.15999"
       height="344.14982"
       id="rect28" />
    <rect
       x="-28.313035"
       y="-41.005085"
       width="441.29282"
       height="297.77502"
       id="rect12" />
    <rect
       x="-28.313035"
       y="-41.005085"
       width="441.29282"
       height="297.77502"
       id="rect27" />
  </defs>
  <g
     inkscape:label="Layer 1"
     inkscape:groupmode="layer"
     id="layer1"
     transform="translate(-28.199509,-113.97413)">
    <path
       d="m 29.71845,121.28413 v -6.86 h 3.75 l -0.11,0.68 h -2.81 v 2.25 h 2.35 v 0.71 h -2.35 v 2.51 h 3.02 v 0.71 z m 8.260002,0 q -0.02,-0.04 -0.06,-0.19 -0.04,-0.15 -0.05,-0.32 -0.27,0.31 -0.58,0.45 -0.3,0.13 -0.74,0.13 -0.97,0 -1.5,-0.66 -0.53,-0.66 -0.53,-1.86 0,-1.6 1.03,-2.31 0.24,-0.17 0.46,-0.24 0.23,-0.07 0.5,-0.07 0.42,0 0.77,0.17 0.35,0.16 0.58,0.46 0,-0.06 -0.01,-0.29 0,-0.24 0,-0.48 v -2.09 l 0.78,0.13 v 5.56 q 0,0.65 0.03,1.02 0.04,0.37 0.12,0.59 z m -0.14,-3.91 q -0.19,-0.26 -0.48,-0.39 -0.28,-0.13 -0.73,-0.13 -0.61,0 -0.93,0.52 -0.18,0.29 -0.25,0.6 -0.07,0.31 -0.07,0.84 0,0.44 0.04,0.76 0.04,0.32 0.16,0.54 0.17,0.31 0.41,0.45 0.24,0.13 0.59,0.13 0.31,0 0.51,-0.07 0.21,-0.08 0.45,-0.25 0.12,-0.08 0.2,-0.19 0.08,-0.12 0.1,-0.17 z m 6.199992,4.12 q -0.25,-0.2 -0.37,-0.37 -0.12,-0.18 -0.17,-0.43 -0.57,0.76 -1.58,0.76 -0.48,0 -0.82,-0.19 -0.33,-0.19 -0.49,-0.52 -0.07,-0.14 -0.1,-0.33 -0.03,-0.19 -0.03,-0.41 v -3.66 l 0.77,-0.15 v 3.58 q 0,0.35 0.06,0.54 0.07,0.18 0.24,0.3 0.12,0.08 0.28,0.13 0.16,0.04 0.33,0.04 0.37,0 0.72,-0.24 0.35,-0.25 0.55,-0.66 v -3.53 l 0.77,-0.13 v 3.63 q 0,0.47 0.07,0.71 0.08,0.23 0.27,0.4 z m 4.079989,-4.44 q -0.1,-0.04 -0.22,-0.04 -0.47,0 -0.83,0.36 -0.17,0.17 -0.23,0.33 -0.06,0.15 -0.06,0.46 v 3.12 h -0.78 v -3.84 q 0,-0.49 -0.08,-0.75 -0.07,-0.26 -0.09,-0.31 l 0.78,-0.21 q 0.03,0.06 0.1,0.3 0.08,0.23 0.06,0.51 0.27,-0.38 0.64,-0.6 0.38,-0.23 0.76,-0.23 0.09,0 0.17,0.02 0.08,0.02 0.1,0.03 z m 5.010003,1.82 q 0,0.62 -0.16,1.1 -0.16,0.47 -0.45,0.79 -0.28,0.32 -0.67,0.49 -0.39,0.16 -0.86,0.16 -1.03,0 -1.59,-0.71 -0.56,-0.71 -0.56,-1.94 0,-1.22 0.56,-1.91 0.57,-0.7 1.56,-0.7 0.63,0 1.04,0.25 0.41,0.25 0.67,0.62 0.23,0.34 0.34,0.79 0.12,0.45 0.12,1.06 z m -0.89,0.06 q 0,-1.03 -0.23,-1.5 -0.16,-0.33 -0.46,-0.48 -0.29,-0.16 -0.6,-0.16 -0.33,0 -0.61,0.15 -0.28,0.14 -0.41,0.39 -0.12,0.23 -0.18,0.54 -0.06,0.31 -0.06,0.76 0,0.53 0.08,0.97 0.09,0.43 0.23,0.66 0.14,0.23 0.41,0.37 0.28,0.13 0.6,0.13 0.39,0 0.67,-0.19 0.28,-0.2 0.41,-0.56 0.08,-0.23 0.11,-0.47 0.04,-0.24 0.04,-0.61 z m 6.510006,-0.21 q 0,0.6 -0.14,1.1 -0.14,0.49 -0.4,0.84 -0.26,0.35 -0.63,0.55 -0.36,0.19 -0.81,0.19 -0.39,0 -0.78,-0.19 -0.38,-0.19 -0.59,-0.47 -0.02,0.16 -0.04,0.28 -0.02,0.11 -0.1,0.26 h -0.78 q 0.08,-0.18 0.11,-0.45 0.04,-0.28 0.04,-0.79 v -4.9 q 0,-0.44 -0.06,-0.7 -0.05,-0.27 -0.07,-0.32 l 0.78,-0.15 q 0.02,0.06 0.07,0.37 0.06,0.3 0.06,0.81 v 1.16 q 0,0.17 -0.01,0.34 -0.01,0.16 -0.01,0.21 0.37,-0.36 0.7,-0.51 0.33,-0.16 0.73,-0.16 0.45,0 0.8,0.18 0.36,0.17 0.61,0.5 0.25,0.33 0.38,0.8 0.14,0.47 0.14,1.05 z m -0.87,-0.05 q 0,-0.5 -0.07,-0.81 -0.06,-0.31 -0.22,-0.53 -0.14,-0.2 -0.4,-0.31 -0.25,-0.12 -0.54,-0.12 -0.37,0 -0.71,0.19 -0.34,0.18 -0.54,0.46 v 2.56 q 0.2,0.26 0.54,0.43 0.34,0.17 0.69,0.17 0.26,0 0.51,-0.12 0.25,-0.12 0.39,-0.32 0.14,-0.2 0.24,-0.58 0.11,-0.39 0.11,-1.02 z"
       id="text1"
       style="font-size:10px;font-family:'Meta Offc Pro';-inkscape-font-specification:'Meta Offc Pro';stroke-width:0.423;stroke-linecap:round"
       aria-label="Edurob" />
    <g
       id="text2"
       style="font-size:4px;font-family:'Meta Offc Pro';-inkscape-font-specification:'Meta Offc Pro';stroke-width:0.423;stroke-linecap:round"
       aria-label="Encoder resolution:&#10;Wheel radius:&#10;Gearing:&#10;Wheelbase (l1):&#10;Axle Track (l2):&#10;ROS-Domain:&#10;Firmware Version:&#10;">
      <path
         d="m 30.945062,143.14349 v -2.744 h 1.5 l -0.044,0.272 h -1.124 v 0.9 h 0.94 v 0.284 h -0.94 v 1.004 h 1.208 v 0.284 z m 3.228001,0 v -1.348 q 0,-0.08 -0.004,-0.132 -0.004,-0.052 -0.012,-0.088 -0.008,-0.036 -0.024,-0.06 -0.012,-0.028 -0.032,-0.052 -0.072,-0.084 -0.22,-0.084 -0.06,0 -0.136,0.024 -0.072,0.02 -0.148,0.06 -0.072,0.036 -0.144,0.088 -0.072,0.052 -0.124,0.108 v 1.484 h -0.304 v -1.536 q 0,-0.192 -0.032,-0.296 -0.032,-0.104 -0.044,-0.124 l 0.304,-0.084 q 0.012,0.02 0.04,0.112 0.032,0.092 0.032,0.2 0.308,-0.308 0.628,-0.308 0.164,0 0.296,0.08 0.132,0.08 0.192,0.212 0.048,0.108 0.048,0.232 v 1.512 z m 2.391999,-0.22 q -0.14,0.14 -0.28,0.204 -0.14,0.06 -0.328,0.06 -0.428,0 -0.636,-0.3 -0.1,-0.144 -0.148,-0.312 -0.044,-0.172 -0.044,-0.396 0,-0.328 0.084,-0.524 0.088,-0.196 0.216,-0.324 0.232,-0.232 0.54,-0.232 0.188,0 0.312,0.064 0.124,0.064 0.232,0.152 l -0.172,0.216 q -0.104,-0.088 -0.184,-0.124 -0.08,-0.036 -0.196,-0.036 -0.116,0 -0.22,0.06 -0.1,0.06 -0.156,0.164 -0.112,0.208 -0.112,0.652 0,0.34 0.124,0.516 0.128,0.176 0.368,0.176 0.248,0 0.428,-0.216 z m 2.076002,-0.744 q 0,0.248 -0.064,0.44 -0.064,0.188 -0.18,0.316 -0.112,0.128 -0.268,0.196 -0.156,0.064 -0.344,0.064 -0.412,0 -0.636,-0.284 -0.224,-0.284 -0.224,-0.776 0,-0.488 0.224,-0.764 0.228,-0.28 0.624,-0.28 0.252,0 0.416,0.1 0.164,0.1 0.268,0.248 0.092,0.136 0.136,0.316 0.048,0.18 0.048,0.424 z m -0.356,0.024 q 0,-0.412 -0.092,-0.6 -0.064,-0.132 -0.184,-0.192 -0.116,-0.064 -0.24,-0.064 -0.132,0 -0.244,0.06 -0.112,0.056 -0.164,0.156 -0.048,0.092 -0.072,0.216 -0.024,0.124 -0.024,0.304 0,0.212 0.032,0.388 0.036,0.172 0.092,0.264 0.056,0.092 0.164,0.148 0.112,0.052 0.24,0.052 0.156,0 0.268,-0.076 0.112,-0.08 0.164,-0.224 0.032,-0.092 0.044,-0.188 0.016,-0.096 0.016,-0.244 z m 2.239999,0.94 q -0.008,-0.016 -0.024,-0.076 -0.016,-0.06 -0.02,-0.128 -0.108,0.124 -0.232,0.18 -0.12,0.052 -0.296,0.052 -0.388,0 -0.6,-0.264 -0.212,-0.264 -0.212,-0.744 0,-0.64 0.412,-0.924 0.096,-0.068 0.184,-0.096 0.092,-0.028 0.2,-0.028 0.168,0 0.308,0.068 0.14,0.064 0.232,0.184 0,-0.024 -0.004,-0.116 0,-0.096 0,-0.192 v -0.836 l 0.312,0.052 v 2.224 q 0,0.26 0.012,0.408 0.016,0.148 0.048,0.236 z m -0.056,-1.564 q -0.076,-0.104 -0.192,-0.156 -0.112,-0.052 -0.292,-0.052 -0.244,0 -0.372,0.208 -0.072,0.116 -0.1,0.24 -0.028,0.124 -0.028,0.336 0,0.176 0.016,0.304 0.016,0.128 0.064,0.216 0.068,0.124 0.164,0.18 0.096,0.052 0.236,0.052 0.124,0 0.204,-0.028 0.084,-0.032 0.18,-0.1 0.048,-0.032 0.08,-0.076 0.032,-0.048 0.04,-0.068 z m 1.315997,0.62 v 0.048 q 0,0.14 0.02,0.248 0.02,0.108 0.072,0.188 0.084,0.128 0.212,0.188 0.132,0.056 0.284,0.056 0.284,0 0.488,-0.188 l 0.12,0.2 q -0.132,0.12 -0.308,0.184 -0.172,0.064 -0.364,0.064 -0.416,0 -0.652,-0.28 -0.232,-0.284 -0.232,-0.78 0,-0.252 0.056,-0.424 0.056,-0.176 0.184,-0.328 0.236,-0.276 0.596,-0.276 0.332,0 0.54,0.216 0.064,0.068 0.108,0.14 0.044,0.072 0.068,0.168 0.028,0.096 0.04,0.224 0.012,0.128 0.012,0.308 v 0.044 z m 0.912,-0.236 q -0.004,-0.164 -0.028,-0.268 -0.02,-0.104 -0.064,-0.176 -0.052,-0.08 -0.148,-0.128 -0.096,-0.048 -0.212,-0.048 -0.436,0 -0.46,0.62 z m 1.78,-0.512 q -0.04,-0.016 -0.088,-0.016 -0.188,0 -0.332,0.144 -0.068,0.068 -0.092,0.132 -0.024,0.06 -0.024,0.184 v 1.248 h -0.312 v -1.536 q 0,-0.196 -0.032,-0.3 -0.028,-0.104 -0.036,-0.124 l 0.312,-0.084 q 0.012,0.024 0.04,0.12 0.032,0.092 0.024,0.204 0.108,-0.152 0.256,-0.24 0.152,-0.092 0.304,-0.092 0.036,0 0.068,0.008 0.032,0.008 0.04,0.012 z m 2.215995,0 q -0.04,-0.016 -0.088,-0.016 -0.188,0 -0.332,0.144 -0.068,0.068 -0.092,0.132 -0.024,0.06 -0.024,0.184 v 1.248 h -0.312 v -1.536 q 0,-0.196 -0.032,-0.3 -0.028,-0.104 -0.036,-0.124 l 0.312,-0.084 q 0.012,0.024 0.04,0.12 0.032,0.092 0.024,0.204 0.108,-0.152 0.256,-0.24 0.152,-0.092 0.304,-0.092 0.036,0 0.068,0.008 0.032,0.008 0.04,0.012 z m 0.668001,0.748 v 0.048 q 0,0.14 0.02,0.248 0.02,0.108 0.072,0.188 0.084,0.128 0.212,0.188 0.132,0.056 0.284,0.056 0.284,0 0.488,-0.188 l 0.12,0.2 q -0.132,0.12 -0.308,0.184 -0.172,0.064 -0.364,0.064 -0.416,0 -0.652,-0.28 -0.232,-0.284 -0.232,-0.78 0,-0.252 0.056,-0.424 0.056,-0.176 0.184,-0.328 0.236,-0.276 0.596,-0.276 0.332,0 0.54,0.216 0.064,0.068 0.108,0.14 0.044,0.072 0.068,0.168 0.028,0.096 0.04,0.224 0.012,0.128 0.012,0.308 v 0.044 z m 0.912,-0.236 q -0.004,-0.164 -0.028,-0.268 -0.02,-0.104 -0.064,-0.176 -0.052,-0.08 -0.148,-0.128 -0.096,-0.048 -0.212,-0.048 -0.436,0 -0.46,0.62 z m 2.236003,0.588 q 0,0.144 -0.056,0.264 -0.052,0.12 -0.152,0.208 -0.1,0.084 -0.24,0.132 -0.136,0.048 -0.304,0.048 -0.192,0 -0.388,-0.056 -0.192,-0.052 -0.344,-0.144 l 0.12,-0.232 q 0.308,0.188 0.632,0.188 0.184,0 0.292,-0.092 0.112,-0.092 0.112,-0.252 0,-0.136 -0.08,-0.212 -0.076,-0.08 -0.248,-0.116 l -0.248,-0.052 q -0.248,-0.052 -0.376,-0.196 -0.128,-0.144 -0.128,-0.352 0,-0.136 0.052,-0.248 0.052,-0.112 0.144,-0.192 0.096,-0.08 0.224,-0.124 0.132,-0.048 0.288,-0.048 0.156,0 0.316,0.044 0.164,0.044 0.292,0.116 l -0.116,0.232 q -0.132,-0.064 -0.252,-0.104 -0.116,-0.04 -0.248,-0.04 -0.172,0 -0.276,0.092 -0.1,0.088 -0.1,0.236 0,0.116 0.064,0.188 0.064,0.068 0.224,0.1 l 0.264,0.056 q 0.532,0.112 0.532,0.556 z m 2.176004,-0.372 q 0,0.248 -0.064,0.44 -0.064,0.188 -0.18,0.316 -0.112,0.128 -0.268,0.196 -0.156,0.064 -0.344,0.064 -0.412,0 -0.636,-0.284 -0.224,-0.284 -0.224,-0.776 0,-0.488 0.224,-0.764 0.228,-0.28 0.624,-0.28 0.252,0 0.416,0.1 0.164,0.1 0.268,0.248 0.092,0.136 0.136,0.316 0.048,0.18 0.048,0.424 z m -0.356,0.024 q 0,-0.412 -0.092,-0.6 -0.064,-0.132 -0.184,-0.192 -0.116,-0.064 -0.24,-0.064 -0.132,0 -0.244,0.06 -0.112,0.056 -0.164,0.156 -0.048,0.092 -0.072,0.216 -0.024,0.124 -0.024,0.304 0,0.212 0.032,0.388 0.036,0.172 0.092,0.264 0.056,0.092 0.164,0.148 0.112,0.052 0.24,0.052 0.156,0 0.268,-0.076 0.112,-0.08 0.164,-0.224 0.032,-0.092 0.044,-0.188 0.016,-0.096 0.016,-0.244 z m 1.488003,0.936 q -0.06,0.028 -0.1,0.036 -0.036,0.008 -0.1,0.008 -0.148,0 -0.236,-0.084 -0.048,-0.044 -0.072,-0.108 -0.024,-0.068 -0.024,-0.176 v -2.112 q 0,-0.176 -0.02,-0.28 -0.02,-0.108 -0.028,-0.128 l 0.312,-0.06 q 0.008,0.024 0.028,0.148 0.024,0.12 0.024,0.324 v 2.036 q 0,0.116 0.02,0.16 0.024,0.04 0.092,0.04 0.008,0 0.04,-0.008 z m 1.947996,0.088 q -0.1,-0.08 -0.148,-0.148 -0.048,-0.072 -0.068,-0.172 -0.228,0.304 -0.632,0.304 -0.192,0 -0.328,-0.076 -0.132,-0.076 -0.196,-0.208 -0.028,-0.056 -0.04,-0.132 -0.012,-0.076 -0.012,-0.164 v -1.464 l 0.308,-0.06 v 1.432 q 0,0.14 0.024,0.216 0.028,0.072 0.096,0.12 0.048,0.032 0.112,0.052 0.064,0.016 0.132,0.016 0.148,0 0.288,-0.096 0.14,-0.1 0.22,-0.264 v -1.412 l 0.308,-0.052 v 1.452 q 0,0.188 0.028,0.284 0.032,0.092 0.108,0.16 z m 1.547997,-1.84 h -0.416 v 1.284 q 0,0.168 0.052,0.232 0.056,0.064 0.204,0.064 0.068,0 0.108,-0.008 0.044,-0.012 0.088,-0.032 l 0.044,0.2 q -0.152,0.08 -0.352,0.08 -0.08,0 -0.144,-0.016 -0.06,-0.012 -0.116,-0.04 -0.104,-0.052 -0.148,-0.148 -0.044,-0.096 -0.044,-0.248 v -1.368 h -0.26 v -0.236 h 0.26 q 0,-0.064 0.004,-0.14 0.004,-0.08 0.008,-0.152 0.008,-0.072 0.012,-0.128 0.004,-0.06 0.008,-0.084 l 0.328,-0.072 q -0.004,0.024 -0.012,0.084 -0.004,0.06 -0.012,0.14 -0.004,0.08 -0.012,0.172 -0.004,0.092 -0.004,0.18 h 0.5 z m 0.555999,1.756 v -1.984 l 0.324,-0.052 v 2.036 z m 0.412,-2.608 q 0,0.104 -0.072,0.176 -0.068,0.068 -0.172,0.068 -0.104,0 -0.176,-0.068 -0.068,-0.072 -0.068,-0.172 0,-0.104 0.068,-0.176 0.072,-0.072 0.176,-0.072 0.104,0 0.172,0.072 0.072,0.068 0.072,0.172 z m 2.247999,1.644 q 0,0.248 -0.064,0.44 -0.064,0.188 -0.18,0.316 -0.112,0.128 -0.268,0.196 -0.156,0.064 -0.344,0.064 -0.412,0 -0.636,-0.284 -0.224,-0.284 -0.224,-0.776 0,-0.488 0.224,-0.764 0.228,-0.28 0.624,-0.28 0.252,0 0.416,0.1 0.164,0.1 0.268,0.248 0.092,0.136 0.136,0.316 0.048,0.18 0.048,0.424 z m -0.356,0.024 q 0,-0.412 -0.092,-0.6 -0.064,-0.132 -0.184,-0.192 -0.116,-0.064 -0.24,-0.064 -0.132,0 -0.244,0.06 -0.112,0.056 -0.164,0.156 -0.048,0.092 -0.072,0.216 -0.024,0.124 -0.024,0.304 0,0.212 0.032,0.388 0.036,0.172 0.092,0.264 0.056,0.092 0.164,0.148 0.112,0.052 0.24,0.052 0.156,0 0.268,-0.076 0.112,-0.08 0.164,-0.224 0.032,-0.092 0.044,-0.188 0.016,-0.096 0.016,-0.244 z m 2.123999,0.94 v -1.348 q 0,-0.08 -0.004,-0.132 -0.004,-0.052 -0.012,-0.088 -0.008,-0.036 -0.024,-0.06 -0.012,-0.028 -0.032,-0.052 -0.072,-0.084 -0.22,-0.084 -0.06,0 -0.136,0.024 -0.072,0.02 -0.148,0.06 -0.072,0.036 -0.144,0.088 -0.072,0.052 -0.124,0.108 v 1.484 h -0.304 v -1.536 q 0,-0.192 -0.032,-0.296 -0.032,-0.104 -0.044,-0.124 l 0.304,-0.084 q 0.012,0.02 0.04,0.112 0.032,0.092 0.032,0.2 0.308,-0.308 0.628,-0.308 0.164,0 0.296,0.08 0.132,0.08 0.192,0.212 0.048,0.108 0.048,0.232 v 1.512 z m 1.571999,-0.224 q 0,0.116 -0.08,0.196 -0.076,0.076 -0.192,0.076 -0.112,0 -0.188,-0.076 -0.076,-0.08 -0.076,-0.192 0,-0.116 0.076,-0.192 0.08,-0.08 0.196,-0.08 0.108,0 0.184,0.08 0.08,0.076 0.08,0.188 z m 0,-1.264 q 0,0.116 -0.08,0.196 -0.076,0.076 -0.188,0.076 -0.112,0 -0.192,-0.076 -0.076,-0.076 -0.076,-0.188 0,-0.116 0.076,-0.196 0.08,-0.08 0.196,-0.08 0.108,0 0.184,0.08 0.08,0.076 0.08,0.188 z"
         id="path28" />
      <path
         d="m 33.125062,148.14349 h -0.428 l -0.34,-1.524 q -0.032,-0.152 -0.06,-0.284 -0.024,-0.136 -0.044,-0.236 -0.016,-0.104 -0.028,-0.168 -0.012,-0.068 -0.012,-0.084 -0.004,0.012 -0.016,0.08 -0.008,0.064 -0.028,0.168 -0.016,0.104 -0.044,0.236 -0.024,0.128 -0.052,0.264 l -0.336,1.548 h -0.424 l -0.648,-2.744 h 0.352 l 0.348,1.604 q 0.028,0.128 0.052,0.268 0.028,0.14 0.048,0.26 0.02,0.12 0.032,0.204 0.012,0.084 0.016,0.1 0,-0.008 0.016,-0.088 0.016,-0.084 0.036,-0.2 0.024,-0.116 0.052,-0.252 0.028,-0.136 0.052,-0.252 l 0.364,-1.644 h 0.372 l 0.38,1.704 q 0.032,0.152 0.056,0.28 0.028,0.128 0.044,0.228 0.02,0.096 0.028,0.156 0.008,0.044 0.012,0.06 0.004,-0.016 0.012,-0.076 0.016,-0.076 0.036,-0.192 0.02,-0.12 0.048,-0.268 0.032,-0.148 0.064,-0.3 l 0.34,-1.592 h 0.328 z m 2.308002,0 v -1.376 q 0,-0.112 -0.016,-0.18 -0.016,-0.072 -0.06,-0.116 -0.036,-0.036 -0.096,-0.056 -0.06,-0.024 -0.136,-0.024 -0.144,0 -0.3,0.088 -0.152,0.088 -0.28,0.248 v 1.416 h -0.312 v -2.456 q 0,-0.176 -0.024,-0.28 -0.02,-0.108 -0.028,-0.128 l 0.312,-0.06 q 0.008,0.024 0.028,0.148 0.024,0.12 0.024,0.324 v 0.464 q 0,0.084 -0.004,0.168 -0.004,0.084 -0.008,0.104 0.136,-0.128 0.304,-0.22 0.168,-0.096 0.36,-0.096 0.18,0 0.324,0.088 0.144,0.088 0.188,0.228 0.02,0.06 0.024,0.12 0.008,0.06 0.008,0.168 v 1.428 z m 1.307997,-0.944 v 0.048 q 0,0.14 0.02,0.248 0.02,0.108 0.072,0.188 0.084,0.128 0.212,0.188 0.132,0.056 0.284,0.056 0.284,0 0.488,-0.188 l 0.12,0.2 q -0.132,0.12 -0.308,0.184 -0.172,0.064 -0.364,0.064 -0.416,0 -0.652,-0.28 -0.232,-0.284 -0.232,-0.78 0,-0.252 0.056,-0.424 0.056,-0.176 0.184,-0.328 0.236,-0.276 0.596,-0.276 0.332,0 0.54,0.216 0.064,0.068 0.108,0.14 0.044,0.072 0.068,0.168 0.028,0.096 0.04,0.224 0.012,0.128 0.012,0.308 v 0.044 z m 0.912,-0.236 q -0.004,-0.164 -0.028,-0.268 -0.02,-0.104 -0.064,-0.176 -0.052,-0.08 -0.148,-0.128 -0.096,-0.048 -0.212,-0.048 -0.436,0 -0.46,0.62 z m 1.172,0.236 v 0.048 q 0,0.14 0.02,0.248 0.02,0.108 0.072,0.188 0.084,0.128 0.212,0.188 0.132,0.056 0.284,0.056 0.284,0 0.488,-0.188 l 0.12,0.2 q -0.132,0.12 -0.308,0.184 -0.172,0.064 -0.364,0.064 -0.416,0 -0.652,-0.28 -0.232,-0.284 -0.232,-0.78 0,-0.252 0.056,-0.424 0.056,-0.176 0.184,-0.328 0.236,-0.276 0.596,-0.276 0.332,0 0.54,0.216 0.064,0.068 0.108,0.14 0.044,0.072 0.068,0.168 0.028,0.096 0.04,0.224 0.012,0.128 0.012,0.308 v 0.044 z m 0.912,-0.236 q -0.004,-0.164 -0.028,-0.268 -0.02,-0.104 -0.064,-0.176 -0.052,-0.08 -0.148,-0.128 -0.096,-0.048 -0.212,-0.048 -0.436,0 -0.46,0.62 z m 1.464,1.176 q -0.06,0.028 -0.1,0.036 -0.036,0.008 -0.1,0.008 -0.148,0 -0.236,-0.084 -0.048,-0.044 -0.072,-0.108 -0.024,-0.068 -0.024,-0.176 v -2.112 q 0,-0.176 -0.02,-0.28 -0.02,-0.108 -0.028,-0.128 l 0.312,-0.06 q 0.008,0.024 0.028,0.148 0.024,0.12 0.024,0.324 v 2.036 q 0,0.116 0.02,0.16 0.024,0.04 0.092,0.04 0.008,0 0.04,-0.008 z m 2.271993,-1.688 q -0.04,-0.016 -0.088,-0.016 -0.188,0 -0.332,0.144 -0.068,0.068 -0.092,0.132 -0.024,0.06 -0.024,0.184 v 1.248 h -0.312 v -1.536 q 0,-0.196 -0.032,-0.3 -0.028,-0.104 -0.036,-0.124 l 0.312,-0.084 q 0.012,0.024 0.04,0.12 0.032,0.092 0.024,0.204 0.108,-0.152 0.256,-0.24 0.152,-0.092 0.304,-0.092 0.036,0 0.068,0.008 0.032,0.008 0.04,0.012 z m 1.755997,1.768 q -0.104,-0.032 -0.176,-0.108 -0.068,-0.08 -0.096,-0.184 -0.144,0.144 -0.276,0.208 -0.128,0.06 -0.3,0.06 -0.184,0 -0.308,-0.052 -0.124,-0.052 -0.2,-0.132 -0.072,-0.08 -0.104,-0.18 -0.028,-0.104 -0.028,-0.204 0,-0.34 0.276,-0.528 0.276,-0.188 0.78,-0.188 h 0.06 q 0.032,0 0.08,0.004 v -0.14 q 0,-0.132 -0.012,-0.196 -0.008,-0.068 -0.052,-0.116 -0.048,-0.056 -0.112,-0.08 -0.064,-0.028 -0.156,-0.028 -0.084,0 -0.176,0.02 -0.092,0.02 -0.18,0.056 -0.084,0.032 -0.16,0.076 -0.072,0.04 -0.12,0.084 l -0.156,-0.224 q 0.4,-0.268 0.836,-0.268 0.424,0 0.552,0.312 0.032,0.08 0.04,0.192 0.008,0.112 0.004,0.248 l -0.016,0.656 q -0.004,0.12 0,0.2 0.004,0.08 0.02,0.136 0.02,0.052 0.052,0.088 0.032,0.036 0.088,0.064 z m -0.3,-1.088 q -0.032,-0.004 -0.08,-0.004 -0.044,-0.004 -0.076,-0.004 -0.188,0 -0.32,0.032 -0.132,0.032 -0.212,0.092 -0.08,0.06 -0.116,0.152 -0.036,0.088 -0.036,0.2 0,0.364 0.344,0.364 0.152,0 0.284,-0.084 0.132,-0.088 0.2,-0.228 z m 2.331997,1.012 q -0.008,-0.016 -0.024,-0.076 -0.016,-0.06 -0.02,-0.128 -0.108,0.124 -0.232,0.18 -0.12,0.052 -0.296,0.052 -0.388,0 -0.6,-0.264 -0.212,-0.264 -0.212,-0.744 0,-0.64 0.412,-0.924 0.096,-0.068 0.184,-0.096 0.092,-0.028 0.2,-0.028 0.168,0 0.308,0.068 0.14,0.064 0.232,0.184 0,-0.024 -0.004,-0.116 0,-0.096 0,-0.192 v -0.836 l 0.312,0.052 v 2.224 q 0,0.26 0.012,0.408 0.016,0.148 0.048,0.236 z m -0.056,-1.564 q -0.076,-0.104 -0.192,-0.156 -0.112,-0.052 -0.292,-0.052 -0.244,0 -0.372,0.208 -0.072,0.116 -0.1,0.24 -0.028,0.124 -0.028,0.336 0,0.176 0.016,0.304 0.016,0.128 0.064,0.216 0.068,0.124 0.164,0.18 0.096,0.052 0.236,0.052 0.124,0 0.204,-0.028 0.084,-0.032 0.18,-0.1 0.048,-0.032 0.08,-0.076 0.032,-0.048 0.04,-0.068 z m 1.075997,1.564 v -1.984 l 0.324,-0.052 v 2.036 z m 0.412,-2.608 q 0,0.104 -0.072,0.176 -0.068,0.068 -0.172,0.068 -0.104,0 -0.176,-0.068 -0.068,-0.072 -0.068,-0.172 0,-0.104 0.068,-0.176 0.072,-0.072 0.176,-0.072 0.104,0 0.172,0.072 0.072,0.068 0.072,0.172 z m 2.075999,2.692 q -0.1,-0.08 -0.148,-0.148 -0.048,-0.072 -0.068,-0.172 -0.228,0.304 -0.632,0.304 -0.192,0 -0.328,-0.076 -0.132,-0.076 -0.196,-0.208 -0.028,-0.056 -0.04,-0.132 -0.012,-0.076 -0.012,-0.164 v -1.464 l 0.308,-0.06 v 1.432 q 0,0.14 0.024,0.216 0.028,0.072 0.096,0.12 0.048,0.032 0.112,0.052 0.064,0.016 0.132,0.016 0.148,0 0.288,-0.096 0.14,-0.1 0.22,-0.264 v -1.412 l 0.308,-0.052 v 1.452 q 0,0.188 0.028,0.284 0.032,0.092 0.108,0.16 z m 2.128001,-0.676 q 0,0.144 -0.056,0.264 -0.052,0.12 -0.152,0.208 -0.1,0.084 -0.24,0.132 -0.136,0.048 -0.304,0.048 -0.192,0 -0.388,-0.056 -0.192,-0.052 -0.344,-0.144 l 0.12,-0.232 q 0.308,0.188 0.632,0.188 0.184,0 0.292,-0.092 0.112,-0.092 0.112,-0.252 0,-0.136 -0.08,-0.212 -0.076,-0.08 -0.248,-0.116 l -0.248,-0.052 q -0.248,-0.052 -0.376,-0.196 -0.128,-0.144 -0.128,-0.352 0,-0.136 0.052,-0.248 0.052,-0.112 0.144,-0.192 0.096,-0.08 0.224,-0.124 0.132,-0.048 0.288,-0.048 0.156,0 0.316,0.044 0.164,0.044 0.292,0.116 l -0.116,0.232 q -0.132,-0.064 -0.252,-0.104 -0.116,-0.04 -0.248,-0.04 -0.172,0 -0.276,0.092 -0.1,0.088 -0.1,0.236 0,0.116 0.064,0.188 0.064,0.068 0.224,0.1 l 0.264,0.056 q 0.532,0.112 0.532,0.556 z m 1.096003,0.368 q 0,0.116 -0.08,0.196 -0.076,0.076 -0.192,0.076 -0.112,0 -0.188,-0.076 -0.076,-0.08 -0.076,-0.192 0,-0.116 0.076,-0.192 0.08,-0.08 0.196,-0.08 0.108,0 0.184,0.08 0.08,0.076 0.08,0.188 z m 0,-1.264 q 0,0.116 -0.08,0.196 -0.076,0.076 -0.188,0.076 -0.112,0 -0.192,-0.076 -0.076,-0.076 -0.076,-0.188 0,-0.116 0.076,-0.196 0.08,-0.08 0.196,-0.08 0.108,0 0.184,0.08 0.08,0.076 0.08,0.188 z"
         id="path29" />
      <path
         d="m 32.785062,152.97949 q -0.148,0.096 -0.356,0.152 -0.204,0.056 -0.416,0.056 -0.524,0 -0.844,-0.344 -0.176,-0.192 -0.26,-0.448 -0.08,-0.26 -0.08,-0.616 0,-0.396 0.104,-0.676 0.104,-0.284 0.32,-0.476 0.288,-0.26 0.716,-0.26 0.436,0 0.752,0.272 l -0.148,0.204 q -0.168,-0.116 -0.304,-0.164 -0.132,-0.048 -0.292,-0.048 -0.24,0 -0.42,0.112 -0.18,0.112 -0.264,0.352 -0.108,0.308 -0.108,0.696 0,0.272 0.048,0.484 0.052,0.212 0.144,0.348 0.048,0.068 0.12,0.124 0.072,0.052 0.16,0.092 0.088,0.036 0.188,0.056 0.1,0.02 0.196,0.02 0.26,0 0.436,-0.108 v -0.836 h -0.552 l -0.064,-0.272 h 0.924 z m 0.959997,-0.78 v 0.048 q 0,0.14 0.02,0.248 0.02,0.108 0.072,0.188 0.084,0.128 0.212,0.188 0.132,0.056 0.284,0.056 0.284,0 0.488,-0.188 l 0.12,0.2 q -0.132,0.12 -0.308,0.184 -0.172,0.064 -0.364,0.064 -0.416,0 -0.652,-0.28 -0.232,-0.284 -0.232,-0.78 0,-0.252 0.056,-0.424 0.056,-0.176 0.184,-0.328 0.236,-0.276 0.596,-0.276 0.332,0 0.54,0.216 0.064,0.068 0.108,0.14 0.044,0.072 0.068,0.168 0.028,0.096 0.04,0.224 0.012,0.128 0.012,0.308 v 0.044 z m 0.912,-0.236 q -0.004,-0.164 -0.028,-0.268 -0.02,-0.104 -0.064,-0.176 -0.052,-0.08 -0.148,-0.128 -0.096,-0.048 -0.212,-0.048 -0.436,0 -0.46,0.62 z m 2.239999,1.256 q -0.104,-0.032 -0.176,-0.108 -0.068,-0.08 -0.096,-0.184 -0.144,0.144 -0.276,0.208 -0.128,0.06 -0.3,0.06 -0.184,0 -0.308,-0.052 -0.124,-0.052 -0.2,-0.132 -0.072,-0.08 -0.104,-0.18 -0.028,-0.104 -0.028,-0.204 0,-0.34 0.276,-0.528 0.276,-0.188 0.78,-0.188 h 0.06 q 0.032,0 0.08,0.004 v -0.14 q 0,-0.132 -0.012,-0.196 -0.008,-0.068 -0.052,-0.116 -0.048,-0.056 -0.112,-0.08 -0.064,-0.028 -0.156,-0.028 -0.084,0 -0.176,0.02 -0.092,0.02 -0.18,0.056 -0.084,0.032 -0.16,0.076 -0.072,0.04 -0.12,0.084 l -0.156,-0.224 q 0.4,-0.268 0.836,-0.268 0.424,0 0.552,0.312 0.032,0.08 0.04,0.192 0.008,0.112 0.004,0.248 l -0.016,0.656 q -0.004,0.12 0,0.2 0.004,0.08 0.02,0.136 0.02,0.052 0.052,0.088 0.032,0.036 0.088,0.064 z m -0.3,-1.088 q -0.032,-0.004 -0.08,-0.004 -0.044,-0.004 -0.076,-0.004 -0.188,0 -0.32,0.032 -0.132,0.032 -0.212,0.092 -0.08,0.06 -0.116,0.152 -0.036,0.088 -0.036,0.2 0,0.364 0.344,0.364 0.152,0 0.284,-0.084 0.132,-0.088 0.2,-0.228 z m 1.915997,-0.68 q -0.04,-0.016 -0.088,-0.016 -0.188,0 -0.332,0.144 -0.068,0.068 -0.092,0.132 -0.024,0.06 -0.024,0.184 v 1.248 h -0.312 v -1.536 q 0,-0.196 -0.032,-0.3 -0.028,-0.104 -0.036,-0.124 l 0.312,-0.084 q 0.012,0.024 0.04,0.12 0.032,0.092 0.024,0.204 0.108,-0.152 0.256,-0.24 0.152,-0.092 0.304,-0.092 0.036,0 0.068,0.008 0.032,0.008 0.04,0.012 z m 0.447998,1.692 v -1.984 l 0.324,-0.052 v 2.036 z m 0.412,-2.608 q 0,0.104 -0.072,0.176 -0.068,0.068 -0.172,0.068 -0.104,0 -0.176,-0.068 -0.068,-0.072 -0.068,-0.172 0,-0.104 0.068,-0.176 0.072,-0.072 0.176,-0.072 0.104,0 0.172,0.072 0.072,0.068 0.072,0.172 z m 1.819999,2.608 v -1.348 q 0,-0.08 -0.004,-0.132 -0.004,-0.052 -0.012,-0.088 -0.008,-0.036 -0.024,-0.06 -0.012,-0.028 -0.032,-0.052 -0.072,-0.084 -0.22,-0.084 -0.06,0 -0.136,0.024 -0.072,0.02 -0.148,0.06 -0.072,0.036 -0.144,0.088 -0.072,0.052 -0.124,0.108 v 1.484 h -0.304 v -1.536 q 0,-0.192 -0.032,-0.296 -0.032,-0.104 -0.044,-0.124 l 0.304,-0.084 q 0.012,0.02 0.04,0.112 0.032,0.092 0.032,0.2 0.308,-0.308 0.628,-0.308 0.164,0 0.296,0.08 0.132,0.08 0.192,0.212 0.048,0.108 0.048,0.232 v 1.512 z m 2.751999,-1.816 q -0.092,0.068 -0.168,0.096 -0.076,0.024 -0.168,0.024 -0.084,0 -0.136,-0.024 0.12,0.152 0.12,0.34 0,0.168 -0.08,0.316 -0.076,0.144 -0.216,0.232 -0.076,0.048 -0.172,0.068 -0.092,0.02 -0.2,0.02 -0.204,0.072 -0.284,0.128 -0.076,0.052 -0.076,0.104 0,0.096 0.16,0.096 h 0.32 q 0.176,0 0.28,0.024 0.108,0.024 0.2,0.088 0.116,0.08 0.168,0.188 0.052,0.104 0.052,0.232 0,0.324 -0.216,0.476 -0.212,0.152 -0.576,0.152 -0.236,0 -0.4,-0.04 -0.164,-0.04 -0.268,-0.108 -0.1,-0.068 -0.148,-0.16 -0.048,-0.092 -0.048,-0.2 0,-0.056 0.008,-0.104 0.012,-0.048 0.032,-0.108 l 0.328,-0.028 q -0.02,0.032 -0.04,0.08 -0.016,0.052 -0.016,0.1 0,0.16 0.116,0.232 0.072,0.044 0.176,0.068 0.108,0.024 0.228,0.024 0.232,0 0.356,-0.08 0.128,-0.08 0.128,-0.268 0,-0.168 -0.108,-0.24 -0.056,-0.04 -0.152,-0.056 -0.092,-0.016 -0.24,-0.016 h -0.076 q -0.04,0 -0.084,0.004 -0.044,0 -0.084,0 h -0.064 q -0.18,0 -0.28,-0.076 -0.096,-0.076 -0.096,-0.212 0,-0.12 0.076,-0.196 0.08,-0.08 0.284,-0.144 -0.204,-0.064 -0.328,-0.22 -0.12,-0.156 -0.12,-0.356 0,-0.148 0.052,-0.272 0.056,-0.124 0.152,-0.212 0.096,-0.092 0.232,-0.14 0.136,-0.048 0.3,-0.048 0.112,0 0.188,0.02 0.076,0.016 0.136,0.036 0.064,0.02 0.128,0.04 0.064,0.016 0.156,0.016 0.08,0 0.14,-0.02 0.064,-0.02 0.136,-0.068 z m -0.716,0.44 q 0,-0.204 -0.084,-0.3 -0.084,-0.1 -0.284,-0.1 -0.376,0 -0.376,0.412 0,0.192 0.096,0.296 0.096,0.1 0.288,0.1 0.36,0 0.36,-0.408 z m 1.592,1.152 q 0,0.116 -0.08,0.196 -0.076,0.076 -0.192,0.076 -0.112,0 -0.188,-0.076 -0.076,-0.08 -0.076,-0.192 0,-0.116 0.076,-0.192 0.08,-0.08 0.196,-0.08 0.108,0 0.184,0.08 0.08,0.076 0.08,0.188 z m 0,-1.264 q 0,0.116 -0.08,0.196 -0.076,0.076 -0.188,0.076 -0.112,0 -0.192,-0.076 -0.076,-0.076 -0.076,-0.188 0,-0.116 0.076,-0.196 0.08,-0.08 0.196,-0.08 0.108,0 0.184,0.08 0.08,0.076 0.08,0.188 z"
         id="path30" />
      <path
         d="m 33.125062,158.14349 h -0.428 l -0.34,-1.524 q -0.032,-0.152 -0.06,-0.284 -0.024,-0.136 -0.044,-0.236 -0.016,-0.104 -0.028,-0.168 -0.012,-0.068 -0.012,-0.084 -0.004,0.012 -0.016,0.08 -0.008,0.064 -0.028,0.168 -0.016,0.104 -0.044,0.236 -0.024,0.128 -0.052,0.264 l -0.336,1.548 h -0.424 l -0.648,-2.744 h 0.352 l 0.348,1.604 q 0.028,0.128 0.052,0.268 0.028,0.14 0.048,0.26 0.02,0.12 0.032,0.204 0.012,0.084 0.016,0.1 0,-0.008 0.016,-0.088 0.016,-0.084 0.036,-0.2 0.024,-0.116 0.052,-0.252 0.028,-0.136 0.052,-0.252 l 0.364,-1.644 h 0.372 l 0.38,1.704 q 0.032,0.152 0.056,0.28 0.028,0.128 0.044,0.228 0.02,0.096 0.028,0.156 0.008,0.044 0.012,0.06 0.004,-0.016 0.012,-0.076 0.016,-0.076 0.036,-0.192 0.02,-0.12 0.048,-0.268 0.032,-0.148 0.064,-0.3 l 0.34,-1.592 h 0.328 z m 2.308002,0 v -1.376 q 0,-0.112 -0.016,-0.18 -0.016,-0.072 -0.06,-0.116 -0.036,-0.036 -0.096,-0.056 -0.06,-0.024 -0.136,-0.024 -0.144,0 -0.3,0.088 -0.152,0.088 -0.28,0.248 v 1.416 h -0.312 v -2.456 q 0,-0.176 -0.024,-0.28 -0.02,-0.108 -0.028,-0.128 l 0.312,-0.06 q 0.008,0.024 0.028,0.148 0.024,0.12 0.024,0.324 v 0.464 q 0,0.084 -0.004,0.168 -0.004,0.084 -0.008,0.104 0.136,-0.128 0.304,-0.22 0.168,-0.096 0.36,-0.096 0.18,0 0.324,0.088 0.144,0.088 0.188,0.228 0.02,0.06 0.024,0.12 0.008,0.06 0.008,0.168 v 1.428 z m 1.307997,-0.944 v 0.048 q 0,0.14 0.02,0.248 0.02,0.108 0.072,0.188 0.084,0.128 0.212,0.188 0.132,0.056 0.284,0.056 0.284,0 0.488,-0.188 l 0.12,0.2 q -0.132,0.12 -0.308,0.184 -0.172,0.064 -0.364,0.064 -0.416,0 -0.652,-0.28 -0.232,-0.284 -0.232,-0.78 0,-0.252 0.056,-0.424 0.056,-0.176 0.184,-0.328 0.236,-0.276 0.596,-0.276 0.332,0 0.54,0.216 0.064,0.068 0.108,0.14 0.044,0.072 0.068,0.168 0.028,0.096 0.04,0.224 0.012,0.128 0.012,0.308 v 0.044 z m 0.912,-0.236 q -0.004,-0.164 -0.028,-0.268 -0.02,-0.104 -0.064,-0.176 -0.052,-0.08 -0.148,-0.128 -0.096,-0.048 -0.212,-0.048 -0.436,0 -0.46,0.62 z m 1.172,0.236 v 0.048 q 0,0.14 0.02,0.248 0.02,0.108 0.072,0.188 0.084,0.128 0.212,0.188 0.132,0.056 0.284,0.056 0.284,0 0.488,-0.188 l 0.12,0.2 q -0.132,0.12 -0.308,0.184 -0.172,0.064 -0.364,0.064 -0.416,0 -0.652,-0.28 -0.232,-0.284 -0.232,-0.78 0,-0.252 0.056,-0.424 0.056,-0.176 0.184,-0.328 0.236,-0.276 0.596,-0.276 0.332,0 0.54,0.216 0.064,0.068 0.108,0.14 0.044,0.072 0.068,0.168 0.028,0.096 0.04,0.224 0.012,0.128 0.012,0.308 v 0.044 z m 0.912,-0.236 q -0.004,-0.164 -0.028,-0.268 -0.02,-0.104 -0.064,-0.176 -0.052,-0.08 -0.148,-0.128 -0.096,-0.048 -0.212,-0.048 -0.436,0 -0.46,0.62 z m 1.464,1.176 q -0.06,0.028 -0.1,0.036 -0.036,0.008 -0.1,0.008 -0.148,0 -0.236,-0.084 -0.048,-0.044 -0.072,-0.108 -0.024,-0.068 -0.024,-0.176 v -2.112 q 0,-0.176 -0.02,-0.28 -0.02,-0.108 -0.028,-0.128 l 0.312,-0.06 q 0.008,0.024 0.028,0.148 0.024,0.12 0.024,0.324 v 2.036 q 0,0.116 0.02,0.16 0.024,0.04 0.092,0.04 0.008,0 0.04,-0.008 z m 2.151995,-1.02 q 0,0.24 -0.056,0.44 -0.056,0.196 -0.16,0.336 -0.104,0.14 -0.252,0.22 -0.144,0.076 -0.324,0.076 -0.156,0 -0.312,-0.076 -0.152,-0.076 -0.236,-0.188 -0.008,0.064 -0.016,0.112 -0.008,0.044 -0.04,0.104 h -0.312 q 0.032,-0.072 0.044,-0.18 0.016,-0.112 0.016,-0.316 v -1.96 q 0,-0.176 -0.024,-0.28 -0.02,-0.108 -0.028,-0.128 l 0.312,-0.06 q 0.008,0.024 0.028,0.148 0.024,0.12 0.024,0.324 v 0.464 q 0,0.068 -0.004,0.136 -0.004,0.064 -0.004,0.084 0.148,-0.144 0.28,-0.204 0.132,-0.064 0.292,-0.064 0.18,0 0.32,0.072 0.144,0.068 0.244,0.2 0.1,0.132 0.152,0.32 0.056,0.188 0.056,0.42 z m -0.348,-0.02 q 0,-0.2 -0.028,-0.324 -0.024,-0.124 -0.088,-0.212 -0.056,-0.08 -0.16,-0.124 -0.1,-0.048 -0.216,-0.048 -0.148,0 -0.284,0.076 -0.136,0.072 -0.216,0.184 v 1.024 q 0.08,0.104 0.216,0.172 0.136,0.068 0.276,0.068 0.104,0 0.204,-0.048 0.1,-0.048 0.156,-0.128 0.056,-0.08 0.096,-0.232 0.044,-0.156 0.044,-0.408 z m 2.316005,1.12 q -0.104,-0.032 -0.176,-0.108 -0.068,-0.08 -0.096,-0.184 -0.144,0.144 -0.276,0.208 -0.128,0.06 -0.3,0.06 -0.184,0 -0.308,-0.052 -0.124,-0.052 -0.2,-0.132 -0.072,-0.08 -0.104,-0.18 -0.028,-0.104 -0.028,-0.204 0,-0.34 0.276,-0.528 0.276,-0.188 0.78,-0.188 h 0.06 q 0.032,0 0.08,0.004 v -0.14 q 0,-0.132 -0.012,-0.196 -0.008,-0.068 -0.052,-0.116 -0.048,-0.056 -0.112,-0.08 -0.064,-0.028 -0.156,-0.028 -0.084,0 -0.176,0.02 -0.092,0.02 -0.18,0.056 -0.084,0.032 -0.16,0.076 -0.072,0.04 -0.12,0.084 l -0.156,-0.224 q 0.4,-0.268 0.836,-0.268 0.424,0 0.552,0.312 0.032,0.08 0.04,0.192 0.008,0.112 0.004,0.248 l -0.016,0.656 q -0.004,0.12 0,0.2 0.004,0.08 0.02,0.136 0.02,0.052 0.052,0.088 0.032,0.036 0.088,0.064 z m -0.3,-1.088 q -0.032,-0.004 -0.08,-0.004 -0.044,-0.004 -0.076,-0.004 -0.188,0 -0.32,0.032 -0.132,0.032 -0.212,0.092 -0.08,0.06 -0.116,0.152 -0.036,0.088 -0.036,0.2 0,0.364 0.344,0.364 0.152,0 0.284,-0.084 0.132,-0.088 0.2,-0.228 z m 2.351997,0.42 q 0,0.144 -0.056,0.264 -0.052,0.12 -0.152,0.208 -0.1,0.084 -0.24,0.132 -0.136,0.048 -0.304,0.048 -0.192,0 -0.388,-0.056 -0.192,-0.052 -0.344,-0.144 l 0.12,-0.232 q 0.308,0.188 0.632,0.188 0.184,0 0.292,-0.092 0.112,-0.092 0.112,-0.252 0,-0.136 -0.08,-0.212 -0.076,-0.08 -0.248,-0.116 l -0.248,-0.052 q -0.248,-0.052 -0.376,-0.196 -0.128,-0.144 -0.128,-0.352 0,-0.136 0.052,-0.248 0.052,-0.112 0.144,-0.192 0.096,-0.08 0.224,-0.124 0.132,-0.048 0.288,-0.048 0.156,0 0.316,0.044 0.164,0.044 0.292,0.116 l -0.116,0.232 q -0.132,-0.064 -0.252,-0.104 -0.116,-0.04 -0.248,-0.04 -0.172,0 -0.276,0.092 -0.1,0.088 -0.1,0.236 0,0.116 0.064,0.188 0.064,0.068 0.224,0.1 l 0.264,0.056 q 0.532,0.112 0.532,0.556 z m 0.840003,-0.352 v 0.048 q 0,0.14 0.02,0.248 0.02,0.108 0.072,0.188 0.084,0.128 0.212,0.188 0.132,0.056 0.284,0.056 0.284,0 0.488,-0.188 l 0.12,0.2 q -0.132,0.12 -0.308,0.184 -0.172,0.064 -0.364,0.064 -0.416,0 -0.652,-0.28 -0.232,-0.284 -0.232,-0.78 0,-0.252 0.056,-0.424 0.056,-0.176 0.184,-0.328 0.236,-0.276 0.596,-0.276 0.332,0 0.54,0.216 0.064,0.068 0.108,0.14 0.044,0.072 0.068,0.168 0.028,0.096 0.04,0.224 0.012,0.128 0.012,0.308 v 0.044 z m 0.912,-0.236 q -0.004,-0.164 -0.028,-0.268 -0.02,-0.104 -0.064,-0.176 -0.052,-0.08 -0.148,-0.128 -0.096,-0.048 -0.212,-0.048 -0.436,0 -0.46,0.62 z m 2.783998,1.8 q -0.252,-0.096 -0.456,-0.312 -0.2,-0.216 -0.316,-0.512 -0.044,-0.116 -0.076,-0.256 -0.032,-0.14 -0.052,-0.284 -0.016,-0.144 -0.024,-0.28 -0.008,-0.14 -0.008,-0.26 0,-0.26 0.024,-0.464 0.028,-0.208 0.076,-0.372 0.052,-0.168 0.12,-0.3 0.072,-0.132 0.16,-0.24 0.112,-0.14 0.256,-0.252 0.148,-0.112 0.296,-0.168 l 0.076,0.152 q -0.204,0.12 -0.356,0.284 -0.152,0.164 -0.228,0.432 -0.052,0.184 -0.08,0.42 -0.024,0.236 -0.024,0.5 0,0.388 0.048,0.724 0.052,0.332 0.192,0.58 0.084,0.148 0.192,0.252 0.108,0.108 0.268,0.196 z m 0.900003,-0.624 q -0.06,0.028 -0.1,0.036 -0.036,0.008 -0.1,0.008 -0.148,0 -0.236,-0.084 -0.048,-0.044 -0.072,-0.108 -0.024,-0.068 -0.024,-0.176 v -2.112 q 0,-0.176 -0.02,-0.28 -0.02,-0.108 -0.028,-0.128 l 0.312,-0.06 q 0.008,0.024 0.028,0.148 0.024,0.12 0.024,0.324 v 2.036 q 0,0.116 0.02,0.16 0.024,0.04 0.092,0.04 0.008,0 0.04,-0.008 z m 0.759997,0.004 v -0.252 h 0.456 v -1.984 q -0.012,0.008 -0.044,0.032 -0.032,0.02 -0.076,0.048 -0.04,0.028 -0.088,0.056 -0.044,0.028 -0.088,0.048 -0.04,0.02 -0.092,0.044 -0.052,0.024 -0.1,0.044 -0.048,0.02 -0.088,0.04 -0.04,0.016 -0.056,0.024 l -0.068,-0.172 0.768,-0.54 h 0.248 v 2.36 h 0.404 v 0.252 z m 2.603998,-1.184 q 0,0.26 -0.028,0.468 -0.024,0.204 -0.076,0.372 -0.048,0.164 -0.12,0.296 -0.068,0.132 -0.156,0.24 -0.112,0.14 -0.26,0.252 -0.144,0.112 -0.292,0.168 l -0.076,-0.152 q 0.204,-0.12 0.356,-0.284 0.152,-0.164 0.228,-0.432 0.052,-0.184 0.076,-0.42 0.028,-0.236 0.028,-0.5 0,-0.388 -0.052,-0.72 -0.048,-0.336 -0.188,-0.584 -0.084,-0.148 -0.192,-0.252 -0.108,-0.108 -0.268,-0.196 l 0.088,-0.16 q 0.252,0.096 0.452,0.312 0.204,0.216 0.32,0.512 0.044,0.116 0.076,0.256 0.032,0.14 0.048,0.284 0.02,0.144 0.028,0.284 0.008,0.136 0.008,0.256 z m 1.256004,0.96 q 0,0.116 -0.08,0.196 -0.076,0.076 -0.192,0.076 -0.112,0 -0.188,-0.076 -0.076,-0.08 -0.076,-0.192 0,-0.116 0.076,-0.192 0.08,-0.08 0.196,-0.08 0.108,0 0.184,0.08 0.08,0.076 0.08,0.188 z m 0,-1.264 q 0,0.116 -0.08,0.196 -0.076,0.076 -0.188,0.076 -0.112,0 -0.192,-0.076 -0.076,-0.076 -0.076,-0.188 0,-0.116 0.076,-0.196 0.08,-0.08 0.196,-0.08 0.108,0 0.184,0.08 0.08,0.076 0.08,0.188 z"
         id="path31" />
      <path
         d="m 32.485062,163.14349 -0.26,-0.844 h -1.024 l -0.264,0.844 h -0.332 l 0.916,-2.744 h 0.428 l 0.908,2.744 z m -0.764,-2.456 -0.432,1.344 h 0.852 z m 2.644,2.456 -0.54,-0.848 -0.54,0.848 h -0.368 l 0.744,-1.104 -0.616,-0.888 h 0.384 l 0.396,0.664 0.384,-0.664 h 0.364 l -0.592,0.888 0.764,1.104 z m 1.292008,-0.004 q -0.06,0.028 -0.1,0.036 -0.036,0.008 -0.1,0.008 -0.148,0 -0.236,-0.084 -0.048,-0.044 -0.072,-0.108 -0.024,-0.068 -0.024,-0.176 v -2.112 q 0,-0.176 -0.02,-0.28 -0.02,-0.108 -0.028,-0.128 l 0.312,-0.06 q 0.008,0.024 0.028,0.148 0.024,0.12 0.024,0.324 v 2.036 q 0,0.116 0.02,0.16 0.024,0.04 0.092,0.04 0.008,0 0.04,-0.008 z m 0.783996,-0.94 v 0.048 q 0,0.14 0.02,0.248 0.02,0.108 0.072,0.188 0.084,0.128 0.212,0.188 0.132,0.056 0.284,0.056 0.284,0 0.488,-0.188 l 0.12,0.2 q -0.132,0.12 -0.308,0.184 -0.172,0.064 -0.364,0.064 -0.416,0 -0.652,-0.28 -0.232,-0.284 -0.232,-0.78 0,-0.252 0.056,-0.424 0.056,-0.176 0.184,-0.328 0.236,-0.276 0.596,-0.276 0.332,0 0.54,0.216 0.064,0.068 0.108,0.14 0.044,0.072 0.068,0.168 0.028,0.096 0.04,0.224 0.012,0.128 0.012,0.308 v 0.044 z m 0.912,-0.236 q -0.004,-0.164 -0.028,-0.268 -0.02,-0.104 -0.064,-0.176 -0.052,-0.08 -0.148,-0.128 -0.096,-0.048 -0.212,-0.048 -0.436,0 -0.46,0.62 z m 3.287996,-1.288 h -0.744 v 2.468 h -0.316 v -2.468 h -0.736 v -0.276 h 1.816 z m 1.068,0.776 q -0.04,-0.016 -0.088,-0.016 -0.188,0 -0.332,0.144 -0.068,0.068 -0.092,0.132 -0.024,0.06 -0.024,0.184 v 1.248 h -0.312 v -1.536 q 0,-0.196 -0.032,-0.3 -0.028,-0.104 -0.036,-0.124 l 0.312,-0.084 q 0.012,0.024 0.04,0.12 0.032,0.092 0.024,0.204 0.108,-0.152 0.256,-0.24 0.152,-0.092 0.304,-0.092 0.036,0 0.068,0.008 0.032,0.008 0.04,0.012 z m 1.755997,1.768 q -0.104,-0.032 -0.176,-0.108 -0.068,-0.08 -0.096,-0.184 -0.144,0.144 -0.276,0.208 -0.128,0.06 -0.3,0.06 -0.184,0 -0.308,-0.052 -0.124,-0.052 -0.2,-0.132 -0.072,-0.08 -0.104,-0.18 -0.028,-0.104 -0.028,-0.204 0,-0.34 0.276,-0.528 0.276,-0.188 0.78,-0.188 h 0.06 q 0.032,0 0.08,0.004 v -0.14 q 0,-0.132 -0.012,-0.196 -0.008,-0.068 -0.052,-0.116 -0.048,-0.056 -0.112,-0.08 -0.064,-0.028 -0.156,-0.028 -0.084,0 -0.176,0.02 -0.092,0.02 -0.18,0.056 -0.084,0.032 -0.16,0.076 -0.072,0.04 -0.12,0.084 l -0.156,-0.224 q 0.4,-0.268 0.836,-0.268 0.424,0 0.552,0.312 0.032,0.08 0.04,0.192 0.008,0.112 0.004,0.248 l -0.016,0.656 q -0.004,0.12 0,0.2 0.004,0.08 0.02,0.136 0.02,0.052 0.052,0.088 0.032,0.036 0.088,0.064 z m -0.3,-1.088 q -0.032,-0.004 -0.08,-0.004 -0.044,-0.004 -0.076,-0.004 -0.188,0 -0.32,0.032 -0.132,0.032 -0.212,0.092 -0.08,0.06 -0.116,0.152 -0.036,0.088 -0.036,0.2 0,0.364 0.344,0.364 0.152,0 0.284,-0.084 0.132,-0.088 0.2,-0.228 z m 2.383997,0.792 q -0.14,0.14 -0.28,0.204 -0.14,0.06 -0.328,0.06 -0.428,0 -0.636,-0.3 -0.1,-0.144 -0.148,-0.312 -0.044,-0.172 -0.044,-0.396 0,-0.328 0.084,-0.524 0.088,-0.196 0.216,-0.324 0.232,-0.232 0.54,-0.232 0.188,0 0.312,0.064 0.124,0.064 0.232,0.152 l -0.172,0.216 q -0.104,-0.088 -0.184,-0.124 -0.08,-0.036 -0.196,-0.036 -0.116,0 -0.22,0.06 -0.1,0.06 -0.156,0.164 -0.112,0.208 -0.112,0.652 0,0.34 0.124,0.516 0.128,0.176 0.368,0.176 0.248,0 0.428,-0.216 z m 0.540003,0.22 v -2.456 q 0,-0.176 -0.024,-0.28 -0.02,-0.108 -0.028,-0.128 l 0.312,-0.06 q 0.008,0.024 0.028,0.148 0.024,0.12 0.024,0.324 v 2.452 z m 1.24,0 -0.916,-1.128 0.76,-0.864 h 0.392 l -0.784,0.864 0.964,1.128 z m 2.547995,0.62 q -0.252,-0.096 -0.456,-0.312 -0.2,-0.216 -0.316,-0.512 -0.044,-0.116 -0.076,-0.256 -0.032,-0.14 -0.052,-0.284 -0.016,-0.144 -0.024,-0.28 -0.008,-0.14 -0.008,-0.26 0,-0.26 0.024,-0.464 0.028,-0.208 0.076,-0.372 0.052,-0.168 0.12,-0.3 0.072,-0.132 0.16,-0.24 0.112,-0.14 0.256,-0.252 0.148,-0.112 0.296,-0.168 l 0.076,0.152 q -0.204,0.12 -0.356,0.284 -0.152,0.164 -0.228,0.432 -0.052,0.184 -0.08,0.42 -0.024,0.236 -0.024,0.5 0,0.388 0.048,0.724 0.052,0.332 0.192,0.58 0.084,0.148 0.192,0.252 0.108,0.108 0.268,0.196 z m 0.900003,-0.624 q -0.06,0.028 -0.1,0.036 -0.036,0.008 -0.1,0.008 -0.148,0 -0.236,-0.084 -0.048,-0.044 -0.072,-0.108 -0.024,-0.068 -0.024,-0.176 v -2.112 q 0,-0.176 -0.02,-0.28 -0.02,-0.108 -0.028,-0.128 l 0.312,-0.06 q 0.008,0.024 0.028,0.148 0.024,0.12 0.024,0.324 v 2.036 q 0,0.116 0.02,0.16 0.024,0.04 0.092,0.04 0.008,0 0.04,-0.008 z m 2.035996,0.004 h -1.528 v -0.18 q 0.116,-0.08 0.26,-0.216 0.148,-0.14 0.34,-0.356 0.164,-0.184 0.28,-0.34 0.12,-0.156 0.192,-0.288 0.076,-0.136 0.112,-0.256 0.036,-0.12 0.036,-0.232 0,-0.224 -0.136,-0.368 -0.136,-0.148 -0.348,-0.148 -0.088,0 -0.168,0.024 -0.076,0.02 -0.148,0.056 -0.072,0.032 -0.144,0.08 -0.072,0.044 -0.152,0.092 l -0.136,-0.152 q 0.224,-0.192 0.432,-0.284 0.208,-0.092 0.424,-0.092 0.156,0 0.292,0.06 0.136,0.056 0.236,0.156 0.1,0.096 0.156,0.232 0.06,0.136 0.06,0.292 0,0.172 -0.068,0.356 -0.068,0.184 -0.188,0.352 -0.14,0.188 -0.352,0.416 -0.1,0.104 -0.192,0.2 -0.092,0.096 -0.172,0.172 -0.076,0.076 -0.132,0.124 -0.056,0.048 -0.08,0.06 0.032,-0.004 0.136,-0.008 0.104,-0.008 0.204,-0.008 h 0.848 z m 1.327999,-1.184 q 0,0.26 -0.028,0.468 -0.024,0.204 -0.076,0.372 -0.048,0.164 -0.12,0.296 -0.068,0.132 -0.156,0.24 -0.112,0.14 -0.26,0.252 -0.144,0.112 -0.292,0.168 l -0.076,-0.152 q 0.204,-0.12 0.356,-0.284 0.152,-0.164 0.228,-0.432 0.052,-0.184 0.076,-0.42 0.028,-0.236 0.028,-0.5 0,-0.388 -0.052,-0.72 -0.048,-0.336 -0.188,-0.584 -0.084,-0.148 -0.192,-0.252 -0.108,-0.108 -0.268,-0.196 l 0.088,-0.16 q 0.252,0.096 0.452,0.312 0.204,0.216 0.32,0.512 0.044,0.116 0.076,0.256 0.032,0.14 0.048,0.284 0.02,0.144 0.028,0.284 0.008,0.136 0.008,0.256 z m 1.256003,0.96 q 0,0.116 -0.08,0.196 -0.076,0.076 -0.192,0.076 -0.112,0 -0.188,-0.076 -0.076,-0.08 -0.076,-0.192 0,-0.116 0.076,-0.192 0.08,-0.08 0.196,-0.08 0.108,0 0.184,0.08 0.08,0.076 0.08,0.188 z m 0,-1.264 q 0,0.116 -0.08,0.196 -0.076,0.076 -0.188,0.076 -0.112,0 -0.192,-0.076 -0.076,-0.076 -0.076,-0.188 0,-0.116 0.076,-0.196 0.08,-0.08 0.196,-0.08 0.108,0 0.184,0.08 0.08,0.076 0.08,0.188 z"
         id="path32" />
      <path
         d="m 32.277062,168.14349 q -0.032,-0.068 -0.092,-0.176 -0.06,-0.112 -0.152,-0.248 -0.088,-0.14 -0.204,-0.3 -0.116,-0.164 -0.252,-0.34 -0.08,-0.1 -0.144,-0.136 -0.06,-0.036 -0.16,-0.04 v 1.24 h -0.328 v -2.744 h 0.64 q 0.14,0 0.248,0.012 0.108,0.012 0.188,0.036 0.084,0.024 0.144,0.056 0.064,0.032 0.112,0.072 0.048,0.036 0.096,0.092 0.048,0.052 0.084,0.124 0.04,0.072 0.064,0.164 0.028,0.088 0.028,0.196 0,0.168 -0.052,0.308 -0.052,0.14 -0.148,0.24 -0.096,0.096 -0.232,0.152 -0.132,0.052 -0.296,0.052 h -0.04 q 0.068,0.056 0.144,0.144 0.076,0.088 0.132,0.164 0.04,0.052 0.128,0.184 0.088,0.128 0.188,0.276 0.1,0.148 0.188,0.28 l 0.128,0.192 z m -0.072,-1.996 q 0,-0.136 -0.076,-0.252 -0.076,-0.116 -0.192,-0.164 -0.068,-0.028 -0.152,-0.04 -0.08,-0.016 -0.192,-0.016 h -0.316 v 1.024 h 0.292 q 0.184,0 0.3,-0.032 0.116,-0.036 0.196,-0.108 0.068,-0.064 0.104,-0.168 0.036,-0.108 0.036,-0.244 z m 3.047999,0.668 q 0,0.396 -0.096,0.66 -0.096,0.264 -0.304,0.456 -0.152,0.14 -0.316,0.204 -0.164,0.06 -0.38,0.06 -0.252,0 -0.448,-0.092 -0.192,-0.096 -0.332,-0.256 -0.328,-0.376 -0.328,-1.088 0,-0.328 0.076,-0.588 0.076,-0.26 0.216,-0.44 0.14,-0.184 0.344,-0.28 0.204,-0.1 0.456,-0.1 0.18,0 0.316,0.044 0.14,0.04 0.244,0.108 0.104,0.064 0.18,0.144 0.076,0.08 0.124,0.152 0.128,0.192 0.188,0.44 0.06,0.244 0.06,0.576 z m -0.368,0.048 q 0,-0.304 -0.032,-0.516 -0.032,-0.212 -0.1,-0.356 -0.072,-0.152 -0.224,-0.264 -0.148,-0.112 -0.388,-0.112 -0.192,0 -0.352,0.088 -0.156,0.084 -0.236,0.232 -0.072,0.136 -0.108,0.32 -0.032,0.18 -0.032,0.436 0,0.312 0.048,0.564 0.048,0.252 0.128,0.392 0.04,0.068 0.104,0.124 0.064,0.052 0.14,0.092 0.08,0.036 0.168,0.06 0.088,0.02 0.172,0.02 0.168,0 0.292,-0.06 0.128,-0.06 0.22,-0.176 0.052,-0.064 0.088,-0.14 0.04,-0.076 0.064,-0.176 0.024,-0.1 0.036,-0.228 0.012,-0.132 0.012,-0.3 z m 2.683998,0.504 q 0,0.192 -0.1,0.368 -0.096,0.176 -0.28,0.292 -0.136,0.088 -0.28,0.128 -0.144,0.04 -0.336,0.04 -0.248,0 -0.464,-0.06 -0.212,-0.06 -0.416,-0.188 l 0.144,-0.256 q 0.172,0.124 0.348,0.18 0.18,0.056 0.388,0.056 0.156,0 0.252,-0.024 0.096,-0.028 0.184,-0.096 0.196,-0.148 0.196,-0.392 0,-0.364 -0.492,-0.512 l -0.276,-0.084 q -0.188,-0.056 -0.3,-0.108 -0.108,-0.052 -0.188,-0.136 -0.172,-0.184 -0.172,-0.448 0,-0.176 0.064,-0.32 0.064,-0.144 0.18,-0.248 0.116,-0.104 0.28,-0.16 0.164,-0.06 0.364,-0.06 0.436,0 0.828,0.264 l -0.144,0.236 q -0.1,-0.064 -0.184,-0.108 -0.084,-0.044 -0.164,-0.072 -0.076,-0.028 -0.156,-0.04 -0.076,-0.012 -0.164,-0.012 -0.26,0 -0.404,0.12 -0.144,0.12 -0.144,0.332 0,0.168 0.104,0.268 0.108,0.1 0.352,0.18 l 0.316,0.1 q 0.184,0.056 0.292,0.12 0.108,0.06 0.192,0.156 0.084,0.096 0.132,0.228 0.048,0.128 0.048,0.256 z m 0.440002,-0.14 v -0.304 h 0.764 v 0.304 z m 3.256002,-0.452 q 0,0.364 -0.088,0.62 -0.084,0.252 -0.224,0.404 -0.092,0.1 -0.184,0.168 -0.092,0.064 -0.196,0.104 -0.1,0.04 -0.22,0.056 -0.12,0.016 -0.264,0.016 h -0.716 v -2.744 h 0.548 q 0.156,0 0.276,0.008 0.12,0.004 0.22,0.028 0.1,0.02 0.192,0.064 0.092,0.04 0.192,0.112 0.236,0.168 0.348,0.464 0.116,0.296 0.116,0.7 z m -0.356,0.04 q 0,-0.308 -0.052,-0.52 -0.048,-0.212 -0.184,-0.376 -0.068,-0.08 -0.136,-0.128 -0.068,-0.052 -0.148,-0.076 -0.076,-0.028 -0.164,-0.036 -0.088,-0.012 -0.196,-0.012 h -0.328 v 2.204 h 0.328 q 0.108,0 0.208,-0.008 0.1,-0.008 0.188,-0.036 0.092,-0.032 0.168,-0.088 0.076,-0.06 0.132,-0.156 0.092,-0.16 0.136,-0.356 0.048,-0.196 0.048,-0.412 z m 2.571998,0.364 q 0,0.248 -0.064,0.44 -0.064,0.188 -0.18,0.316 -0.112,0.128 -0.268,0.196 -0.156,0.064 -0.344,0.064 -0.412,0 -0.636,-0.284 -0.224,-0.284 -0.224,-0.776 0,-0.488 0.224,-0.764 0.228,-0.28 0.624,-0.28 0.252,0 0.416,0.1 0.164,0.1 0.268,0.248 0.092,0.136 0.136,0.316 0.048,0.18 0.048,0.424 z m -0.356,0.024 q 0,-0.412 -0.092,-0.6 -0.064,-0.132 -0.184,-0.192 -0.116,-0.064 -0.24,-0.064 -0.132,0 -0.244,0.06 -0.112,0.056 -0.164,0.156 -0.048,0.092 -0.072,0.216 -0.024,0.124 -0.024,0.304 0,0.212 0.032,0.388 0.036,0.172 0.092,0.264 0.056,0.092 0.164,0.148 0.112,0.052 0.24,0.052 0.156,0 0.268,-0.076 0.112,-0.08 0.164,-0.224 0.032,-0.092 0.044,-0.188 0.016,-0.096 0.016,-0.244 z m 3.143999,0.94 v -1.472 q 0,-0.292 -0.256,-0.292 -0.136,0 -0.256,0.084 -0.116,0.08 -0.272,0.224 v 1.456 h -0.316 v -1.416 q 0,-0.092 -0.012,-0.152 -0.012,-0.06 -0.044,-0.104 -0.068,-0.08 -0.204,-0.08 -0.116,0 -0.236,0.064 -0.116,0.06 -0.272,0.2 v 1.488 h -0.3 v -1.544 q 0,-0.192 -0.032,-0.296 -0.028,-0.108 -0.04,-0.128 l 0.304,-0.072 q 0.012,0.024 0.04,0.116 0.032,0.088 0.032,0.18 0.048,-0.056 0.116,-0.108 0.068,-0.056 0.144,-0.096 0.08,-0.044 0.16,-0.068 0.084,-0.028 0.16,-0.028 0.148,0 0.276,0.088 0.132,0.084 0.188,0.244 0.144,-0.152 0.316,-0.24 0.172,-0.092 0.324,-0.092 0.224,0 0.36,0.152 0.14,0.148 0.14,0.388 v 1.504 z m 2.388,0.076 q -0.104,-0.032 -0.176,-0.108 -0.068,-0.08 -0.096,-0.184 -0.144,0.144 -0.276,0.208 -0.128,0.06 -0.3,0.06 -0.184,0 -0.308,-0.052 -0.124,-0.052 -0.2,-0.132 -0.072,-0.08 -0.104,-0.18 -0.028,-0.104 -0.028,-0.204 0,-0.34 0.276,-0.528 0.276,-0.188 0.78,-0.188 h 0.06 q 0.032,0 0.08,0.004 v -0.14 q 0,-0.132 -0.012,-0.196 -0.008,-0.068 -0.052,-0.116 -0.048,-0.056 -0.112,-0.08 -0.064,-0.028 -0.156,-0.028 -0.084,0 -0.176,0.02 -0.092,0.02 -0.18,0.056 -0.084,0.032 -0.16,0.076 -0.072,0.04 -0.12,0.084 l -0.156,-0.224 q 0.4,-0.268 0.836,-0.268 0.424,0 0.552,0.312 0.032,0.08 0.04,0.192 0.008,0.112 0.004,0.248 l -0.016,0.656 q -0.004,0.12 0,0.2 0.004,0.08 0.02,0.136 0.02,0.052 0.052,0.088 0.032,0.036 0.088,0.064 z m -0.3,-1.088 q -0.032,-0.004 -0.08,-0.004 -0.044,-0.004 -0.076,-0.004 -0.188,0 -0.32,0.032 -0.132,0.032 -0.212,0.092 -0.08,0.06 -0.116,0.152 -0.036,0.088 -0.036,0.2 0,0.364 0.344,0.364 0.152,0 0.284,-0.084 0.132,-0.088 0.2,-0.228 z m 1.067997,1.012 v -1.984 l 0.324,-0.052 v 2.036 z m 0.412,-2.608 q 0,0.104 -0.072,0.176 -0.068,0.068 -0.172,0.068 -0.104,0 -0.176,-0.068 -0.068,-0.072 -0.068,-0.172 0,-0.104 0.068,-0.176 0.072,-0.072 0.176,-0.072 0.104,0 0.172,0.072 0.072,0.068 0.072,0.172 z m 1.82,2.608 v -1.348 q 0,-0.08 -0.004,-0.132 -0.004,-0.052 -0.012,-0.088 -0.008,-0.036 -0.024,-0.06 -0.012,-0.028 -0.032,-0.052 -0.072,-0.084 -0.22,-0.084 -0.06,0 -0.136,0.024 -0.072,0.02 -0.148,0.06 -0.072,0.036 -0.144,0.088 -0.072,0.052 -0.124,0.108 v 1.484 h -0.304 v -1.536 q 0,-0.192 -0.032,-0.296 -0.032,-0.104 -0.044,-0.124 l 0.304,-0.084 q 0.012,0.02 0.04,0.112 0.032,0.092 0.032,0.2 0.308,-0.308 0.628,-0.308 0.164,0 0.296,0.08 0.132,0.08 0.192,0.212 0.048,0.108 0.048,0.232 v 1.512 z m 1.571999,-0.224 q 0,0.116 -0.08,0.196 -0.076,0.076 -0.192,0.076 -0.112,0 -0.188,-0.076 -0.076,-0.08 -0.076,-0.192 0,-0.116 0.076,-0.192 0.08,-0.08 0.196,-0.08 0.108,0 0.184,0.08 0.08,0.076 0.08,0.188 z m 0,-1.264 q 0,0.116 -0.08,0.196 -0.076,0.076 -0.188,0.076 -0.112,0 -0.192,-0.076 -0.076,-0.076 -0.076,-0.188 0,-0.116 0.076,-0.196 0.08,-0.08 0.196,-0.08 0.108,0 0.184,0.08 0.08,0.076 0.08,0.188 z"
         id="path33" />
      <path
         d="m 32.337062,170.67149 h -1.06 v 0.9 h 0.88 v 0.268 h -0.88 v 1.304 h -0.332 v -2.744 h 1.444 z m 0.372,2.472 v -1.984 l 0.324,-0.052 v 2.036 z m 0.412,-2.608 q 0,0.104 -0.072,0.176 -0.068,0.068 -0.172,0.068 -0.104,0 -0.176,-0.068 -0.068,-0.072 -0.068,-0.172 0,-0.104 0.068,-0.176 0.072,-0.072 0.176,-0.072 0.104,0 0.172,0.072 0.072,0.068 0.072,0.172 z m 1.519999,0.916 q -0.04,-0.016 -0.088,-0.016 -0.188,0 -0.332,0.144 -0.068,0.068 -0.092,0.132 -0.024,0.06 -0.024,0.184 v 1.248 h -0.312 v -1.536 q 0,-0.196 -0.032,-0.3 -0.028,-0.104 -0.036,-0.124 l 0.312,-0.084 q 0.012,0.024 0.04,0.12 0.032,0.092 0.024,0.204 0.108,-0.152 0.256,-0.24 0.152,-0.092 0.304,-0.092 0.036,0 0.068,0.008 0.032,0.008 0.04,0.012 z m 2.615998,1.692 v -1.472 q 0,-0.292 -0.256,-0.292 -0.136,0 -0.256,0.084 -0.116,0.08 -0.272,0.224 v 1.456 h -0.316 v -1.416 q 0,-0.092 -0.012,-0.152 -0.012,-0.06 -0.044,-0.104 -0.068,-0.08 -0.204,-0.08 -0.116,0 -0.236,0.064 -0.116,0.06 -0.272,0.2 v 1.488 h -0.3 v -1.544 q 0,-0.192 -0.032,-0.296 -0.028,-0.108 -0.04,-0.128 l 0.304,-0.072 q 0.012,0.024 0.04,0.116 0.032,0.088 0.032,0.18 0.048,-0.056 0.116,-0.108 0.068,-0.056 0.144,-0.096 0.08,-0.044 0.16,-0.068 0.084,-0.028 0.16,-0.028 0.148,0 0.276,0.088 0.132,0.084 0.188,0.244 0.144,-0.152 0.316,-0.24 0.172,-0.092 0.324,-0.092 0.224,0 0.36,0.152 0.14,0.148 0.14,0.388 v 1.504 z m 2.816004,0.016 h -0.308 l -0.396,-1.4 q -0.024,-0.088 -0.04,-0.148 -0.012,-0.06 -0.016,-0.072 h -0.008 q 0,0.012 -0.008,0.036 -0.004,0.024 -0.012,0.056 -0.004,0.028 -0.012,0.06 -0.008,0.032 -0.012,0.052 l -0.4,1.416 h -0.292 l -0.552,-1.992 0.312,-0.068 0.32,1.316 q 0.032,0.124 0.048,0.22 0.02,0.092 0.024,0.112 h 0.012 q 0.004,-0.02 0.02,-0.104 0.02,-0.088 0.048,-0.184 l 0.356,-1.308 h 0.34 l 0.348,1.324 q 0.008,0.036 0.02,0.084 0.012,0.044 0.024,0.088 0.012,0.04 0.02,0.076 0.012,0.032 0.016,0.044 h 0.008 l 0.06,-0.276 0.316,-1.34 h 0.328 z m 2.331998,0.06 q -0.104,-0.032 -0.176,-0.108 -0.068,-0.08 -0.096,-0.184 -0.144,0.144 -0.276,0.208 -0.128,0.06 -0.3,0.06 -0.184,0 -0.308,-0.052 -0.124,-0.052 -0.2,-0.132 -0.072,-0.08 -0.104,-0.18 -0.028,-0.104 -0.028,-0.204 0,-0.34 0.276,-0.528 0.276,-0.188 0.78,-0.188 h 0.06 q 0.032,0 0.08,0.004 v -0.14 q 0,-0.132 -0.012,-0.196 -0.008,-0.068 -0.052,-0.116 -0.048,-0.056 -0.112,-0.08 -0.064,-0.028 -0.156,-0.028 -0.084,0 -0.176,0.02 -0.092,0.02 -0.18,0.056 -0.084,0.032 -0.16,0.076 -0.072,0.04 -0.12,0.084 l -0.156,-0.224 q 0.4,-0.268 0.836,-0.268 0.424,0 0.552,0.312 0.032,0.08 0.04,0.192 0.008,0.112 0.004,0.248 l -0.016,0.656 q -0.004,0.12 0,0.2 0.004,0.08 0.02,0.136 0.02,0.052 0.052,0.088 0.032,0.036 0.088,0.064 z m -0.3,-1.088 q -0.032,-0.004 -0.08,-0.004 -0.044,-0.004 -0.076,-0.004 -0.188,0 -0.32,0.032 -0.132,0.032 -0.212,0.092 -0.08,0.06 -0.116,0.152 -0.036,0.088 -0.036,0.2 0,0.364 0.344,0.364 0.152,0 0.284,-0.084 0.132,-0.088 0.2,-0.228 z m 1.915997,-0.68 q -0.04,-0.016 -0.088,-0.016 -0.188,0 -0.332,0.144 -0.068,0.068 -0.092,0.132 -0.024,0.06 -0.024,0.184 v 1.248 h -0.312 v -1.536 q 0,-0.196 -0.032,-0.3 -0.028,-0.104 -0.036,-0.124 l 0.312,-0.084 q 0.012,0.024 0.04,0.12 0.032,0.092 0.024,0.204 0.108,-0.152 0.256,-0.24 0.152,-0.092 0.304,-0.092 0.036,0 0.068,0.008 0.032,0.008 0.04,0.012 z m 0.668001,0.748 v 0.048 q 0,0.14 0.02,0.248 0.02,0.108 0.072,0.188 0.084,0.128 0.212,0.188 0.132,0.056 0.284,0.056 0.284,0 0.488,-0.188 l 0.12,0.2 q -0.132,0.12 -0.308,0.184 -0.172,0.064 -0.364,0.064 -0.416,0 -0.652,-0.28 -0.232,-0.284 -0.232,-0.78 0,-0.252 0.056,-0.424 0.056,-0.176 0.184,-0.328 0.236,-0.276 0.596,-0.276 0.332,0 0.54,0.216 0.064,0.068 0.108,0.14 0.044,0.072 0.068,0.168 0.028,0.096 0.04,0.224 0.012,0.128 0.012,0.308 v 0.044 z m 0.912,-0.236 q -0.004,-0.164 -0.028,-0.268 -0.02,-0.104 -0.064,-0.176 -0.052,-0.08 -0.148,-0.128 -0.096,-0.048 -0.212,-0.048 -0.436,0 -0.46,0.62 z m 2.699996,1.18 h -0.324 l -0.924,-2.744 h 0.356 l 0.58,1.768 q 0.028,0.092 0.056,0.188 0.028,0.092 0.048,0.18 0.024,0.084 0.036,0.152 0.016,0.064 0.02,0.092 0.012,-0.052 0.052,-0.2 0.044,-0.148 0.116,-0.372 l 0.588,-1.808 h 0.336 z m 1.420002,-0.944 v 0.048 q 0,0.14 0.02,0.248 0.02,0.108 0.072,0.188 0.084,0.128 0.212,0.188 0.132,0.056 0.284,0.056 0.284,0 0.488,-0.188 l 0.12,0.2 q -0.132,0.12 -0.308,0.184 -0.172,0.064 -0.364,0.064 -0.416,0 -0.652,-0.28 -0.232,-0.284 -0.232,-0.78 0,-0.252 0.056,-0.424 0.056,-0.176 0.184,-0.328 0.236,-0.276 0.596,-0.276 0.332,0 0.54,0.216 0.064,0.068 0.108,0.14 0.044,0.072 0.068,0.168 0.028,0.096 0.04,0.224 0.012,0.128 0.012,0.308 v 0.044 z m 0.912,-0.236 q -0.004,-0.164 -0.028,-0.268 -0.02,-0.104 -0.064,-0.176 -0.052,-0.08 -0.148,-0.128 -0.096,-0.048 -0.212,-0.048 -0.436,0 -0.46,0.62 z m 1.78,-0.512 q -0.04,-0.016 -0.088,-0.016 -0.188,0 -0.332,0.144 -0.068,0.068 -0.092,0.132 -0.024,0.06 -0.024,0.184 v 1.248 h -0.312 v -1.536 q 0,-0.196 -0.032,-0.3 -0.028,-0.104 -0.036,-0.124 l 0.312,-0.084 q 0.012,0.024 0.04,0.12 0.032,0.092 0.024,0.204 0.108,-0.152 0.256,-0.24 0.152,-0.092 0.304,-0.092 0.036,0 0.068,0.008 0.032,0.008 0.04,0.012 z m 1.752001,1.1 q 0,0.144 -0.056,0.264 -0.052,0.12 -0.152,0.208 -0.1,0.084 -0.24,0.132 -0.136,0.048 -0.304,0.048 -0.192,0 -0.388,-0.056 -0.192,-0.052 -0.344,-0.144 l 0.12,-0.232 q 0.308,0.188 0.632,0.188 0.184,0 0.292,-0.092 0.112,-0.092 0.112,-0.252 0,-0.136 -0.08,-0.212 -0.076,-0.08 -0.248,-0.116 l -0.248,-0.052 q -0.248,-0.052 -0.376,-0.196 -0.128,-0.144 -0.128,-0.352 0,-0.136 0.052,-0.248 0.052,-0.112 0.144,-0.192 0.096,-0.08 0.224,-0.124 0.132,-0.048 0.288,-0.048 0.156,0 0.316,0.044 0.164,0.044 0.292,0.116 l -0.116,0.232 q -0.132,-0.064 -0.252,-0.104 -0.116,-0.04 -0.248,-0.04 -0.172,0 -0.276,0.092 -0.1,0.088 -0.1,0.236 0,0.116 0.064,0.188 0.064,0.068 0.224,0.1 l 0.264,0.056 q 0.532,0.112 0.532,0.556 z m 0.560002,0.592 v -1.984 l 0.324,-0.052 v 2.036 z m 0.412,-2.608 q 0,0.104 -0.072,0.176 -0.068,0.068 -0.172,0.068 -0.104,0 -0.176,-0.068 -0.068,-0.072 -0.068,-0.172 0,-0.104 0.068,-0.176 0.072,-0.072 0.176,-0.072 0.104,0 0.172,0.072 0.072,0.068 0.072,0.172 z m 2.248,1.644 q 0,0.248 -0.064,0.44 -0.064,0.188 -0.18,0.316 -0.112,0.128 -0.268,0.196 -0.156,0.064 -0.344,0.064 -0.412,0 -0.636,-0.284 -0.224,-0.284 -0.224,-0.776 0,-0.488 0.224,-0.764 0.228,-0.28 0.624,-0.28 0.252,0 0.416,0.1 0.164,0.1 0.268,0.248 0.092,0.136 0.136,0.316 0.048,0.18 0.048,0.424 z m -0.356,0.024 q 0,-0.412 -0.092,-0.6 -0.064,-0.132 -0.184,-0.192 -0.116,-0.064 -0.24,-0.064 -0.132,0 -0.244,0.06 -0.112,0.056 -0.164,0.156 -0.048,0.092 -0.072,0.216 -0.024,0.124 -0.024,0.304 0,0.212 0.032,0.388 0.036,0.172 0.092,0.264 0.056,0.092 0.164,0.148 0.112,0.052 0.24,0.052 0.156,0 0.268,-0.076 0.112,-0.08 0.164,-0.224 0.032,-0.092 0.044,-0.188 0.016,-0.096 0.016,-0.244 z m 2.123999,0.94 v -1.348 q 0,-0.08 -0.004,-0.132 -0.004,-0.052 -0.012,-0.088 -0.008,-0.036 -0.024,-0.06 -0.012,-0.028 -0.032,-0.052 -0.072,-0.084 -0.22,-0.084 -0.06,0 -0.136,0.024 -0.072,0.02 -0.148,0.06 -0.072,0.036 -0.144,0.088 -0.072,0.052 -0.124,0.108 v 1.484 h -0.304 v -1.536 q 0,-0.192 -0.032,-0.296 -0.032,-0.104 -0.044,-0.124 l 0.304,-0.084 q 0.012,0.02 0.04,0.112 0.032,0.092 0.032,0.2 0.308,-0.308 0.628,-0.308 0.164,0 0.296,0.08 0.132,0.08 0.192,0.212 0.048,0.108 0.048,0.232 v 1.512 z m 1.571999,-0.224 q 0,0.116 -0.08,0.196 -0.076,0.076 -0.192,0.076 -0.112,0 -0.188,-0.076 -0.076,-0.08 -0.076,-0.192 0,-0.116 0.076,-0.192 0.08,-0.08 0.196,-0.08 0.108,0 0.184,0.08 0.08,0.076 0.08,0.188 z m 0,-1.264 q 0,0.116 -0.08,0.196 -0.076,0.076 -0.188,0.076 -0.112,0 -0.192,-0.076 -0.076,-0.076 -0.076,-0.188 0,-0.116 0.076,-0.196 0.08,-0.08 0.196,-0.08 0.108,0 0.184,0.08 0.08,0.076 0.08,0.188 z"
         id="path34" />
    </g>
    <path
       style="color:#000000;fill:#000000;stroke-linecap:round;-inkscape-stroke:none"
       d="m 30.972656,138.48437 c -1.531803,0 -2.773437,1.24164 -2.773437,2.77344 v 31.31446 c 0,1.5318 1.241634,2.77539 2.773437,2.77539 h 80.724614 c 1.5318,0 2.77343,-1.24359 2.77343,-2.77539 v -31.31446 c 0,-1.5318 -1.24163,-2.77344 -2.77343,-2.77344 z m 0,0.55665 h 80.724614 c 1.23241,0 2.21679,0.98438 2.21679,2.21679 v 31.31446 c 0,1.23241 -0.98438,2.21679 -2.21679,2.21679 H 30.972656 c -1.232412,0 -2.214843,-0.98438 -2.214844,-2.21679 v -31.31446 c 0,-1.23241 0.982432,-2.21679 2.214844,-2.21679 z"
       id="rect10" />
    <path
       d="m 31.246308,137.02202 q -0.168,0.136 -0.352,0.2 -0.18,0.06 -0.42,0.06 -0.572,0 -0.908,-0.384 -0.336,-0.376 -0.336,-0.996 0,-0.512 0.188,-0.864 0.164,-0.304 0.444,-0.472 0.28,-0.172 0.62,-0.172 0.208,0 0.396,0.06 0.192,0.06 0.308,0.16 l -0.252,0.38 q -0.212,-0.156 -0.444,-0.156 -0.14,0 -0.268,0.064 -0.128,0.064 -0.204,0.176 -0.156,0.232 -0.156,0.716 0,0.288 0.024,0.46 0.028,0.168 0.092,0.284 0.172,0.312 0.536,0.312 0.124,0 0.236,-0.04 0.116,-0.04 0.24,-0.14 z m 1.951994,-0.82 q 0,0.264 -0.064,0.452 -0.06,0.188 -0.192,0.34 -0.116,0.132 -0.276,0.208 -0.16,0.076 -0.4,0.076 -0.208,0 -0.38,-0.076 -0.168,-0.076 -0.288,-0.212 -0.12,-0.14 -0.188,-0.336 -0.064,-0.196 -0.064,-0.436 0,-0.24 0.064,-0.436 0.068,-0.2 0.188,-0.34 0.12,-0.144 0.288,-0.22 0.172,-0.076 0.38,-0.076 0.436,0 0.696,0.308 0.124,0.144 0.18,0.32 0.056,0.176 0.056,0.428 z m -0.584,-0.004 q 0,-0.408 -0.108,-0.548 -0.084,-0.108 -0.232,-0.108 -0.096,0 -0.172,0.056 -0.072,0.056 -0.104,0.152 -0.028,0.08 -0.044,0.192 -0.012,0.112 -0.012,0.264 0,0.356 0.068,0.516 0.036,0.084 0.112,0.128 0.08,0.04 0.16,0.04 0.176,0 0.252,-0.164 0.08,-0.164 0.08,-0.528 z m 2.131997,1.036 v -1.332 q 0,-0.176 -0.04,-0.236 -0.036,-0.064 -0.14,-0.064 -0.08,0 -0.18,0.052 -0.1,0.048 -0.192,0.132 v 1.448 h -0.536 v -1.484 q 0,-0.132 -0.02,-0.252 -0.016,-0.124 -0.052,-0.228 l 0.476,-0.136 q 0.076,0.132 0.076,0.256 0.06,-0.044 0.112,-0.08 0.056,-0.036 0.124,-0.072 0.08,-0.044 0.176,-0.064 0.1,-0.024 0.192,-0.024 0.172,0 0.308,0.084 0.136,0.08 0.184,0.212 0.04,0.108 0.04,0.292 v 1.496 z m 2.092004,-2.504 q -0.088,-0.044 -0.132,-0.056 -0.04,-0.012 -0.088,-0.012 -0.104,0 -0.164,0.06 -0.06,0.06 -0.06,0.172 v 0.292 h 0.52 l -0.136,0.368 h -0.38 v 1.68 h -0.524 v -1.68 h -0.184 v -0.368 h 0.196 q -0.008,-0.064 -0.016,-0.136 -0.004,-0.076 -0.004,-0.144 0,-0.304 0.172,-0.468 0.172,-0.168 0.488,-0.168 0.132,0 0.244,0.032 0.116,0.028 0.24,0.096 z m 0.291996,2.504 v -2.012 l 0.536,-0.084 v 2.096 z m 0.6,-2.612 q 0,0.14 -0.096,0.236 -0.096,0.096 -0.236,0.096 -0.136,0 -0.232,-0.096 -0.096,-0.096 -0.096,-0.236 0,-0.14 0.096,-0.236 0.1,-0.096 0.24,-0.096 0.136,0 0.228,0.096 0.096,0.096 0.096,0.236 z m 2.564002,0.788 q -0.088,0.08 -0.176,0.116 -0.088,0.036 -0.2,0.036 -0.04,0 -0.08,-0.004 -0.036,-0.004 -0.06,-0.008 0.06,0.072 0.088,0.152 0.032,0.08 0.032,0.184 0,0.132 -0.056,0.244 -0.056,0.112 -0.16,0.192 -0.1,0.08 -0.24,0.128 -0.136,0.044 -0.3,0.044 h -0.036 q -0.012,0 -0.044,-0.004 -0.104,0.048 -0.16,0.088 -0.052,0.036 -0.052,0.08 0,0.048 0.088,0.048 l 0.288,0.004 q 0.232,0.004 0.372,0.044 0.14,0.04 0.248,0.14 0.176,0.164 0.176,0.436 0,0.248 -0.164,0.424 -0.136,0.144 -0.352,0.204 -0.216,0.06 -0.456,0.06 -0.22,0 -0.428,-0.048 -0.208,-0.044 -0.348,-0.172 -0.168,-0.156 -0.168,-0.364 0,-0.084 0.016,-0.132 0.016,-0.044 0.032,-0.076 h 0.496 q -0.016,0.036 -0.02,0.06 -0.004,0.028 -0.004,0.072 0,0.124 0.096,0.188 0.1,0.064 0.288,0.064 0.104,0 0.188,-0.016 0.084,-0.012 0.148,-0.052 0.06,-0.036 0.096,-0.092 0.036,-0.052 0.036,-0.116 0,-0.14 -0.108,-0.188 -0.108,-0.052 -0.268,-0.056 l -0.228,-0.004 q -0.352,-0.004 -0.492,-0.064 -0.072,-0.028 -0.116,-0.096 -0.04,-0.068 -0.04,-0.172 0,-0.048 0.012,-0.096 0.012,-0.048 0.048,-0.092 0.04,-0.044 0.112,-0.084 0.076,-0.04 0.204,-0.072 -0.44,-0.112 -0.44,-0.568 0,-0.156 0.06,-0.284 0.064,-0.128 0.176,-0.216 0.112,-0.092 0.272,-0.14 0.16,-0.052 0.356,-0.052 0.088,0 0.172,0.012 0.084,0.012 0.196,0.04 0.084,0.02 0.14,0.032 0.06,0.012 0.112,0.012 0.112,0 0.22,-0.044 0.112,-0.048 0.204,-0.132 z m -0.948,0.436 q 0,-0.144 -0.088,-0.224 -0.084,-0.08 -0.236,-0.08 -0.152,0 -0.236,0.08 -0.084,0.08 -0.084,0.224 0,0.156 0.088,0.224 0.088,0.068 0.228,0.068 0.328,0 0.328,-0.292 z m 2.499999,1.444 q -0.108,-0.076 -0.16,-0.2 -0.1,0.096 -0.24,0.144 -0.136,0.052 -0.3,0.052 -0.216,0 -0.384,-0.092 -0.168,-0.092 -0.22,-0.24 -0.024,-0.068 -0.036,-0.16 -0.008,-0.092 -0.008,-0.248 v -1.312 l 0.528,-0.1 v 1.316 q 0,0.14 0.012,0.216 0.012,0.076 0.032,0.12 0.02,0.044 0.072,0.072 0.056,0.024 0.116,0.024 0.1,0 0.2,-0.06 0.1,-0.06 0.132,-0.136 v -1.44 l 0.512,-0.108 v 1.564 q 0,0.104 0.032,0.204 0.032,0.096 0.092,0.168 z m 1.835997,-1.636 q -0.076,-0.04 -0.156,-0.04 -0.18,0 -0.328,0.172 v 1.448 h -0.536 v -1.368 q 0,-0.208 -0.024,-0.36 -0.02,-0.152 -0.052,-0.24 l 0.48,-0.128 q 0.072,0.128 0.084,0.292 0.088,-0.116 0.208,-0.204 0.12,-0.088 0.272,-0.088 0.06,0 0.096,0.008 0.04,0.008 0.104,0.036 z m 1.756001,1.684 q -0.092,-0.04 -0.172,-0.104 -0.076,-0.064 -0.116,-0.144 -0.032,0.032 -0.064,0.06 -0.028,0.028 -0.06,0.048 -0.156,0.112 -0.412,0.112 -0.344,0 -0.524,-0.164 -0.18,-0.168 -0.18,-0.476 0,-0.364 0.244,-0.532 0.248,-0.172 0.74,-0.172 h 0.06 q 0.028,0 0.06,0.004 v -0.084 q 0,-0.172 -0.048,-0.236 -0.044,-0.068 -0.192,-0.068 -0.128,0 -0.276,0.06 -0.148,0.06 -0.316,0.172 l -0.228,-0.384 q 0.08,-0.052 0.152,-0.088 0.072,-0.036 0.18,-0.08 0.152,-0.064 0.284,-0.092 0.136,-0.028 0.276,-0.028 0.26,0 0.428,0.092 0.172,0.092 0.232,0.264 0.012,0.032 0.016,0.064 0.008,0.028 0.012,0.068 0.008,0.04 0.008,0.096 v 0.14 l -0.012,0.688 q 0,0.084 0.004,0.148 0.004,0.06 0.024,0.112 0.02,0.052 0.056,0.1 0.04,0.044 0.108,0.096 z m -0.456,-1 q -0.28,0 -0.392,0.064 -0.108,0.064 -0.108,0.248 0,0.12 0.064,0.196 0.068,0.072 0.172,0.072 0.076,0 0.148,-0.036 0.072,-0.036 0.132,-0.104 l 0.008,-0.44 z m 2.179997,0.852 q -0.224,0.092 -0.436,0.092 -0.204,0 -0.356,-0.08 -0.148,-0.084 -0.196,-0.22 -0.012,-0.032 -0.02,-0.06 -0.008,-0.028 -0.012,-0.06 0,-0.032 -0.004,-0.076 0,-0.048 0,-0.12 v -1.112 h -0.204 v -0.368 h 0.204 q 0,-0.152 0,-0.26 0.004,-0.108 0.02,-0.224 l 0.544,-0.136 q -0.016,0.14 -0.024,0.304 -0.008,0.16 -0.008,0.316 h 0.48 l -0.136,0.368 h -0.344 v 1.028 q 0,0.196 0.044,0.264 0.048,0.064 0.188,0.064 0.036,0 0.076,-0.008 0.044,-0.012 0.116,-0.032 z m 0.379999,0.044 v -2.012 l 0.536,-0.084 v 2.096 z m 0.6,-2.612 q 0,0.14 -0.096,0.236 -0.096,0.096 -0.236,0.096 -0.136,0 -0.232,-0.096 -0.096,-0.096 -0.096,-0.236 0,-0.14 0.096,-0.236 0.1,-0.096 0.24,-0.096 0.136,0 0.228,0.096 0.096,0.096 0.096,0.236 z m 2.248002,1.58 q 0,0.264 -0.064,0.452 -0.06,0.188 -0.192,0.34 -0.116,0.132 -0.276,0.208 -0.16,0.076 -0.4,0.076 -0.208,0 -0.38,-0.076 -0.168,-0.076 -0.288,-0.212 -0.12,-0.14 -0.188,-0.336 -0.064,-0.196 -0.064,-0.436 0,-0.24 0.064,-0.436 0.068,-0.2 0.188,-0.34 0.12,-0.144 0.288,-0.22 0.172,-0.076 0.38,-0.076 0.436,0 0.696,0.308 0.124,0.144 0.18,0.32 0.056,0.176 0.056,0.428 z m -0.584,-0.004 q 0,-0.408 -0.108,-0.548 -0.084,-0.108 -0.232,-0.108 -0.096,0 -0.172,0.056 -0.072,0.056 -0.104,0.152 -0.028,0.08 -0.044,0.192 -0.012,0.112 -0.012,0.264 0,0.356 0.068,0.516 0.036,0.084 0.112,0.128 0.08,0.04 0.16,0.04 0.176,0 0.252,-0.164 0.08,-0.164 0.08,-0.528 z m 2.131997,1.036 v -1.332 q 0,-0.176 -0.04,-0.236 -0.036,-0.064 -0.14,-0.064 -0.08,0 -0.18,0.052 -0.1,0.048 -0.192,0.132 v 1.448 h -0.536 v -1.484 q 0,-0.132 -0.02,-0.252 -0.016,-0.124 -0.052,-0.228 l 0.476,-0.136 q 0.076,0.132 0.076,0.256 0.06,-0.044 0.112,-0.08 0.056,-0.036 0.124,-0.072 0.08,-0.044 0.176,-0.064 0.1,-0.024 0.192,-0.024 0.172,0 0.308,0.084 0.136,0.08 0.184,0.212 0.04,0.108 0.04,0.292 v 1.496 z m 1.780003,-0.272 q 0,0.14 -0.104,0.24 -0.1,0.096 -0.244,0.096 -0.14,0 -0.244,-0.096 -0.1,-0.1 -0.1,-0.24 0,-0.148 0.1,-0.252 0.104,-0.104 0.248,-0.104 0.144,0 0.244,0.104 0.1,0.104 0.1,0.252 z m 0.004,-1.2 q 0,0.144 -0.104,0.244 -0.1,0.1 -0.244,0.1 -0.14,0 -0.24,-0.1 -0.1,-0.1 -0.1,-0.24 0,-0.072 0.024,-0.136 0.028,-0.064 0.072,-0.112 0.048,-0.048 0.108,-0.076 0.064,-0.028 0.136,-0.028 0.144,0 0.244,0.104 0.104,0.1 0.104,0.244 z"
       id="text11"
       style="font-weight:bold;font-size:4px;font-family:'Meta Offc Pro';-inkscape-font-specification:'Meta Offc Pro Bold';stroke-width:0.423;stroke-linecap:round"
       aria-label="Configuration:" />
    <g
       id="path11">
      <path
         style="color:#000000;fill:#000000;stroke-linecap:round;-inkscape-stroke:none"
         d="M 28.411009,144.17499 H 114.07706"
         id="path45" />
      <path
         style="color:#000000;fill:#000000;stroke-linecap:round;-inkscape-stroke:none"
         d="m 28.410156,143.96289 a 0.2115,0.2115 0 0 0 -0.210937,0.21289 0.2115,0.2115 0 0 0 0.210937,0.21094 h 85.666014 a 0.2115,0.2115 0 0 0 0.21289,-0.21094 0.2115,0.2115 0 0 0 -0.21289,-0.21289 z"
         id="path46" />
    </g>
    <g
       id="path11-7">
      <path
         style="color:#000000;fill:#000000;stroke-linecap:round;-inkscape-stroke:none"
         d="M 28.611685,149.5492 H 114.27774"
         id="path43" />
      <path
         style="color:#000000;fill:#000000;stroke-linecap:round;-inkscape-stroke:none"
         d="m 28.611328,149.33789 a 0.2115,0.2115 0 0 0 -0.210937,0.21094 0.2115,0.2115 0 0 0 0.210937,0.21094 h 85.666012 a 0.2115,0.2115 0 0 0 0.21094,-0.21094 0.2115,0.2115 0 0 0 -0.21094,-0.21094 z"
         id="path44" />
    </g>
    <g
       id="path11-7-9">
      <path
         style="color:#000000;fill:#000000;stroke-linecap:round;-inkscape-stroke:none"
         d="M 28.446563,154.30229 H 114.11261"
         id="path41" />
      <path
         style="color:#000000;fill:#000000;stroke-linecap:round;-inkscape-stroke:none"
         d="m 28.447266,154.08984 a 0.2115,0.2115 0 0 0 -0.212891,0.21289 0.2115,0.2115 0 0 0 0.212891,0.21094 h 85.666014 a 0.2115,0.2115 0 0 0 0.21094,-0.21094 0.2115,0.2115 0 0 0 -0.21094,-0.21289 z"
         id="path42" />
    </g>
    <g
       id="path11-7-5">
      <path
         style="color:#000000;fill:#000000;stroke-linecap:round;-inkscape-stroke:none"
         d="M 28.417028,159.36429 H 114.08309"
         id="path39" />
      <path
         style="color:#000000;fill:#000000;stroke-linecap:round;-inkscape-stroke:none"
         d="m 28.417969,159.15234 a 0.2115,0.2115 0 0 0 -0.212891,0.21289 0.2115,0.2115 0 0 0 0.212891,0.21094 h 85.666011 a 0.2115,0.2115 0 0 0 0.21094,-0.21094 0.2115,0.2115 0 0 0 -0.21094,-0.21289 z"
         id="path40" />
    </g>
    <g
       id="path11-7-1">
      <path
         style="color:#000000;fill:#000000;stroke-linecap:round;-inkscape-stroke:none"
         d="M 28.539253,164.39137 H 114.2053"
         id="path37" />
      <path
         style="color:#000000;fill:#000000;stroke-linecap:round;-inkscape-stroke:none"
         d="m 28.539062,164.17969 a 0.2115,0.2115 0 0 0 -0.210937,0.21093 0.2115,0.2115 0 0 0 0.210937,0.2129 h 85.666018 a 0.2115,0.2115 0 0 0 0.21094,-0.2129 0.2115,0.2115 0 0 0 -0.21094,-0.21093 z"
         id="path38" />
    </g>
    <g
       id="path11-7-7">
      <path
         style="color:#000000;fill:#000000;stroke-linecap:round;-inkscape-stroke:none"
         d="M 28.602375,169.57291 H 114.26843"
         id="path35" />
      <path
         style="color:#000000;fill:#000000;stroke-linecap:round;-inkscape-stroke:none"
         d="m 28.601562,169.36133 a 0.2115,0.2115 0 0 0 -0.210937,0.21094 0.2115,0.2115 0 0 0 0.210937,0.21289 h 85.666018 a 0.2115,0.2115 0 0 0 0.21289,-0.21289 0.2115,0.2115 0 0 0 -0.21289,-0.21094 z"
         id="path36" />
    </g>
    <text
       xml:space="preserve"
       transform="matrix(0.26458333,0,0,0.26458333,28.199509,113.97413)"
       id="text12"
       style="font-style:normal;font-variant:normal;font-weight:bold;font-stretch:normal;font-size:15.1181px;font-family:'Meta Offc Pro';-inkscape-font-specification:'Meta Offc Pro Bold';white-space:pre;shape-inside:url(#rect12);display:inline;fill:#000000;fill-opacity:1;stroke:#000000;stroke-width:1.59874;stroke-linecap:round;stroke-opacity:1" />
    <text
       xml:space="preserve"
       transform="matrix(0.26458333,0,0,0.26458333,28.199509,113.97413)"
       id="text28"
       style="font-style:normal;font-variant:normal;font-weight:bold;font-stretch:normal;font-size:15.1181px;font-family:'Meta Offc Pro';-inkscape-font-specification:'Meta Offc Pro Bold';white-space:pre;shape-inside:url(#rect28);display:inline;fill:#000000;fill-opacity:1;stroke:#000000;stroke-width:1.59874;stroke-linecap:round;stroke-opacity:1" />
    <text
       xml:space="preserve"
       transform="matrix(0.26458333,0,0,0.26458333,28.199509,113.97413)"
       id="text46"
       style="fill:#000000;font-size:15.11811024px;stroke-width:1.59874016;-inkscape-font-specification:'Meta Offc Pro Bold';font-family:'Meta Offc Pro';stroke-linecap:round;stroke:#000000;font-weight:bold;font-style:normal;font-stretch:normal;font-variant:normal;stroke-opacity:1;fill-opacity:1;white-space:pre;shape-inside:url(#rect46)" />
  </g>
  <g
     inkscape:label="Layer 1"
     inkscape:groupmode="layer"
     id="g27"
     transform="translate(-28.199509,-113.97413)"
     style="display:none">
    <text
       xml:space="preserve"
       style="font-style:normal;font-variant:normal;font-weight:normal;font-stretch:normal;font-size:10px;font-family:'Meta Offc Pro';-inkscape-font-specification:'Meta Offc Pro';fill:#000000;stroke:none;stroke-width:0.423;stroke-linecap:round"
       x="28.76845"
       y="121.28413"
       id="text13"><tspan
         sodipodi:role="line"
         id="tspan13"
         x="28.76845"
         y="121.28413"
         style="font-style:normal;font-variant:normal;font-weight:normal;font-stretch:normal;font-size:10px;font-family:'Meta Offc Pro';-inkscape-font-specification:'Meta Offc Pro';stroke:none;stroke-width:0.423">Edurob</tspan></text>
    <text
       xml:space="preserve"
       style="font-size:4px;font-family:'Meta Offc Pro';-inkscape-font-specification:'Meta Offc Pro';fill:#000000;stroke:none;stroke-width:0.423;stroke-linecap:round"
       x="30.565062"
       y="143.14349"
       id="text21"><tspan
         sodipodi:role="line"
         x="30.565062"
         y="143.14349"
         style="font-size:4px;stroke:none;stroke-width:0.423"
         id="tspan14">Encoder resolution:</tspan><tspan
         sodipodi:role="line"
         x="30.565062"
         y="148.14349"
         style="font-size:4px;stroke:none;stroke-width:0.423"
         id="tspan15">Wheel radius:</tspan><tspan
         sodipodi:role="line"
         x="30.565062"
         y="153.14349"
         style="font-size:4px;stroke:none;stroke-width:0.423"
         id="tspan16">Gearing:</tspan><tspan
         sodipodi:role="line"
         x="30.565062"
         y="158.14349"
         style="font-size:4px;stroke:none;stroke-width:0.423"
         id="tspan17">Wheelbase (l1):</tspan><tspan
         sodipodi:role="line"
         x="30.565062"
         y="163.14349"
         style="font-size:4px;stroke:none;stroke-width:0.423"
         id="tspan18">Axle Track (l2):</tspan><tspan
         sodipodi:role="line"
         x="30.565062"
         y="168.14349"
         style="font-size:4px;stroke:none;stroke-width:0.423"
         id="tspan19">ROS-Domain:</tspan><tspan
         sodipodi:role="line"
         x="30.565062"
         y="173.14349"
         style="font-size:4px;stroke:none;stroke-width:0.423"
         id="tspan20">Firmware Version:</tspan><tspan
         sodipodi:role="line"
         x="30.565062"
         y="178.14349"
         style="font-size:4px;stroke:none;stroke-width:0.423"
         id="tspan21" /></text>
    <rect
       style="fill:none;stroke:#000000;stroke-width:0.557836;stroke-linecap:round;stroke-opacity:1"
       id="rect21"
       width="85.713867"
       height="36.305199"
       x="28.478428"
       y="138.7627"
       ry="2.4947813" />
    <text
       xml:space="preserve"
       style="font-style:normal;font-variant:normal;font-weight:bold;font-stretch:normal;font-size:4px;font-family:'Meta Offc Pro';-inkscape-font-specification:'Meta Offc Pro Bold';fill:#000000;fill-opacity:1;stroke:none;stroke-width:0.423;stroke-linecap:round;stroke-opacity:1"
       x="29.050308"
       y="137.23402"
       id="text22"><tspan
         sodipodi:role="line"
         id="tspan22"
         style="fill:#000000;fill-opacity:1;stroke:none;stroke-width:0.423"
         x="29.050308"
         y="137.23402">Configuration:</tspan></text>
    <path
       style="fill:#000000;fill-opacity:1;stroke:#000000;stroke-width:0.423;stroke-linecap:round;stroke-opacity:1"
       d="M 28.411009,144.17499 H 114.07706"
       id="path22" />
    <path
       style="fill:#000000;fill-opacity:1;stroke:#000000;stroke-width:0.423;stroke-linecap:round;stroke-opacity:1"
       d="M 28.611685,149.5492 H 114.27774"
       id="path23" />
    <path
       style="fill:#000000;fill-opacity:1;stroke:#000000;stroke-width:0.423;stroke-linecap:round;stroke-opacity:1"
       d="M 28.446563,154.30229 H 114.11261"
       id="path24" />
    <path
       style="fill:#000000;fill-opacity:1;stroke:#000000;stroke-width:0.423;stroke-linecap:round;stroke-opacity:1"
       d="M 28.417028,159.36429 H 114.08309"
       id="path25" />
    <path
       style="fill:#000000;fill-opacity:1;stroke:#000000;stroke-width:0.423;stroke-linecap:round;stroke-opacity:1"
       d="M 28.539253,164.39137 H 114.2053"
       id="path26" />
    <path
       style="fill:#000000;fill-opacity:1;stroke:#000000;stroke-width:0.423;stroke-linecap:round;stroke-opacity:1"
       d="M 28.602375,169.57291 H 114.26843"
       id="path27" />
    <text
       xml:space="preserve"
       transform="matrix(0.26458333,0,0,0.26458333,28.199509,113.97413)"
       id="text27"
       style="font-style:normal;font-variant:normal;font-weight:bold;font-stretch:normal;font-size:15.1181px;font-family:'Meta Offc Pro';-inkscape-font-specification:'Meta Offc Pro Bold';white-space:pre;shape-inside:url(#rect27);display:inline;fill:#000000;fill-opacity:1;stroke:#000000;stroke-width:1.59874;stroke-linecap:round;stroke-opacity:1" />
  </g>
</svg>
