%TF.GenerationSoftware,KiCad,Pcbnew,7.0.10*%
%TF.CreationDate,2024-01-17T11:14:46+01:00*%
%TF.ProjectId,Edurob,45647572-6f62-42e6-9b69-6361645f7063,rev?*%
%TF.SameCoordinates,Original*%
%TF.FileFunction,Profile,NP*%
%FSLAX46Y46*%
G04 Gerber Fmt 4.6, Leading zero omitted, Abs format (unit mm)*
G04 Created by KiCad (PCBNEW 7.0.10) date 2024-01-17 11:14:46*
%MOMM*%
%LPD*%
G01*
G04 APERTURE LIST*
%TA.AperFunction,Profile*%
%ADD10C,0.250000*%
%TD*%
G04 APERTURE END LIST*
D10*
X241629934Y-200822322D02*
X247640350Y-206832738D01*
X144360000Y-243883849D02*
G75*
G03*
X143000000Y-247000000I2890000J-3116151D01*
G01*
X147250000Y-30750000D02*
X252750000Y-30750000D01*
X256999999Y-247000000D02*
G75*
G03*
X255640000Y-243883849I-4249999J0D01*
G01*
X143167259Y-197640347D02*
G75*
G03*
X143167262Y-198347457I353541J-353553D01*
G01*
X279707107Y-204464466D02*
X276365212Y-207806361D01*
X224000000Y-216000000D02*
X213582576Y-216000000D01*
X234500000Y-262000000D02*
X234500000Y-250000000D01*
X174500000Y-262500000D02*
G75*
G03*
X175000000Y-262000000I0J500000D01*
G01*
X166000000Y-50500000D02*
X174500000Y-50500000D01*
X120000000Y-102832014D02*
X120000000Y-203757359D01*
X262136030Y-75136048D02*
X272306278Y-85306296D01*
X149884738Y-65943613D02*
G75*
G03*
X149884775Y-63115225I-1414138J1414213D01*
G01*
X257000000Y-247000000D02*
X257000000Y-265000000D01*
X158370034Y-99884753D02*
G75*
G03*
X158370066Y-99177678I-353634J353553D01*
G01*
X157358299Y-100896564D02*
G75*
G03*
X150234628Y-110196152I35856901J-34845336D01*
G01*
X250115215Y-191629934D02*
X241629934Y-200115215D01*
X258631066Y-226079226D02*
G75*
G03*
X257806361Y-226365212I-117566J-993074D01*
G01*
X145292869Y-241476635D02*
G75*
G03*
X145000000Y-242183766I707331J-707165D01*
G01*
X225500000Y-249500000D02*
G75*
G03*
X225000000Y-250000000I0J-500000D01*
G01*
X151652544Y-206832737D02*
G75*
G03*
X152359649Y-206832737I353553J353551D01*
G01*
X255000000Y-57582576D02*
X255000000Y-57816234D01*
X225000000Y-50000000D02*
G75*
G03*
X225500000Y-50500000I500000J0D01*
G01*
X165500000Y-38000000D02*
X165500000Y-50000000D01*
X187883849Y-216640000D02*
G75*
G03*
X191000000Y-218000000I3116151J2890000D01*
G01*
X225500000Y-50500000D02*
X234000000Y-50500000D01*
X279999992Y-102832014D02*
G75*
G03*
X279866024Y-102332014I-999992J14D01*
G01*
X249551534Y-91968164D02*
G75*
G03*
X248841950Y-91965664I-356034J-351036D01*
G01*
X272465199Y-85513401D02*
G75*
G03*
X272306278Y-85306296I-865999J-499999D01*
G01*
X259285872Y-105276804D02*
G75*
G03*
X259461219Y-104580964I-249972J433004D01*
G01*
X226000000Y-218000000D02*
G75*
G03*
X224000000Y-216000000I-2000000J0D01*
G01*
X257000000Y-35000000D02*
G75*
G03*
X252750000Y-30750000I-4250000J0D01*
G01*
X145000000Y-242417424D02*
X145000000Y-242183766D01*
X123920731Y-208631061D02*
G75*
G03*
X125136048Y-212136030I4220569J-499739D01*
G01*
X248841949Y-91965663D02*
X241629934Y-99177678D01*
X147250000Y-30750000D02*
G75*
G03*
X143000000Y-35000000I0J-4250000D01*
G01*
X225000000Y-38000000D02*
X225000000Y-50000000D01*
X149177678Y-191629934D02*
X143167262Y-197640350D01*
X137863959Y-224863963D02*
G75*
G03*
X141368938Y-226079257I3005241J3005363D01*
G01*
X193500000Y-186500000D02*
X193500000Y-195000000D01*
X166000000Y-37500000D02*
G75*
G03*
X165500000Y-38000000I0J-500000D01*
G01*
X234500000Y-250000000D02*
G75*
G03*
X234000000Y-249500000I-500000J0D01*
G01*
X254999982Y-242417424D02*
G75*
G03*
X255640000Y-243883849I2000018J24D01*
G01*
X257806361Y-226365212D02*
X250115224Y-234056349D01*
X252750000Y-269250000D02*
X147250000Y-269250000D01*
X249765405Y-110196133D02*
G75*
G03*
X250448385Y-110379165I432995J249933D01*
G01*
X176000000Y-216000000D02*
G75*
G03*
X174000000Y-218000000I0J-2000000D01*
G01*
X143000001Y-53000000D02*
G75*
G03*
X144360000Y-56116151I4249999J0D01*
G01*
X259461222Y-104580963D02*
G75*
G03*
X249551537Y-91968161I-60822722J-37588137D01*
G01*
X225000000Y-250000000D02*
X225000000Y-262000000D01*
X280000000Y-203757359D02*
X280000000Y-102832014D01*
X174000000Y-246000000D02*
G75*
G03*
X176000000Y-248000000I2000000J0D01*
G01*
X149884776Y-63115224D02*
X145292893Y-58523341D01*
X250115224Y-236884776D02*
X254707107Y-241476659D01*
X193500000Y-195000000D02*
G75*
G03*
X194000000Y-195500000I500000J0D01*
G01*
X142193657Y-226365194D02*
G75*
G03*
X141368938Y-226079257I-707157J-707306D01*
G01*
X234000000Y-262500000D02*
G75*
G03*
X234500000Y-262000000I0J500000D01*
G01*
X186417424Y-216000000D02*
X176000000Y-216000000D01*
X140714113Y-105276830D02*
X149551615Y-110379165D01*
X150448473Y-91968170D02*
G75*
G03*
X140538781Y-104580964I50912827J-50200830D01*
G01*
X174000000Y-218000000D02*
X174000000Y-246000000D01*
X241629903Y-99177647D02*
G75*
G03*
X241629934Y-99884785I353597J-353553D01*
G01*
X252750000Y-269250000D02*
G75*
G03*
X257000000Y-265000000I0J4250000D01*
G01*
X209000000Y-217999999D02*
G75*
G03*
X212116151Y-216640000I0J4249999D01*
G01*
X141368941Y-73920721D02*
G75*
G03*
X142193639Y-73634788I117659J992921D01*
G01*
X175000000Y-250000000D02*
G75*
G03*
X174500000Y-249500000I-500000J0D01*
G01*
X120133975Y-102332014D02*
X120462578Y-101762856D01*
X165500000Y-250000000D02*
X165500000Y-262000000D01*
X247640351Y-206832737D02*
G75*
G03*
X248347456Y-206832737I353553J353551D01*
G01*
X158370066Y-200115215D02*
X149884785Y-191629934D01*
X254707107Y-58523341D02*
X250115224Y-63115224D01*
X194000000Y-195500000D02*
X206000000Y-195500000D01*
X279358446Y-100172889D02*
G75*
G03*
X278978184Y-96794229I-4060846J1253689D01*
G01*
X256832734Y-198347453D02*
G75*
G03*
X256832737Y-197640351I-353534J353553D01*
G01*
X274863952Y-212136030D02*
X262136030Y-224863952D01*
X157358293Y-100896558D02*
X158370066Y-99884785D01*
X120462595Y-101762866D02*
G75*
G03*
X120641534Y-100172895I-1731895J999966D01*
G01*
X234500000Y-50000000D02*
X234500000Y-38000000D01*
X241629966Y-200115247D02*
G75*
G03*
X241629935Y-200822321I353534J-353553D01*
G01*
X142193639Y-73634788D02*
X149884776Y-65943651D01*
X250822322Y-191629934D02*
G75*
G03*
X250115215Y-191629934I-353553J-353552D01*
G01*
X234000000Y-249500000D02*
X225500000Y-249500000D01*
X127600630Y-85399388D02*
X137863970Y-75136048D01*
X206500000Y-186500000D02*
G75*
G03*
X206000000Y-186000000I-500000J0D01*
G01*
X121021815Y-96794229D02*
X127600630Y-85399388D01*
X234500000Y-38000000D02*
G75*
G03*
X234000000Y-37500000I-500000J0D01*
G01*
X250448385Y-110379165D02*
X259285887Y-105276830D01*
X224000000Y-248000000D02*
G75*
G03*
X226000000Y-246000000I0J2000000D01*
G01*
X123920721Y-208631059D02*
G75*
G03*
X123634788Y-207806361I-992921J117659D01*
G01*
X121021805Y-96794224D02*
G75*
G03*
X120641535Y-100172895I3680495J-2124976D01*
G01*
X149551578Y-110379229D02*
G75*
G03*
X150234628Y-110196152I250022J432929D01*
G01*
X166000000Y-249500000D02*
G75*
G03*
X165500000Y-250000000I0J-500000D01*
G01*
X144999976Y-57582576D02*
G75*
G03*
X144359999Y-56116152I-1999876J76D01*
G01*
X241629934Y-99884785D02*
X242641707Y-100896558D01*
X145000018Y-57816234D02*
G75*
G03*
X145292894Y-58523340I999882J-66D01*
G01*
X174500000Y-249500000D02*
X166000000Y-249500000D01*
X250115224Y-65943651D02*
X257806361Y-73634788D01*
X143000000Y-53000000D02*
X143000000Y-35000000D01*
X187883859Y-216639991D02*
G75*
G03*
X186417424Y-216000000I-1466459J-1360109D01*
G01*
X176000000Y-248000000D02*
X224000000Y-248000000D01*
X166000000Y-262500000D02*
X174500000Y-262500000D01*
X174500000Y-37500000D02*
X166000000Y-37500000D01*
X165500000Y-50000000D02*
G75*
G03*
X166000000Y-50500000I500000J0D01*
G01*
X274863922Y-212136000D02*
G75*
G03*
X276079256Y-208631062I-3005122J3005200D01*
G01*
X262136000Y-75136078D02*
G75*
G03*
X258631062Y-73920744I-3005200J-3005122D01*
G01*
X225500000Y-262500000D02*
X234000000Y-262500000D01*
X141368940Y-73920728D02*
G75*
G03*
X137863971Y-75136049I-499840J-4220272D01*
G01*
X120133980Y-102332017D02*
G75*
G03*
X120000000Y-102832014I865920J-499983D01*
G01*
X152359650Y-206832738D02*
X158370066Y-200822322D01*
X255640000Y-56116151D02*
G75*
G03*
X257000000Y-53000000I-2890000J3116151D01*
G01*
X225000000Y-262000000D02*
G75*
G03*
X225500000Y-262500000I500000J0D01*
G01*
X249765361Y-110196159D02*
G75*
G03*
X242641707Y-100896558I-42981361J-25546241D01*
G01*
X123634788Y-207806361D02*
X120292893Y-204464466D01*
X225500000Y-37500000D02*
G75*
G03*
X225000000Y-38000000I0J-500000D01*
G01*
X276365235Y-207806384D02*
G75*
G03*
X276079258Y-208631062I707065J-707116D01*
G01*
X145000000Y-57816234D02*
X145000000Y-57582576D01*
X272465197Y-85513402D02*
X278978185Y-96794229D01*
X143000000Y-265000000D02*
G75*
G03*
X147250000Y-269250000I4250000J0D01*
G01*
X175000000Y-262000000D02*
X175000000Y-250000000D01*
X175000000Y-50000000D02*
X175000000Y-38000000D01*
X255000000Y-242183766D02*
X255000000Y-242417424D01*
X209000000Y-218000000D02*
X191000000Y-218000000D01*
X149884813Y-236884813D02*
G75*
G03*
X149884775Y-234056350I-1414213J1414213D01*
G01*
X213582576Y-215999982D02*
G75*
G03*
X212116151Y-216640000I24J-2000018D01*
G01*
X145292893Y-241476659D02*
X149884776Y-236884776D01*
X206000000Y-195500000D02*
G75*
G03*
X206500000Y-195000000I0J500000D01*
G01*
X149884776Y-234056349D02*
X142193639Y-226365212D01*
X194000000Y-186000000D02*
G75*
G03*
X193500000Y-186500000I0J-500000D01*
G01*
X158370066Y-99177678D02*
X151158051Y-91965663D01*
X165500000Y-262000000D02*
G75*
G03*
X166000000Y-262500000I500000J0D01*
G01*
X140538756Y-104580949D02*
G75*
G03*
X140714113Y-105276830I425344J-262851D01*
G01*
X256832738Y-197640350D02*
X250822322Y-191629934D01*
X234000000Y-50500000D02*
G75*
G03*
X234500000Y-50000000I0J500000D01*
G01*
X206000000Y-186000000D02*
X194000000Y-186000000D01*
X158370097Y-200822353D02*
G75*
G03*
X158370066Y-200115215I-353497J353553D01*
G01*
X258631057Y-226079297D02*
G75*
G03*
X262136029Y-224863951I499743J4220497D01*
G01*
X248347457Y-206832738D02*
X256832738Y-198347457D01*
X257000000Y-35000000D02*
X257000000Y-53000000D01*
X257806384Y-73634765D02*
G75*
G03*
X258631062Y-73920742I707116J707065D01*
G01*
X255640012Y-56116164D02*
G75*
G03*
X255000000Y-57582576I1359988J-1466436D01*
G01*
X279707127Y-204464486D02*
G75*
G03*
X280000000Y-203757359I-707127J707086D01*
G01*
X250115262Y-234056387D02*
G75*
G03*
X250115225Y-236884775I1414138J-1414213D01*
G01*
X174500000Y-50500000D02*
G75*
G03*
X175000000Y-50000000I0J500000D01*
G01*
X279358503Y-100172906D02*
G75*
G03*
X279537422Y-101762856I1910997J-589994D01*
G01*
X143167262Y-198347457D02*
X151652543Y-206832738D01*
X206500000Y-195000000D02*
X206500000Y-186500000D01*
X143000000Y-265000000D02*
X143000000Y-247000000D01*
X151158053Y-91965661D02*
G75*
G03*
X150448464Y-91968162I-353553J-353539D01*
G01*
X149884785Y-191629934D02*
G75*
G03*
X149177678Y-191629934I-353553J-353552D01*
G01*
X137863970Y-224863952D02*
X125136048Y-212136030D01*
X254707090Y-58523324D02*
G75*
G03*
X255000000Y-57816234I-707090J707124D01*
G01*
X255000024Y-242183766D02*
G75*
G03*
X254707107Y-241476659I-1000024J-34D01*
G01*
X279537422Y-101762856D02*
X279866025Y-102332014D01*
X234000000Y-37500000D02*
X225500000Y-37500000D01*
X144360009Y-243883859D02*
G75*
G03*
X145000000Y-242417424I-1360109J1466459D01*
G01*
X250115187Y-63115187D02*
G75*
G03*
X250115225Y-65943650I1414213J-1414213D01*
G01*
X120000017Y-203757359D02*
G75*
G03*
X120292893Y-204464466I1000183J59D01*
G01*
X226000000Y-246000000D02*
X226000000Y-218000000D01*
X175000000Y-38000000D02*
G75*
G03*
X174500000Y-37500000I-500000J0D01*
G01*
M02*
