%TF.GenerationSoftware,KiCad,Pcbnew,7.0.10*%
%TF.CreationDate,2024-05-27T11:18:26+02:00*%
%TF.ProjectId,Edurob,45647572-6f62-42e6-9b69-6361645f7063,rev?*%
%TF.SameCoordinates,Original*%
%TF.FileFunction,Profile,NP*%
%FSLAX46Y46*%
G04 Gerber Fmt 4.6, Leading zero omitted, Abs format (unit mm)*
G04 Created by KiCad (PCBNEW 7.0.10) date 2024-05-27 11:18:26*
%MOMM*%
%LPD*%
G01*
G04 APERTURE LIST*
%TA.AperFunction,Profile*%
%ADD10C,0.250000*%
%TD*%
G04 APERTURE END LIST*
D10*
X256999999Y-247000000D02*
G75*
G03*
X255640000Y-243883849I-4249999J0D01*
G01*
X138376555Y-74698948D02*
X131209814Y-79888476D01*
X145000000Y-242417424D02*
X145000000Y-242183766D01*
X226000000Y-246000000D02*
X226000000Y-218000000D01*
X250115187Y-63115187D02*
G75*
G03*
X250115225Y-65943650I1414213J-1414213D01*
G01*
X143000000Y-53000000D02*
X143000000Y-35000000D01*
X147250000Y-30750000D02*
X252750000Y-30750000D01*
X143000001Y-53000000D02*
G75*
G03*
X144360000Y-56116151I4249999J0D01*
G01*
X279358503Y-100172906D02*
G75*
G03*
X279537422Y-101762856I1910997J-589994D01*
G01*
X147250000Y-30750000D02*
G75*
G03*
X143000000Y-35000000I0J-4250000D01*
G01*
X257000000Y-247000000D02*
X257000000Y-265000000D01*
X120133975Y-102332014D02*
X120462578Y-101762856D01*
X255000024Y-242183766D02*
G75*
G03*
X254707107Y-241476659I-1000024J-34D01*
G01*
X280000000Y-203757359D02*
X280000000Y-102832014D01*
X224000000Y-216000000D02*
X213582576Y-216000000D01*
X269717648Y-80807736D02*
G75*
G03*
X268790186Y-79888476I-3420048J-2523064D01*
G01*
X209000000Y-217999999D02*
G75*
G03*
X212116151Y-216640000I0J4249999D01*
G01*
X120000000Y-102832014D02*
X120000000Y-203757359D01*
X130282361Y-80807743D02*
X124721181Y-88346136D01*
X279999992Y-102832014D02*
G75*
G03*
X279866024Y-102332014I-999992J14D01*
G01*
X258631057Y-226079297D02*
G75*
G03*
X262136029Y-224863951I499743J4220497D01*
G01*
X255640012Y-56116164D02*
G75*
G03*
X255000000Y-57582576I1359988J-1466436D01*
G01*
X144360000Y-243883849D02*
G75*
G03*
X143000000Y-247000000I2890000J-3116151D01*
G01*
X186417424Y-216000000D02*
X176000000Y-216000000D01*
X279707107Y-204464466D02*
X276365212Y-207806361D01*
X120133980Y-102332017D02*
G75*
G03*
X120000000Y-102832014I865920J-499983D01*
G01*
X176000000Y-216000000D02*
G75*
G03*
X174000000Y-218000000I0J-2000000D01*
G01*
X120000017Y-203757359D02*
G75*
G03*
X120292893Y-204464466I1000183J59D01*
G01*
X123920731Y-208631061D02*
G75*
G03*
X125136048Y-212136030I4220569J-499739D01*
G01*
X252750000Y-269250000D02*
X147250000Y-269250000D01*
X257000000Y-35000000D02*
X257000000Y-53000000D01*
X176000000Y-248000000D02*
X224000000Y-248000000D01*
X275278819Y-88346136D02*
X269717639Y-80807743D01*
X255640000Y-56116151D02*
G75*
G03*
X257000000Y-53000000I-2890000J3116151D01*
G01*
X142193657Y-226365194D02*
G75*
G03*
X141368938Y-226079257I-707157J-707306D01*
G01*
X274863952Y-212136030D02*
X262136030Y-224863952D01*
X174000000Y-218000000D02*
X174000000Y-246000000D01*
X276365235Y-207806384D02*
G75*
G03*
X276079258Y-208631062I707065J-707116D01*
G01*
X224000000Y-248000000D02*
G75*
G03*
X226000000Y-246000000I0J2000000D01*
G01*
X145000018Y-57816234D02*
G75*
G03*
X145292894Y-58523340I999882J-66D01*
G01*
X261623425Y-74698976D02*
G75*
G03*
X258631061Y-73920733I-2492625J-3442224D01*
G01*
X137863970Y-224863952D02*
X125136048Y-212136030D01*
X209000000Y-218000000D02*
X191000000Y-218000000D01*
X141368943Y-73920700D02*
G75*
G03*
X138376555Y-74698950I-499743J-4220500D01*
G01*
X143000000Y-265000000D02*
X143000000Y-247000000D01*
X124232909Y-89199606D02*
X120794089Y-97249670D01*
X149884776Y-234056349D02*
X142193639Y-226365212D01*
X250115224Y-236884776D02*
X254707107Y-241476659D01*
X250115224Y-65943651D02*
X257806361Y-73634788D01*
X143000000Y-265000000D02*
G75*
G03*
X147250000Y-269250000I4250000J0D01*
G01*
X254999982Y-242417424D02*
G75*
G03*
X255640000Y-243883849I2000018J24D01*
G01*
X255000000Y-242183766D02*
X255000000Y-242417424D01*
X144360009Y-243883859D02*
G75*
G03*
X145000000Y-242417424I-1360109J1466459D01*
G01*
X252750000Y-269250000D02*
G75*
G03*
X257000000Y-265000000I0J4250000D01*
G01*
X213582576Y-215999982D02*
G75*
G03*
X212116151Y-216640000I24J-2000018D01*
G01*
X226000000Y-218000000D02*
G75*
G03*
X224000000Y-216000000I-2000000J0D01*
G01*
X268790186Y-79888476D02*
X261623445Y-74698948D01*
X145292893Y-241476659D02*
X149884776Y-236884776D01*
X279358448Y-100172889D02*
G75*
G03*
X279205910Y-97249670I-4060848J1253689D01*
G01*
X257000000Y-35000000D02*
G75*
G03*
X252750000Y-30750000I-4250000J0D01*
G01*
X145292869Y-241476635D02*
G75*
G03*
X145000000Y-242183766I707331J-707165D01*
G01*
X258631066Y-226079226D02*
G75*
G03*
X257806361Y-226365212I-117566J-993074D01*
G01*
X149884776Y-63115224D02*
X145292893Y-58523341D01*
X141368941Y-73920721D02*
G75*
G03*
X142193639Y-73634788I117659J992921D01*
G01*
X131209821Y-79888485D02*
G75*
G03*
X130282361Y-80807743I2492879J-3442615D01*
G01*
X250115262Y-234056387D02*
G75*
G03*
X250115225Y-236884775I1414138J-1414213D01*
G01*
X137863959Y-224863963D02*
G75*
G03*
X141368938Y-226079257I3005241J3005363D01*
G01*
X123920721Y-208631059D02*
G75*
G03*
X123634788Y-207806361I-992921J117659D01*
G01*
X149884813Y-236884813D02*
G75*
G03*
X149884775Y-234056350I-1414213J1414213D01*
G01*
X187883859Y-216639991D02*
G75*
G03*
X186417424Y-216000000I-1466459J-1360109D01*
G01*
X120462595Y-101762866D02*
G75*
G03*
X120641534Y-100172895I-1731895J999966D01*
G01*
X255000000Y-57582576D02*
X255000000Y-57816234D01*
X142193639Y-73634788D02*
X149884776Y-65943651D01*
X279707127Y-204464486D02*
G75*
G03*
X280000000Y-203757359I-707127J707086D01*
G01*
X257806361Y-226365212D02*
X250115224Y-234056349D01*
X145000000Y-57816234D02*
X145000000Y-57582576D01*
X254707090Y-58523324D02*
G75*
G03*
X255000000Y-57816234I-707090J707124D01*
G01*
X279205911Y-97249670D02*
X275767091Y-89199606D01*
X174000000Y-246000000D02*
G75*
G03*
X176000000Y-248000000I2000000J0D01*
G01*
X254707107Y-58523341D02*
X250115224Y-63115224D01*
X123634788Y-207806361D02*
X120292893Y-204464466D01*
X275767091Y-89199606D02*
G75*
G03*
X275278819Y-88346136I-3908391J-1669594D01*
G01*
X149884738Y-65943613D02*
G75*
G03*
X149884775Y-63115225I-1414138J1414213D01*
G01*
X279537422Y-101762856D02*
X279866025Y-102332014D01*
X274863922Y-212136000D02*
G75*
G03*
X276079256Y-208631062I-3005122J3005200D01*
G01*
X124721181Y-88346136D02*
G75*
G03*
X124232909Y-89199606I3420119J-2523064D01*
G01*
X187883849Y-216640000D02*
G75*
G03*
X191000000Y-218000000I3116151J2890000D01*
G01*
X144999976Y-57582576D02*
G75*
G03*
X144359999Y-56116152I-1999876J76D01*
G01*
X120794079Y-97249666D02*
G75*
G03*
X120641534Y-100172895I3908121J-1669534D01*
G01*
X257806384Y-73634765D02*
G75*
G03*
X258631062Y-73920742I707116J707065D01*
G01*
M02*
