M48
METRIC,TZ
T1C0.350
T2C0.400
T3C0.600
T4C0.950
T5C0.990
T6C1.000
T7C1.300
T8C1.500
T9C4.500
%
G90
G05
T1
X169050Y-58421
X175288Y-33342
X188500Y-35500
X188500Y-42500
X189566Y-35500
X189569Y-42500
X191000Y-35500
X193000Y-43000
X207290Y-39790
X207500Y-38500
X208210Y-40710
X211500Y-38500
X214127Y-93459
X215627Y-93459
X216000Y-59556
X233000Y-34000
T2
X156500Y-60000
X162050Y-73112
X162074Y-70567
X162103Y-68017
X165518Y-85776
X166000Y-70000
X166279Y-86524
X166500Y-91500
X167000Y-70000
X167194Y-87358
X168000Y-92500
X168013Y-81987
X168833Y-82719
X169268Y-89792
X169500Y-216000
X169676Y-83544
X170498Y-84338
X171312Y-85165
X172128Y-85974
X173024Y-86804
X174000Y-60000
X175000Y-59000
X176500Y-56000
X178195Y-65195
X179000Y-64129
X179500Y-59400
X179906Y-63404
X181000Y-59400
X181663Y-72421
X183000Y-52000
X183000Y-53000
X183000Y-64000
X183000Y-65000
X184500Y-81500
X184500Y-83000
X185000Y-99000
X186013Y-64013
X186500Y-65000
X186500Y-100500
X186895Y-66000
X187000Y-75500
X187000Y-77000
X188289Y-65009
X189500Y-51900
X189530Y-53172
X191000Y-74000
X191000Y-75000
X192000Y-74000
X192000Y-75000
X193000Y-74000
X193000Y-75000
X194286Y-58044
X194500Y-109919
X194516Y-113005
X195555Y-58000
X195856Y-109917
X196824Y-58070
X197495Y-64619
X197678Y-72430
X198028Y-115850
X198094Y-58031
X199000Y-108643
X199411Y-63895
X200500Y-76500
X201048Y-115853
X201225Y-75000
X201500Y-63895
X201812Y-85492
X202926Y-63832
X203000Y-80500
X203000Y-82000
X204000Y-113008
X204030Y-63797
X204118Y-92094
X204444Y-61210
X205153Y-63812
X205450Y-87468
X205452Y-90161
X206346Y-63797
X206439Y-88230
X206440Y-90802
X207000Y-74000
X207000Y-75000
X208000Y-64175
X208000Y-74000
X208000Y-75000
X209000Y-60000
X209000Y-74000
X209000Y-75000
X210466Y-44281
X210467Y-43008
X210487Y-54439
X210488Y-53170
X210502Y-55709
X212509Y-60000
X212644Y-55707
X213818Y-58562
X214000Y-62000
X214000Y-68112
X217000Y-57075
X217000Y-59475
X218000Y-57058
X218000Y-59450
X218169Y-108934
X219000Y-57025
X219000Y-59406
X220000Y-57056
X220021Y-59402
X224500Y-82000
X225000Y-57000
X225000Y-80500
X226465Y-56150
X227500Y-62599
X227537Y-60000
X233000Y-35500
X233500Y-219000
X234028Y-57470
X236000Y-36500
X238500Y-36500
X241500Y-36500
X244500Y-36500
T4
X170250Y-66040
X170250Y-68540
X170250Y-71040
X170250Y-73540
X170250Y-76040
X170250Y-78540
X170250Y-218576
X170250Y-221076
X170250Y-223576
X170250Y-226076
X170250Y-228576
X170250Y-231076
X191000Y-89000
X191000Y-91500
X191000Y-94000
X196000Y-89000
X196000Y-91500
X196000Y-94000
X229750Y-66040
X229750Y-68540
X229750Y-71040
X229750Y-73540
X229750Y-76040
X229750Y-78540
X229750Y-218576
X229750Y-221076
X229750Y-223576
X229750Y-226076
X229750Y-228576
X229750Y-231076
T5
X154400Y-32716
X158900Y-32716
X164275Y-32716
X168775Y-32716
T6
X125000Y-126680
X125000Y-129220
X125000Y-131760
X125000Y-134300
X125000Y-165680
X125000Y-168220
X125000Y-170760
X125000Y-173300
X158000Y-59140
X158000Y-61680
X158000Y-64220
X158000Y-66760
X158000Y-69300
X158000Y-71840
X158000Y-74380
X158000Y-76920
X158000Y-79460
X158000Y-82000
X158000Y-218000
X158000Y-220540
X158000Y-223080
X158000Y-225620
X158000Y-228160
X158000Y-230700
X158000Y-233240
X158000Y-235780
X158000Y-238320
X158000Y-240860
X160540Y-59140
X160540Y-61680
X160540Y-64220
X160540Y-66760
X160540Y-69300
X160540Y-71840
X160540Y-74380
X160540Y-76920
X160540Y-79460
X160540Y-82000
X160540Y-218000
X160540Y-220540
X160540Y-223080
X160540Y-225620
X160540Y-228160
X160540Y-230700
X160540Y-233240
X160540Y-235780
X160540Y-238320
X160540Y-240860
X174371Y-95366
X176911Y-95366
X177380Y-42500
X179451Y-95366
X179920Y-42500
X181991Y-95366
X182460Y-42500
X184531Y-95366
X185000Y-42500
X187071Y-95366
X215000Y-42380
X217540Y-42380
X220080Y-42380
X222620Y-42380
X239460Y-59140
X239460Y-61680
X239460Y-64220
X239460Y-66760
X239460Y-69300
X239460Y-71840
X239460Y-74380
X239460Y-76920
X239460Y-79460
X239460Y-82000
X239460Y-218000
X239460Y-220540
X239460Y-223080
X239460Y-225620
X239460Y-228160
X239460Y-230700
X239460Y-233240
X239460Y-235780
X239460Y-238320
X239460Y-240860
X242000Y-59140
X242000Y-61680
X242000Y-64220
X242000Y-66760
X242000Y-69300
X242000Y-71840
X242000Y-74380
X242000Y-76920
X242000Y-79460
X242000Y-82000
X242000Y-218000
X242000Y-220540
X242000Y-223080
X242000Y-225620
X242000Y-228160
X242000Y-230700
X242000Y-233240
X242000Y-235780
X242000Y-238320
X242000Y-240860
X274975Y-126700
X274975Y-129240
X274975Y-131780
X274975Y-134320
X274975Y-165700
X274975Y-168240
X274975Y-170780
X274975Y-173320
T7
X153140Y-35206
X160150Y-35206
X163015Y-35206
X170025Y-35206
T8
X174120Y-103000
X196720Y-103000
X204600Y-103000
X227200Y-103000
T9
X124702Y-98919
X125000Y-110000
X125000Y-190000
X128141Y-90869
X128141Y-209131
X133702Y-83331
X140869Y-78141
X140869Y-221859
X147250Y-35000
X147250Y-53000
X147250Y-247000
X147250Y-265000
X160000Y-110000
X160000Y-190000
X180000Y-35750
X180000Y-264250
X191000Y-213750
X209000Y-213750
X220000Y-35750
X220000Y-264250
X240000Y-110000
X240000Y-190000
X252750Y-35000
X252750Y-53000
X252750Y-247000
X252750Y-265000
X259131Y-78141
X259131Y-221859
X266298Y-83331
X271859Y-90869
X271859Y-209131
X275000Y-110000
X275000Y-190000
X275298Y-98919
T3
G00X205178Y-32014
M15
G01X205178Y-32814
M16
G05
G00X205178Y-36044
M15
G01X205178Y-37144
M16
G05
G00X213818Y-32014
M15
G01X213818Y-32814
M16
G05
G00X213818Y-36044
M15
G01X213818Y-37144
M16
G05
M30
